{
.appVersion = "3151";
.formatVersion = 3;
DisplayStrings = (
"ĂĂĀĀĄĄǺǺǼǼĆĆČČĈĈĊĊĎĎĔĔĚĚĖĖĒĒĘĘĞĞĜĜĠĠĤĤĬĬİİĪĪĮĮĨĨĴĴĹĹĽĽŃŃŇŇŎŎŐŐŌŌǾǾŔŔŘŘŚŚŞŞŜŜŤŤŬŬŰŰŪŪŲŲŮŮŨŨẂẂŴŴẄẄẀẀŶŶỲỲŹŹŻŻŢŢăăāāąąǻǻǽǽććččĉĉċċďďĕĕěěėėēēęęğğĝĝġġĥĥĭĭīīįįĩĩĵĵĺĺľľńńňňŏŏőőōōǿǿŕŕřřśśşşŝŝťťŭŭűűūūţţųųůůũũẃẃŵŵẅẅẁẁŷŷỳỳźźżż"
);
customParameters = (
{
name = descriptions;
value = "";
},
{
name = licenses;
value = "This Font Software is licensed under the SIL Open Font License, Version 1.1. This license is available with a FAQ at: http://scripts.sil.org/OFL";
},
{
name = licenseURL;
value = "http://scripts.sil.org/OFL";
},
{
name = sampleTexts;
value = "";
},
{
name = uniqueID;
value = "EduardoRodriguezTunni: Faster: 2012";
},
{
name = versionString;
value = "Version 1.001";
},
{
name = codePageRanges;
value = (
"1252",
"1250",
"1254",
"1257",
"bit 29"
);
},
{
name = openTypeOS2FamilyClass;
value = (
0,
0
);
},
{
name = panose;
value = (
2,
0,
5,
5,
5,
0,
0,
9,
0,
4
);
},
{
name = openTypeOS2SubscriptXOffset;
value = -16;
},
{
name = openTypeOS2SubscriptXSize;
value = 650;
},
{
name = openTypeOS2SubscriptYOffset;
value = 75;
},
{
name = openTypeOS2SubscriptYSize;
value = 600;
},
{
name = openTypeOS2SuperscriptXOffset;
value = 74;
},
{
name = openTypeOS2SuperscriptXSize;
value = 650;
},
{
name = openTypeOS2SuperscriptYOffset;
value = 350;
},
{
name = openTypeOS2SuperscriptYSize;
value = 600;
},
{
name = unicodeRanges;
value = (
0,
1,
2,
3,
5,
7,
29,
31,
33,
35,
38,
45,
60,
62
);
},
{
name = vendorID;
value = TIPO;
},
{
name = trademarks;
value = "Faster is a trademark of Eduardo Rodriguez Tunni.";
},
{
name = year;
value = 2012;
}
);
date = "2023-02-08 10:18:05 +0000";
familyName = "Faster One";
featurePrefixes = (
{
code = "languagesystem DFLT dflt;
languagesystem latn dflt; # Latin default
";
name = Languagesystems;
},
{
code = "#
# Feature definitions
#

###
# OpenType Layout feature definitions
# Format: Adobe FDK for OpenType (AFDKO) version 2.5
# Generated on: 2013-11-28 16:10
# Generated by: Fontlab

glyphs = (
{
glyphname = A;
layers = (
{
layerId = master01;
shapes = (
{
closed = 1;
nodes = (
(431,99,l,{
name = hr01;
}),
(588,99,l),
(592,0,l,{
name = hr02;
}),
(793,0,l),
(749,625,l),
(455,625,l),
(192,0,l),
(392,0,l)
);
},
{
closed = 1;
nodes = (
(573,433,l,{
name = hr03;
}),
(573,258,l),
(493,258,l),
(563,433,l)
);
},
{
closed = 1;
nodes = (
(179,48,l),
(-250,48,l),
(160,4,l)
);
},
{
closed = 1;
nodes = (
(220,145,l,{
name = hr04;
}),
(-209,145,l),
(201,101,l)
);
},
{
closed = 1;
nodes = (
(260,241,l),
(-168,241,l),
(242,197,l)
);
},
{
closed = 1;
nodes = (
(301,337,l),
(-127,337,l),
(282,293,l)
);
},
{
closed = 1;
nodes = (
(341,433,l),
(-86,433,l),
(323,389,l)
);
},
{
closed = 1;
nodes = (
(422,625,l),
(-4,625,l),
(404,582,l)
);
},
{
closed = 1;
nodes = (
(381,529,l),
(-45,529,l),
(363,486,l)
);
},
{
closed = 1;
nodes = (
(422,625,l),
(-4,625,l),
(404,582,l)
);
}
);
width = 851;
}
);
unicode = 65;
},
{
glyphname = Aacute;
layers = (
{
layerId = master01;
shapes = (
{
closed = 1;
nodes = (
(431,99,l,{
name = hr02;
}),
(588,99,l),
(592,0,l,{
name = hr03;
}),
(793,0,l),
(749,625,l),
(455,625,l),
(192,0,l),
(392,0,l,{
name = hr01;
})
);
},
{
closed = 1;
nodes = (
(573,433,l,{
name = hr04;
}),
(573,258,l),
(493,258,l),
(563,433,l)
);
},
{
closed = 1;
nodes = (
(179,48,l),
(-250,48,l),
(160,4,l)
);
},
{
closed = 1;
nodes = (
(220,145,l,{
name = hr05;
}),
(-209,145,l),
(201,101,l)
);
},
{
closed = 1;
nodes = (
(260,241,l),
(-168,241,l),
(242,197,l)
);
},
{
closed = 1;
nodes = (
(301,337,l),
(-127,337,l),
(282,293,l)
);
},
{
closed = 1;
nodes = (
(341,433,l),
(-86,433,l),
(323,389,l)
);
},
{
closed = 1;
nodes = (
(422,625,l),
(-4,625,l),
(404,582,l)
);
},
{
closed = 1;
nodes = (
(381,529,l),
(-45,529,l),
(363,486,l)
);
},
{
closed = 1;
nodes = (
(422,625,l),
(-4,625,l),
(404,582,l)
);
},
{
closed = 1;
nodes = (
(722,717,o),
(726,720,o),
(733,726,cs),
(777,764,o),
(778,765,o),
(778,765,c),
(780,768,o),
(782,771,o),
(782,776,cs),
(782,781,o),
(779,787,o),
(773,794,cs),
(710,868,ls),
(705,874,o),
(699,879,o),
(692,879,cs),
(688,879,o),
(684,877,o),
(681,875,cs),
(492,736,l),
(533,679,l),
(707,714,ls,{
name = hr06;
})
);
},
{
closed = 1;
nodes = (
(572,833,l),
(159,833,l),
(519,794,l)
);
},
{
closed = 1;
nodes = (
(461,752,l),
(48,752,l),
(408,713,l)
);
}
);
width = 851;
}
);
unicode = 193;
},
{
glyphname = Acircumflex;
layers = (
{
layerId = master01;
shapes = (
{
closed = 1;
nodes = (
(431,99,l,{
name = hr01;
}),
(588,99,l),
(592,0,l,{
name = hr02;
}),
(793,0,l),
(749,625,l),
(455,625,l),
(192,0,l),
(392,0,l)
);
},
{
closed = 1;
nodes = (
(573,433,l,{
name = hr03;
}),
(573,258,l),
(493,258,l),
(563,433,l)
);
},
{
closed = 1;
nodes = (
(179,48,l),
(-250,48,l),
(160,4,l)
);
},
{
closed = 1;
nodes = (
(220,145,l,{
name = hr04;
}),
(-209,145,l),
(201,101,l)
);
},
{
closed = 1;
nodes = (
(260,241,l),
(-168,241,l),
(242,197,l)
);
},
{
closed = 1;
nodes = (
(301,337,l),
(-127,337,l),
(282,293,l)
);
},
{
closed = 1;
nodes = (
(341,433,l),
(-86,433,l),
(323,389,l)
);
},
{
closed = 1;
nodes = (
(422,625,l),
(-4,625,l),
(404,582,l)
);
},
{
closed = 1;
nodes = (
(381,529,l),
(-45,529,l),
(363,486,l)
);
},
{
closed = 1;
nodes = (
(422,625,l),
(-4,625,l),
(404,582,l)
);
},
{
closed = 1;
nodes = (
(614,880,o),
(608,877,o),
(603,871,cs),
(471,726,l),
(519,677,l),
(618,740,l),
(696,677,l),
(762,726,l),
(679,871,ls),
(676,876,o),
(673,880,o),
(666,880,cs),
(621,880,ls,{
name = hr05;
})
);
},
{
closed = 1;
nodes = (
(527,833,l),
(169,833,l),
(492,794,l)
);
},
{
closed = 1;
nodes = (
(454,752,l),
(88,752,l),
(418,713,l)
);
}
);
width = 851;
}
);
unicode = 194;
},
{
glyphname = Adieresis;
layers = (
{
layerId = master01;
shapes = (
{
closed = 1;
nodes = (
(431,99,l,{
name = hr01;
}),
(588,99,l),
(592,0,l,{
name = hr02;
}),
(793,0,l),
(749,625,l),
(455,625,l),
(192,0,l),
(392,0,l)
);
},
{
closed = 1;
nodes = (
(573,433,l,{
name = hr03;
}),
(573,258,l),
(493,258,l),
(563,433,l)
);
},
{
closed = 1;
nodes = (
(179,48,l),
(-250,48,l),
(160,4,l)
);
},
{
closed = 1;
nodes = (
(220,145,l,{
name = hr04;
}),
(-209,145,l),
(201,101,l)
);
},
{
closed = 1;
nodes = (
(260,241,l),
(-168,241,l),
(242,197,l)
);
},
{
closed = 1;
nodes = (
(301,337,l),
(-127,337,l),
(282,293,l)
);
},
{
closed = 1;
nodes = (
(341,433,l),
(-86,433,l),
(323,389,l)
);
},
{
closed = 1;
nodes = (
(422,625,l),
(-4,625,l),
(404,582,l)
);
},
{
closed = 1;
nodes = (
(381,529,l),
(-45,529,l),
(363,486,l)
);
},
{
closed = 1;
nodes = (
(422,625,l),
(-4,625,l),
(404,582,l)
);
},
{
closed = 1;
nodes = (
(661,848,o),
(636,819,o),
(636,740,cs),
(636,706,o),
(652,692,o),
(700,692,cs),
(766,692,o),
(791,721,o),
(791,800,cs),
(791,834,o),
(775,848,o),
(727,848,cs,{
name = hr05;
})
);
},
{
closed = 1;
nodes = (
(453,848,o),
(428,819,o),
(428,740,cs),
(428,706,o),
(444,692,o),
(492,692,cs),
(557,692,o),
(583,721,o),
(583,800,cs),
(583,834,o),
(566,848,o),
(519,848,cs)
);
},
{
closed = 1;
nodes = (
(99,833,l),
(401,787,l),
(404,805,o),
(408,820,o),
(415,833,c,{
name = hr06;
})
);
},
{
closed = 1;
nodes = (
(398,754,l,{
name = hr07;
}),
(99,754,l),
(401,708,l),
(399,717,o),
(398,728,o),
(398,740,c)
);
}
);
width = 851;
}
);
unicode = 196;
},
{
glyphname = Agrave;
layers = (
{
layerId = master01;
shapes = (
{
closed = 1;
nodes = (
(431,99,l,{
name = hr01;
}),
(588,99,l),
(592,0,l,{
name = hr02;
}),
(793,0,l),
(749,625,l),
(455,625,l),
(192,0,l),
(392,0,l)
);
},
{
closed = 1;
nodes = (
(573,433,l,{
name = hr03;
}),
(573,258,l),
(493,258,l),
(563,433,l)
);
},
{
closed = 1;
nodes = (
(179,48,l),
(-250,48,l),
(160,4,l)
);
},
{
closed = 1;
nodes = (
(220,145,l,{
name = hr04;
}),
(-209,145,l),
(201,101,l)
);
},
{
closed = 1;
nodes = (
(260,241,l),
(-168,241,l),
(242,197,l)
);
},
{
closed = 1;
nodes = (
(301,337,l),
(-127,337,l),
(282,293,l)
);
},
{
closed = 1;
nodes = (
(341,433,l),
(-86,433,l),
(323,389,l)
);
},
{
closed = 1;
nodes = (
(422,625,l),
(-4,625,l),
(404,582,l)
);
},
{
closed = 1;
nodes = (
(381,529,l),
(-45,529,l),
(363,486,l)
);
},
{
closed = 1;
nodes = (
(422,625,l),
(-4,625,l),
(404,582,l)
);
},
{
closed = 1;
nodes = (
(771,736,l),
(582,875,ls),
(579,877,o),
(575,879,o),
(571,879,cs),
(564,879,o),
(558,874,o),
(553,868,cs),
(490,794,ls),
(485,788,o),
(481,781,o),
(481,775,cs),
(481,772,o),
(482,768,o),
(485,765,cs),
(530,726,ls),
(537,720,o),
(541,717,o),
(556,714,cs),
(730,679,l,{
name = hr05;
})
);
},
{
closed = 1;
nodes = (
(462,810,o),
(474,820,o),
(484,833,c),
(60,833,l),
(455,794,l)
);
},
{
closed = 1;
nodes = (
(471,736,o),
(463,743,o),
(457,752,c),
(90,752,l),
(498,713,l)
);
}
);
width = 851;
}
);
unicode = 192;
},
{
glyphname = Aring;
layers = (
{
layerId = master01;
shapes = (
{
closed = 1;
nodes = (
(431,99,l,{
name = hr01;
}),
(588,99,l),
(592,0,l,{
name = hr02;
}),
(793,0,l),
(749,625,l),
(455,625,l),
(192,0,l),
(392,0,l)
);
},
{
closed = 1;
nodes = (
(573,433,l,{
name = hr03;
}),
(573,258,l),
(493,258,l),
(563,433,l)
);
},
{
closed = 1;
nodes = (
(179,48,l),
(-250,48,l),
(160,4,l)
);
},
{
closed = 1;
nodes = (
(220,145,l,{
name = hr04;
}),
(-209,145,l),
(201,101,l)
);
},
{
closed = 1;
nodes = (
(260,241,l),
(-168,241,l),
(242,197,l)
);
},
{
closed = 1;
nodes = (
(301,337,l),
(-127,337,l),
(282,293,l)
);
},
{
closed = 1;
nodes = (
(341,433,l),
(-86,433,l),
(323,389,l)
);
},
{
closed = 1;
nodes = (
(422,625,l),
(-4,625,l),
(404,582,l)
);
},
{
closed = 1;
nodes = (
(381,529,l),
(-45,529,l),
(363,486,l)
);
},
{
closed = 1;
nodes = (
(422,625,l),
(-4,625,l),
(404,582,l)
);
},
{
closed = 1;
nodes = (
(592,828,o),
(610,829,o),
(635,829,cs),
(672,829,l),
(660,762,ls),
(655,737,o),
(640,736,o),
(616,736,cs),
(576,736,l),
(588,804,ls,{
name = hr05;
})
);
},
{
closed = 1;
nodes = (
(560,898,o),
(511,847,o),
(511,747,cs),
(511,694,o),
(538,667,o),
(604,667,cs),
(689,667,o),
(738,718,o),
(738,818,cs),
(738,871,o),
(711,898,o),
(645,898,cs)
);
},
{
closed = 1;
nodes = (
(486,803,o),
(490,819,o),
(494,833,c,{
name = hr06;
}),
(186,833,l),
(484,787,l)
);
},
{
closed = 1;
nodes = (
(481,754,l,{
name = hr07;
}),
(188,754,l),
(486,708,l),
(483,719,o),
(481,732,o),
(481,747,c)
);
}
);
width = 851;
}
);
unicode = 197;
},
{
glyphname = Atilde;
layers = (
{
layerId = master01;
shapes = (
{
closed = 1;
nodes = (
(431,99,l,{
name = hr01;
}),
(588,99,l),
(592,0,l,{
name = hr02;
}),
(793,0,l),
(749,625,l),
(455,625,l),
(192,0,l),
(392,0,l)
);
},
{
closed = 1;
nodes = (
(573,433,l,{
name = hr03;
}),
(573,258,l),
(493,258,l),
(563,433,l)
);
},
{
closed = 1;
nodes = (
(179,48,l),
(-250,48,l),
(160,4,l)
);
},
{
closed = 1;
nodes = (
(220,145,l,{
name = hr04;
}),
(-209,145,l),
(201,101,l)
);
},
{
closed = 1;
nodes = (
(260,241,l),
(-168,241,l),
(242,197,l)
);
},
{
closed = 1;
nodes = (
(301,337,l),
(-127,337,l),
(282,293,l)
);
},
{
closed = 1;
nodes = (
(341,433,l),
(-86,433,l),
(323,389,l)
);
},
{
closed = 1;
nodes = (
(422,625,l),
(-4,625,l),
(404,582,l)
);
},
{
closed = 1;
nodes = (
(381,529,l),
(-45,529,l),
(363,486,l)
);
},
{
closed = 1;
nodes = (
(422,625,l),
(-4,625,l),
(404,582,l)
);
},
{
closed = 1;
nodes = (
(654,839,o),
(637,861,o),
(605,861,cs),
(573,861,o),
(567,854,o),
(431,769,c),
(465,688,l),
(550,728,l),
(576,705,o),
(593,683,o),
(625,683,cs),
(657,683,o),
(663,690,o),
(799,775,c),
(766,856,l),
(680,816,l,{
name = hr05;
})
);
},
{
closed = 1;
nodes = (
(111,833,l),
(405,787,l),
(477,833,l)
);
},
{
closed = 1;
nodes = (
(111,754,l),
(424,708,l),
(405,754,l)
);
}
);
width = 851;
}
);
unicode = 195;
},
{
glyphname = AE;
layers = (
{
layerId = master01;
shapes = (
{
closed = 1;
nodes = (
(431,99,l,{
name = hr01;
}),
(588,99,l),
(592,0,l,{
name = hr02;
}),
(954,0,l),
(982,160,l,{
name = hr03;
}),
(782,160,l),
(776,236,l),
(909,236,l),
(935,381,l),
(766,381,l),
(760,465,l),
(964,465,l),
(1016,625,l),
(455,625,l),
(192,0,l),
(392,0,l)
);
},
{
closed = 1;
nodes = (
(179,48,l),
(-250,48,l),
(160,4,l)
);
},
{
closed = 1;
nodes = (
(220,145,l),
(-209,145,l),
(201,101,l)
);
},
{
closed = 1;
nodes = (
(260,241,l),
(-168,241,l),
(242,197,l)
);
},
{
closed = 1;
nodes = (
(301,337,l),
(-127,337,l),
(282,293,l)
);
},
{
closed = 1;
nodes = (
(341,433,l),
(-86,433,l),
(323,389,l)
);
},
{
closed = 1;
nodes = (
(422,625,l),
(-4,625,l),
(404,582,l)
);
},
{
closed = 1;
nodes = (
(381,529,l),
(-45,529,l),
(363,486,l)
);
},
{
closed = 1;
nodes = (
(573,433,l),
(573,258,l,{
name = hr04;
}),
(493,258,l),
(563,433,l)
);
}
);
width = 1010;
}
);
unicode = 198;
},
{
glyphname = B;
layers = (
{
layerId = master01;
shapes = (
{
closed = 1;
nodes = (
(546,0,ls),
(671,0,o),
(733,99,o),
(733,212,cs),
(733,273,o),
(708,319,o),
(643,331,c),
(644,337,l),
(703,352,o),
(759,416,o),
(759,523,cs,{
name = hr01;
}),
(759,592,o),
(719,625,o),
(622,625,cs),
(314,625,l),
(204,0,l)
);
},
{
closed = 1;
nodes = (
(536,249,o),
(544,236,o),
(544,217,cs,{
name = hr02;
}),
(544,180,o),
(529,147,o),
(493,147,cs),
(419,147,l),
(437,249,l),
(512,249,ls)
);
},
{
closed = 1;
nodes = (
(561,488,o),
(568,477,o),
(568,460,cs,{
name = hr03;
}),
(568,427,o),
(556,395,o),
(522,395,cs),
(463,395,l),
(480,488,l),
(540,488,ls)
);
},
{
closed = 1;
nodes = (
(182,48,l),
(-250,48,l),
(174,3,l)
);
},
{
closed = 1;
nodes = (
(216,241,l),
(-216,241,l),
(208,196,l)
);
},
{
closed = 1;
nodes = (
(233,337,l),
(-199,337,l),
(225,292,l)
);
},
{
closed = 1;
nodes = (
(250,433,l),
(-182,433,l),
(242,388,l)
);
},
{
closed = 1;
nodes = (
(266,529,l),
(-165,529,l),
(259,484,l)
);
},
{
closed = 1;
nodes = (
(199,145,l),
(-233,145,l),
(191,100,l)
);
},
{
closed = 1;
nodes = (
(283,625,l),
(-148,625,l),
(275,580,l)
);
}
);
width = 774;
}
);
unicode = 66;
},
{
glyphname = C;
layers = (
{
layerId = master01;
shapes = (
{
closed = 1;
nodes = (
(195,337,l),
(-205,337,l),
(188,295,l),
(189,302,o),
(190,309,o),
(192,317,c)
);
},
{
closed = 1;
nodes = (
(-216,241,l),
(178,199,l),
(178,212,o),
(179,226,o),
(181,241,c)
);
},
{
closed = 1;
nodes = (
(-181,433,l),
(207,392,l),
(219,433,l)
);
},
{
closed = 1;
nodes = (
(-203,145,l),
(186,103,l),
(183,116,o),
(181,130,o),
(179,145,c)
);
},
{
closed = 1;
nodes = (
(-134,529,l),
(240,489,l),
(246,503,o),
(253,516,o),
(260,529,c)
);
},
{
closed = 1;
nodes = (
(-107,48,l),
(239,11,l),
(227,21,o),
(217,34,o),
(209,48,c,{
name = hr01;
})
);
},
{
closed = 1;
nodes = (
(4,625,l),
(310,592,l),
(324,605,o),
(339,615,o),
(355,625,c)
);
},
{
closed = 1;
nodes = (
(579,164,o),
(523,155,o),
(473,155,cs),
(450,155,o),
(426,157,o),
(399,163,c),
(445,425,ls),
(452,467,o),
(482,475,o),
(544,475,cs,{
name = hr02;
}),
(570,475,o),
(618,470,o),
(656,461,c),
(712,614,l),
(681,630,o),
(602,640,o),
(558,640,cs),
(336,640,o),
(260,529,o),
(222,312,cs),
(214,264,o),
(208,222,o),
(208,185,cs),
(208,53,o),
(270,-15,o),
(443,-15,cs),
(510,-15,o),
(558,-8,o),
(605,11,c),
(621,179,l)
);
}
);
width = 683;
}
);
unicode = 67;
},
{
glyphname = Ccedilla;
layers = (
{
layerId = master01;
shapes = (
{
closed = 1;
nodes = (
(195,337,l),
(-205,337,l),
(188,295,l),
(189,302,o),
(190,309,o),
(192,317,c)
);
},
{
closed = 1;
nodes = (
(-216,241,l),
(178,199,l),
(178,212,o),
(179,226,o),
(181,241,c)
);
},
{
closed = 1;
nodes = (
(-181,433,l),
(207,392,l),
(219,433,l)
);
},
{
closed = 1;
nodes = (
(-203,145,l),
(186,103,l),
(183,116,o),
(181,130,o),
(179,145,c)
);
},
{
closed = 1;
nodes = (
(-134,529,l),
(240,489,l),
(246,503,o),
(253,516,o),
(260,529,c)
);
},
{
closed = 1;
nodes = (
(-107,48,l),
(239,11,l),
(227,21,o),
(217,34,o),
(209,48,c,{
name = hr01;
})
);
},
{
closed = 1;
nodes = (
(4,625,l),
(310,592,l),
(324,605,o),
(339,615,o),
(355,625,c)
);
},
{
closed = 1;
nodes = (
(579,164,o),
(523,155,o),
(473,155,cs),
(450,155,o),
(426,157,o),
(399,163,c),
(445,425,ls),
(452,467,o),
(482,475,o),
(544,475,cs,{
name = hr02;
}),
(570,475,o),
(618,470,o),
(656,461,c),
(712,614,l),
(681,630,o),
(602,640,o),
(558,640,cs),
(336,640,o),
(260,529,o),
(222,312,cs),
(214,264,o),
(208,222,o),
(208,185,cs),
(208,53,o),
(270,-15,o),
(443,-15,cs),
(510,-15,o),
(558,-8,o),
(605,11,c),
(621,179,l)
);
},
{
closed = 1;
nodes = (
(357,-54,o),
(351,-58,o),
(325,-58,cs),
(294,-58,l),
(268,-146,l),
(297,-158,o),
(329,-165,o),
(363,-165,cs),
(446,-165,o),
(485,-114,o),
(485,-64,cs),
(485,-29,o),
(466,5,o),
(428,21,c,{
name = hr04;
}),
(370,21,l),
(362,-26,ls,{
name = hr03;
})
);
},
{
closed = 1;
nodes = (
(262,-58,l,{
name = hr05;
}),
(71,-58,l),
(253,-89,l)
);
},
{
closed = 1;
nodes = (
(241,-130,l),
(58,-130,l),
(232,-161,l)
);
}
);
width = 683;
}
);
unicode = 199;
},
{
glyphname = D;
layers = (
{
layerId = master01;
shapes = (
{
closed = 1;
nodes = (
(470,0,ls),
(691,0,o),
(767,96,o),
(806,312,cs),
(814,357,o),
(818,397,o),
(818,432,cs),
(818,565,o),
(755,625,o),
(580,625,cs),
(314,625,l),
(204,0,l,{
name = hr00;
})
);
},
{
closed = 1;
nodes = (
(593,465,o),
(620,462,o),
(620,428,cs),
(620,423,o),
(620,418,o),
(619,412,cs),
(584,213,ls),
(575,164,o),
(545,160,o),
(501,160,cs),
(422,160,l),
(475,465,l),
(554,465,ls)
);
},
{
closed = 1;
nodes = (
(182,48,l),
(-250,48,l),
(174,3,l)
);
},
{
closed = 1;
nodes = (
(216,241,l),
(-216,241,l),
(208,196,l)
);
},
{
closed = 1;
nodes = (
(233,337,l),
(-199,337,l),
(225,292,l)
);
},
{
closed = 1;
nodes = (
(250,433,l),
(-182,433,l),
(242,388,l)
);
},
{
closed = 1;
nodes = (
(266,529,l),
(-165,529,l),
(259,484,l)
);
},
{
closed = 1;
nodes = (
(199,145,l),
(-233,145,l),
(191,100,l)
);
},
{
closed = 1;
nodes = (
(283,625,l),
(-148,625,l),
(275,580,l)
);
}
);
width = 841;
}
);
unicode = 68;
},
{
glyphname = Eth;
layers = (
{
layerId = master01;
shapes = (
{
closed = 1;
nodes = (
(344,255,l),
(471,255,ls),
(499,255,o),
(518,258,o),
(523,286,cs),
(537,363,l),
(363,363,l)
);
},
{
closed = 1;
nodes = (
(470,0,ls),
(691,0,o),
(767,96,o),
(806,312,cs),
(814,357,o),
(818,397,o),
(818,432,cs),
(818,565,o),
(755,625,o),
(580,625,cs),
(314,625,l),
(204,0,l,{
name = hr01;
})
);
},
{
closed = 1;
nodes = (
(593,465,o),
(620,462,o),
(620,428,cs),
(620,423,o),
(620,418,o),
(619,412,cs),
(584,213,ls),
(575,164,o),
(545,160,o),
(501,160,cs),
(422,160,l),
(475,465,l),
(554,465,ls)
);
},
{
closed = 1;
nodes = (
(182,48,l),
(-250,48,l),
(174,3,l)
);
},
{
closed = 1;
nodes = (
(216,241,l),
(-216,241,l),
(208,196,l)
);
},
{
closed = 1;
nodes = (
(233,337,l),
(-199,337,l),
(225,292,l)
);
},
{
closed = 1;
nodes = (
(250,433,l),
(-182,433,l),
(242,388,l)
);
},
{
closed = 1;
nodes = (
(266,529,l),
(-165,529,l),
(259,484,l)
);
},
{
closed = 1;
nodes = (
(199,145,l),
(-233,145,l),
(191,100,l)
);
},
{
closed = 1;
nodes = (
(283,625,l),
(-148,625,l),
(275,580,l)
);
}
);
width = 841;
}
);
unicode = 208;
},
{
glyphname = Dcroat;
layers = (
{
layerId = master01;
shapes = (
{
closed = 1;
nodes = (
(344,255,l),
(471,255,ls),
(499,255,o),
(518,258,o),
(523,286,cs),
(537,363,l),
(363,363,l)
);
},
{
closed = 1;
nodes = (
(470,0,ls),
(691,0,o),
(767,96,o),
(806,312,cs),
(814,357,o),
(818,397,o),
(818,432,cs),
(818,565,o),
(755,625,o),
(580,625,cs),
(314,625,l),
(204,0,l,{
name = hr01;
})
);
},
{
closed = 1;
nodes = (
(593,465,o),
(620,462,o),
(620,428,cs),
(620,423,o),
(620,418,o),
(619,412,cs),
(584,213,ls),
(575,164,o),
(545,160,o),
(501,160,cs),
(422,160,l),
(475,465,l),
(554,465,ls)
);
},
{
closed = 1;
nodes = (
(182,48,l),
(-250,48,l),
(174,3,l)
);
},
{
closed = 1;
nodes = (
(216,241,l),
(-216,241,l),
(208,196,l)
);
},
{
closed = 1;
nodes = (
(233,337,l),
(-199,337,l),
(225,292,l)
);
},
{
closed = 1;
nodes = (
(250,433,l),
(-182,433,l),
(242,388,l)
);
},
{
closed = 1;
nodes = (
(266,529,l),
(-165,529,l),
(259,484,l)
);
},
{
closed = 1;
nodes = (
(199,145,l),
(-233,145,l),
(191,100,l)
);
},
{
closed = 1;
nodes = (
(283,625,l),
(-148,625,l),
(275,580,l)
);
}
);
width = 841;
}
);
unicode = 272;
},
{
glyphname = E;
layers = (
{
layerId = master01;
shapes = (
{
closed = 1;
nodes = (
(651,381,l),
(461,381,l),
(475,465,l),
(680,465,l),
(732,625,l),
(314,625,l),
(204,0,l),
(627,0,l),
(655,160,l),
(422,160,l),
(435,236,l),
(625,236,l,{
name = hr00;
})
);
},
{
closed = 1;
nodes = (
(182,48,l),
(-250,48,l),
(174,3,l)
);
},
{
closed = 1;
nodes = (
(216,241,l),
(-216,241,l),
(208,196,l)
);
},
{
closed = 1;
nodes = (
(233,337,l),
(-199,337,l),
(225,292,l)
);
},
{
closed = 1;
nodes = (
(250,433,l),
(-182,433,l),
(242,388,l)
);
},
{
closed = 1;
nodes = (
(266,529,l),
(-165,529,l),
(259,484,l)
);
},
{
closed = 1;
nodes = (
(199,145,l),
(-233,145,l),
(191,100,l)
);
},
{
closed = 1;
nodes = (
(283,625,l),
(-148,625,l),
(275,580,l)
);
}
);
width = 726;
}
);
unicode = 69;
},
{
glyphname = Eacute;
layers = (
{
layerId = master01;
shapes = (
{
closed = 1;
nodes = (
(651,381,l),
(461,381,l),
(475,465,l),
(680,465,l),
(732,625,l),
(314,625,l),
(204,0,l),
(627,0,l),
(655,160,l),
(422,160,l),
(435,236,l),
(625,236,l)
);
},
{
closed = 1;
nodes = (
(182,48,l),
(-250,48,l),
(174,3,l)
);
},
{
closed = 1;
nodes = (
(216,241,l),
(-216,241,l),
(208,196,l)
);
},
{
closed = 1;
nodes = (
(233,337,l),
(-199,337,l),
(225,292,l)
);
},
{
closed = 1;
nodes = (
(250,433,l),
(-182,433,l),
(242,388,l)
);
},
{
closed = 1;
nodes = (
(266,529,l),
(-165,529,l),
(259,484,l)
);
},
{
closed = 1;
nodes = (
(199,145,l),
(-233,145,l),
(191,100,l)
);
},
{
closed = 1;
nodes = (
(283,625,l),
(-148,625,l),
(275,580,l)
);
},
{
closed = 1;
nodes = (
(638,717,o),
(642,720,o),
(649,726,cs),
(693,764,o),
(694,765,o),
(694,765,c),
(696,768,o),
(698,771,o),
(698,776,cs),
(698,781,o),
(695,787,o),
(689,794,cs),
(626,868,ls),
(621,874,o),
(615,879,o),
(608,879,cs),
(604,879,o),
(600,877,o),
(597,875,cs),
(408,736,l),
(449,679,l),
(623,714,ls,{
name = hr01;
})
);
},
{
closed = 1;
nodes = (
(488,833,l),
(75,833,l),
(435,794,l)
);
},
{
closed = 1;
nodes = (
(377,752,l),
(-36,752,l),
(324,713,l)
);
}
);
width = 726;
}
);
unicode = 201;
},
{
glyphname = Ecircumflex;
layers = (
{
layerId = master01;
shapes = (
{
closed = 1;
nodes = (
(651,381,l),
(461,381,l),
(475,465,l),
(680,465,l),
(732,625,l),
(314,625,l),
(204,0,l),
(627,0,l),
(655,160,l),
(422,160,l),
(435,236,l),
(625,236,l)
);
},
{
closed = 1;
nodes = (
(182,48,l),
(-250,48,l),
(174,3,l)
);
},
{
closed = 1;
nodes = (
(216,241,l),
(-216,241,l),
(208,196,l)
);
},
{
closed = 1;
nodes = (
(233,337,l),
(-199,337,l),
(225,292,l)
);
},
{
closed = 1;
nodes = (
(250,433,l),
(-182,433,l),
(242,388,l)
);
},
{
closed = 1;
nodes = (
(266,529,l),
(-165,529,l),
(259,484,l)
);
},
{
closed = 1;
nodes = (
(199,145,l),
(-233,145,l),
(191,100,l)
);
},
{
closed = 1;
nodes = (
(283,625,l),
(-148,625,l),
(275,580,l)
);
},
{
closed = 1;
nodes = (
(531,880,o),
(525,877,o),
(520,871,cs),
(388,726,l),
(436,677,l),
(535,740,l),
(613,677,l),
(679,726,l),
(596,871,ls),
(593,876,o),
(590,880,o),
(583,880,cs),
(538,880,ls,{
name = hr01;
})
);
},
{
closed = 1;
nodes = (
(444,833,l),
(86,833,l),
(409,794,l)
);
},
{
closed = 1;
nodes = (
(371,752,l),
(5,752,l),
(335,713,l)
);
}
);
width = 726;
}
);
unicode = 202;
},
{
glyphname = Edieresis;
layers = (
{
layerId = master01;
shapes = (
{
closed = 1;
nodes = (
(651,381,l),
(461,381,l),
(475,465,l),
(680,465,l),
(732,625,l),
(314,625,l),
(204,0,l),
(627,0,l),
(655,160,l),
(422,160,l),
(435,236,l),
(625,236,l)
);
},
{
closed = 1;
nodes = (
(182,48,l),
(-250,48,l),
(174,3,l)
);
},
{
closed = 1;
nodes = (
(216,241,l),
(-216,241,l),
(208,196,l)
);
},
{
closed = 1;
nodes = (
(233,337,l),
(-199,337,l),
(225,292,l)
);
},
{
closed = 1;
nodes = (
(250,433,l),
(-182,433,l),
(242,388,l)
);
},
{
closed = 1;
nodes = (
(266,529,l),
(-165,529,l),
(259,484,l)
);
},
{
closed = 1;
nodes = (
(199,145,l),
(-233,145,l),
(191,100,l)
);
},
{
closed = 1;
nodes = (
(283,625,l),
(-148,625,l),
(275,580,l)
);
},
{
closed = 1;
nodes = (
(599,848,o),
(574,819,o),
(574,740,cs),
(574,706,o),
(590,692,o),
(638,692,cs),
(704,692,o),
(729,721,o),
(729,800,cs),
(729,834,o),
(713,848,o),
(665,848,cs,{
name = hr01;
})
);
},
{
closed = 1;
nodes = (
(391,848,o),
(366,819,o),
(366,740,cs),
(366,706,o),
(382,692,o),
(430,692,cs),
(495,692,o),
(521,721,o),
(521,800,cs),
(521,834,o),
(504,848,o),
(457,848,cs)
);
},
{
closed = 1;
nodes = (
(37,833,l),
(339,787,l),
(342,805,o),
(346,820,o),
(353,833,c,{
name = hr02;
})
);
},
{
closed = 1;
nodes = (
(336,754,l,{
name = hr03;
}),
(37,754,l),
(339,708,l),
(337,717,o),
(336,728,o),
(336,740,c)
);
}
);
width = 726;
}
);
unicode = 203;
},
{
glyphname = Egrave;
layers = (
{
layerId = master01;
shapes = (
{
closed = 1;
nodes = (
(651,381,l),
(461,381,l),
(475,465,l),
(680,465,l),
(732,625,l),
(314,625,l),
(204,0,l),
(627,0,l),
(655,160,l),
(422,160,l),
(435,236,l),
(625,236,l)
);
},
{
closed = 1;
nodes = (
(182,48,l),
(-250,48,l),
(174,3,l)
);
},
{
closed = 1;
nodes = (
(216,241,l),
(-216,241,l),
(208,196,l)
);
},
{
closed = 1;
nodes = (
(233,337,l),
(-199,337,l),
(225,292,l)
);
},
{
closed = 1;
nodes = (
(250,433,l),
(-182,433,l),
(242,388,l)
);
},
{
closed = 1;
nodes = (
(266,529,l),
(-165,529,l),
(259,484,l)
);
},
{
closed = 1;
nodes = (
(199,145,l),
(-233,145,l),
(191,100,l)
);
},
{
closed = 1;
nodes = (
(283,625,l),
(-148,625,l),
(275,580,l)
);
},
{
closed = 1;
nodes = (
(669,736,l),
(480,875,ls),
(477,877,o),
(473,879,o),
(469,879,cs),
(462,879,o),
(456,874,o),
(451,868,cs),
(388,794,ls),
(383,788,o),
(379,781,o),
(379,775,cs),
(379,772,o),
(380,768,o),
(383,765,cs),
(428,726,ls),
(435,720,o),
(439,717,o),
(454,714,cs),
(628,679,l,{
name = hr01;
})
);
},
{
closed = 1;
nodes = (
(360,810,o),
(372,820,o),
(382,833,c),
(-42,833,l),
(353,794,l)
);
},
{
closed = 1;
nodes = (
(369,736,o),
(361,743,o),
(355,752,c),
(-12,752,l),
(396,713,l)
);
}
);
width = 726;
}
);
unicode = 200;
},
{
glyphname = F;
layers = (
{
layerId = master01;
shapes = (
{
closed = 1;
nodes = (
(623,381,l),
(461,381,l),
(475,465,l),
(651,465,l),
(704,625,l),
(314,625,l),
(204,0,l),
(394,0,l),
(434,232,l),
(596,232,l,{
name = hr00;
})
);
},
{
closed = 1;
nodes = (
(182,48,l),
(-250,48,l),
(174,3,l)
);
},
{
closed = 1;
nodes = (
(216,241,l),
(-216,241,l),
(208,196,l)
);
},
{
closed = 1;
nodes = (
(233,337,l),
(-199,337,l),
(225,292,l)
);
},
{
closed = 1;
nodes = (
(250,433,l),
(-182,433,l),
(242,388,l)
);
},
{
closed = 1;
nodes = (
(266,529,l),
(-165,529,l),
(259,484,l)
);
},
{
closed = 1;
nodes = (
(199,145,l),
(-233,145,l),
(191,100,l)
);
},
{
closed = 1;
nodes = (
(283,625,l),
(-148,625,l),
(275,580,l)
);
}
);
width = 666;
}
);
unicode = 70;
},
{
glyphname = G;
layers = (
{
layerId = master01;
shapes = (
{
closed = 1;
nodes = (
(522,145,o),
(495,142,o),
(457,142,cs),
(394,142,l),
(443,425,ls),
(450,467,o),
(487,475,o),
(562,475,cs),
(596,475,o),
(654,470,o),
(702,461,c),
(757,614,l),
(721,627,o),
(627,640,o),
(578,640,cs),
(332,640,o),
(258,529,o),
(220,312,cs),
(212,264,o),
(206,222,o),
(206,185,cs),
(206,53,o),
(268,-15,o),
(441,-15,cs),
(508,-15,o),
(599,-1,o),
(683,30,c),
(742,364,l),
(513,364,l),
(486,211,l),
(534,211,l),
(529,184,ls)
);
},
{
closed = 1;
nodes = (
(195,337,l),
(-205,337,l),
(188,295,l),
(189,302,o),
(190,309,o),
(192,317,c)
);
},
{
closed = 1;
nodes = (
(-216,241,l),
(178,199,l),
(178,212,o),
(179,226,o),
(181,241,c)
);
},
{
closed = 1;
nodes = (
(-181,433,l),
(207,392,l),
(219,433,l)
);
},
{
closed = 1;
nodes = (
(-203,145,l),
(186,103,l),
(183,116,o),
(181,130,o),
(179,145,c)
);
},
{
closed = 1;
nodes = (
(-134,529,l),
(240,489,l),
(246,503,o),
(253,516,o),
(260,529,c)
);
},
{
closed = 1;
nodes = (
(-107,48,l),
(239,11,l),
(227,21,o),
(217,34,o),
(209,48,c,{
name = hr01;
})
);
},
{
closed = 1;
nodes = (
(4,625,l),
(310,592,l),
(324,605,o),
(339,615,o),
(355,625,c)
);
}
);
width = 767;
}
);
unicode = 71;
},
{
glyphname = H;
layers = (
{
layerId = master01;
shapes = (
{
closed = 1;
nodes = (
(727,0,l),
(837,625,l),
(647,625,l),
(608,404,l),
(465,404,l),
(504,625,l),
(314,625,l),
(204,0,l),
(394,0,l),
(432,221,l),
(575,221,l),
(537,0,l,{
name = hr00;
})
);
},
{
closed = 1;
nodes = (
(182,48,l),
(-250,48,l),
(174,3,l)
);
},
{
closed = 1;
nodes = (
(216,241,l),
(-216,241,l),
(208,196,l)
);
},
{
closed = 1;
nodes = (
(233,337,l),
(-199,337,l),
(225,292,l)
);
},
{
closed = 1;
nodes = (
(250,433,l),
(-182,433,l),
(242,388,l)
);
},
{
closed = 1;
nodes = (
(266,529,l),
(-165,529,l),
(259,484,l)
);
},
{
closed = 1;
nodes = (
(199,145,l),
(-233,145,l),
(191,100,l)
);
},
{
closed = 1;
nodes = (
(283,625,l),
(-148,625,l),
(275,580,l)
);
}
);
width = 846;
}
);
unicode = 72;
},
{
glyphname = Hbar;
layers = (
{
layerId = master01;
shapes = (
{
closed = 1;
nodes = (
(727,0,l),
(837,625,l),
(647,625,l),
(608,404,l),
(465,404,l),
(504,625,l),
(314,625,l),
(204,0,l),
(394,0,l),
(432,221,l),
(575,221,l),
(537,0,l,{
name = hr00;
})
);
},
{
closed = 1;
nodes = (
(182,48,l),
(-250,48,l),
(174,3,l)
);
},
{
closed = 1;
nodes = (
(216,241,l),
(-216,241,l),
(208,196,l)
);
},
{
closed = 1;
nodes = (
(233,337,l),
(-199,337,l),
(225,292,l)
);
},
{
closed = 1;
nodes = (
(250,433,l),
(-182,433,l),
(242,388,l)
);
},
{
closed = 1;
nodes = (
(199,145,l),
(-233,145,l),
(191,100,l)
);
},
{
closed = 1;
nodes = (
(283,625,l),
(-148,625,l),
(275,580,l)
);
},
{
closed = 1;
nodes = (
(917,483,l),
(926,529,l),
(201,529,l),
(193,483,l)
);
}
);
width = 846;
}
);
unicode = 294;
},
{
glyphname = I;
layers = (
{
layerId = master01;
shapes = (
{
closed = 1;
nodes = (
(394,0,l),
(504,625,l),
(314,625,l),
(204,0,l,{
name = hr00;
})
);
},
{
closed = 1;
nodes = (
(182,48,l),
(-250,48,l),
(174,3,l)
);
},
{
closed = 1;
nodes = (
(216,241,l),
(-216,241,l),
(208,196,l)
);
},
{
closed = 1;
nodes = (
(233,337,l),
(-199,337,l),
(225,292,l)
);
},
{
closed = 1;
nodes = (
(250,433,l),
(-182,433,l),
(242,388,l)
);
},
{
closed = 1;
nodes = (
(266,529,l),
(-165,529,l),
(259,484,l)
);
},
{
closed = 1;
nodes = (
(199,145,l),
(-233,145,l),
(191,100,l)
);
},
{
closed = 1;
nodes = (
(283,625,l),
(-148,625,l),
(275,580,l)
);
}
);
width = 504;
}
);
unicode = 73;
},
{
glyphname = Iacute;
layers = (
{
layerId = master01;
shapes = (
{
closed = 1;
nodes = (
(394,0,l),
(504,625,l),
(314,625,l),
(204,0,l)
);
},
{
closed = 1;
nodes = (
(182,48,l),
(-250,48,l),
(174,3,l)
);
},
{
closed = 1;
nodes = (
(216,241,l),
(-216,241,l),
(208,196,l)
);
},
{
closed = 1;
nodes = (
(233,337,l),
(-199,337,l),
(225,292,l)
);
},
{
closed = 1;
nodes = (
(250,433,l),
(-182,433,l),
(242,388,l)
);
},
{
closed = 1;
nodes = (
(266,529,l),
(-165,529,l),
(259,484,l)
);
},
{
closed = 1;
nodes = (
(199,145,l),
(-233,145,l),
(191,100,l)
);
},
{
closed = 1;
nodes = (
(283,625,l),
(-148,625,l),
(275,580,l)
);
},
{
closed = 1;
nodes = (
(527,717,o),
(531,720,o),
(538,726,cs),
(582,764,o),
(583,765,o),
(583,765,c),
(585,768,o),
(587,771,o),
(587,776,cs),
(587,781,o),
(584,787,o),
(578,794,cs),
(515,868,ls),
(510,874,o),
(504,879,o),
(497,879,cs),
(493,879,o),
(489,877,o),
(486,875,cs),
(297,736,l),
(338,679,l),
(512,714,ls,{
name = hr01;
})
);
},
{
closed = 1;
nodes = (
(377,833,l),
(-36,833,l),
(324,794,l)
);
},
{
closed = 1;
nodes = (
(266,752,l),
(-147,752,l),
(213,713,l)
);
}
);
width = 504;
}
);
unicode = 205;
},
{
glyphname = Icircumflex;
layers = (
{
layerId = master01;
shapes = (
{
closed = 1;
nodes = (
(394,0,l),
(504,625,l),
(314,625,l),
(204,0,l)
);
},
{
closed = 1;
nodes = (
(182,48,l),
(-250,48,l),
(174,3,l)
);
},
{
closed = 1;
nodes = (
(216,241,l),
(-216,241,l),
(208,196,l)
);
},
{
closed = 1;
nodes = (
(233,337,l),
(-199,337,l),
(225,292,l)
);
},
{
closed = 1;
nodes = (
(250,433,l),
(-182,433,l),
(242,388,l)
);
},
{
closed = 1;
nodes = (
(266,529,l),
(-165,529,l),
(259,484,l)
);
},
{
closed = 1;
nodes = (
(199,145,l),
(-233,145,l),
(191,100,l)
);
},
{
closed = 1;
nodes = (
(283,625,l),
(-148,625,l),
(275,580,l)
);
},
{
closed = 1;
nodes = (
(420,880,o),
(414,877,o),
(409,871,cs),
(277,726,l),
(325,677,l),
(424,740,l),
(502,677,l),
(568,726,l),
(485,871,ls),
(482,876,o),
(479,880,o),
(472,880,cs),
(427,880,ls,{
name = hr01;
})
);
},
{
closed = 1;
nodes = (
(333,833,l),
(-25,833,l),
(298,794,l)
);
},
{
closed = 1;
nodes = (
(260,752,l),
(-106,752,l),
(224,713,l)
);
}
);
width = 504;
}
);
unicode = 206;
},
{
glyphname = Idieresis;
layers = (
{
layerId = master01;
shapes = (
{
closed = 1;
nodes = (
(394,0,l),
(504,625,l),
(314,625,l),
(204,0,l)
);
},
{
closed = 1;
nodes = (
(182,48,l),
(-250,48,l),
(174,3,l)
);
},
{
closed = 1;
nodes = (
(216,241,l),
(-216,241,l),
(208,196,l)
);
},
{
closed = 1;
nodes = (
(233,337,l),
(-199,337,l),
(225,292,l)
);
},
{
closed = 1;
nodes = (
(250,433,l),
(-182,433,l),
(242,388,l)
);
},
{
closed = 1;
nodes = (
(266,529,l),
(-165,529,l),
(259,484,l)
);
},
{
closed = 1;
nodes = (
(199,145,l),
(-233,145,l),
(191,100,l)
);
},
{
closed = 1;
nodes = (
(283,625,l),
(-148,625,l),
(275,580,l)
);
},
{
closed = 1;
nodes = (
(488,848,o),
(463,819,o),
(463,740,cs),
(463,706,o),
(479,692,o),
(527,692,cs),
(593,692,o),
(618,721,o),
(618,800,cs),
(618,834,o),
(602,848,o),
(554,848,cs,{
name = hr01;
})
);
},
{
closed = 1;
nodes = (
(280,848,o),
(255,819,o),
(255,740,cs),
(255,706,o),
(271,692,o),
(319,692,cs),
(384,692,o),
(410,721,o),
(410,800,cs),
(410,834,o),
(393,848,o),
(346,848,cs)
);
},
{
closed = 1;
nodes = (
(-74,833,l),
(228,787,l),
(231,805,o),
(235,820,o),
(242,833,c,{
name = hr02;
})
);
},
{
closed = 1;
nodes = (
(225,754,l,{
name = hr03;
}),
(-74,754,l),
(228,708,l),
(226,717,o),
(225,728,o),
(225,740,c)
);
}
);
width = 504;
}
);
unicode = 207;
},
{
glyphname = Igrave;
layers = (
{
layerId = master01;
shapes = (
{
closed = 1;
nodes = (
(394,0,l),
(504,625,l),
(314,625,l),
(204,0,l)
);
},
{
closed = 1;
nodes = (
(182,48,l),
(-250,48,l),
(174,3,l)
);
},
{
closed = 1;
nodes = (
(216,241,l),
(-216,241,l),
(208,196,l)
);
},
{
closed = 1;
nodes = (
(233,337,l),
(-199,337,l),
(225,292,l)
);
},
{
closed = 1;
nodes = (
(250,433,l),
(-182,433,l),
(242,388,l)
);
},
{
closed = 1;
nodes = (
(266,529,l),
(-165,529,l),
(259,484,l)
);
},
{
closed = 1;
nodes = (
(199,145,l),
(-233,145,l),
(191,100,l)
);
},
{
closed = 1;
nodes = (
(283,625,l),
(-148,625,l),
(275,580,l)
);
},
{
closed = 1;
nodes = (
(558,736,l),
(369,875,ls),
(366,877,o),
(362,879,o),
(358,879,cs),
(351,879,o),
(345,874,o),
(340,868,cs),
(277,794,ls),
(272,788,o),
(268,781,o),
(268,775,cs),
(268,772,o),
(269,768,o),
(272,765,cs),
(317,726,ls),
(324,720,o),
(328,717,o),
(343,714,cs),
(517,679,l,{
name = hr01;
})
);
},
{
closed = 1;
nodes = (
(249,810,o),
(261,820,o),
(271,833,c),
(-153,833,l),
(242,794,l)
);
},
{
closed = 1;
nodes = (
(258,736,o),
(250,743,o),
(244,752,c),
(-123,752,l),
(285,713,l)
);
}
);
width = 504;
}
);
unicode = 204;
},
{
glyphname = J;
layers = (
{
layerId = master01;
shapes = (
{
closed = 1;
nodes = (
(177,0,l),
(325,0,ls),
(420,0,o),
(482,57,o),
(501,165,cs),
(582,625,l),
(314,625,l),
(285,465,l),
(363,465,l),
(315,190,ls),
(310,162,o),
(290,160,o),
(265,160,cs),
(206,160,l,{
name = hr00;
})
);
},
{
closed = 1;
nodes = (
(155,48,l),
(-277,48,l),
(147,3,l)
);
},
{
closed = 1;
nodes = (
(293,241,l),
(-139,241,l),
(285,196,l)
);
},
{
closed = 1;
nodes = (
(310,337,l),
(-122,337,l),
(302,292,l)
);
},
{
closed = 1;
nodes = (
(327,433,l),
(-105,433,l),
(319,388,l)
);
},
{
closed = 1;
nodes = (
(264,529,l),
(-167,529,l),
(257,484,l)
);
},
{
closed = 1;
nodes = (
(172,145,l),
(-260,145,l),
(164,100,l)
);
},
{
closed = 1;
nodes = (
(283,625,l),
(-148,625,l),
(275,580,l)
);
}
);
width = 566;
}
);
unicode = 74;
},
{
glyphname = K;
layers = (
{
layerId = master01;
shapes = (
{
closed = 1;
nodes = (
(449,272,l),
(449,266,o),
(448,260,o),
(448,253,cs),
(448,242,o),
(449,231,o),
(451,224,cs),
(506,0,l),
(711,0,l),
(620,318,l),
(816,625,l),
(611,625,l),
(485,418,ls),
(478,407,o),
(471,386,o),
(467,370,c),
(459,370,l),
(504,625,l),
(314,625,l),
(204,0,l),
(394,0,l),
(441,272,l,{
name = hr00;
})
);
},
{
closed = 1;
nodes = (
(182,48,l),
(-250,48,l),
(174,3,l)
);
},
{
closed = 1;
nodes = (
(216,241,l),
(-216,241,l),
(208,196,l)
);
},
{
closed = 1;
nodes = (
(233,337,l),
(-199,337,l),
(225,292,l)
);
},
{
closed = 1;
nodes = (
(250,433,l),
(-182,433,l),
(242,388,l)
);
},
{
closed = 1;
nodes = (
(266,529,l),
(-165,529,l),
(259,484,l)
);
},
{
closed = 1;
nodes = (
(199,145,l),
(-233,145,l),
(191,100,l)
);
},
{
closed = 1;
nodes = (
(283,625,l),
(-148,625,l),
(275,580,l)
);
}
);
width = 771;
}
);
unicode = 75;
},
{
glyphname = L;
layers = (
{
layerId = master01;
shapes = (
{
closed = 1;
nodes = (
(612,160,l),
(422,160,l),
(504,625,l),
(314,625,l),
(204,0,l),
(584,0,l,{
name = hr00;
})
);
},
{
closed = 1;
nodes = (
(182,48,l),
(-250,48,l),
(174,3,l)
);
},
{
closed = 1;
nodes = (
(216,241,l),
(-216,241,l),
(208,196,l)
);
},
{
closed = 1;
nodes = (
(233,337,l),
(-199,337,l),
(225,292,l)
);
},
{
closed = 1;
nodes = (
(250,433,l),
(-182,433,l),
(242,388,l)
);
},
{
closed = 1;
nodes = (
(266,529,l),
(-165,529,l),
(259,484,l)
);
},
{
closed = 1;
nodes = (
(199,145,l),
(-233,145,l),
(191,100,l)
);
},
{
closed = 1;
nodes = (
(283,625,l),
(-148,625,l),
(275,580,l)
);
}
);
width = 622;
}
);
unicode = 76;
},
{
glyphname = Ldot;
layers = (
{
layerId = master01;
shapes = (
{
closed = 1;
nodes = (
(509,298,o),
(528,283,o),
(585,283,cs),
(668,283,o),
(692,337,o),
(692,408,cs),
(692,447,o),
(673,463,o),
(617,463,cs),
(533,463,o),
(509,407,o),
(509,336,cs)
);
},
{
ref = L;
}
);
width = 622;
}
);
unicode = 319;
},
{
glyphname = Lslash;
layers = (
{
layerId = master01;
shapes = (
{
closed = 1;
nodes = (
(254,234,l),
(546,330,ls),
(575,339,o),
(596,348,o),
(596,371,cs),
(596,375,o),
(595,380,o),
(564,478,c),
(281,384,l)
);
},
{
closed = 1;
nodes = (
(612,160,l),
(422,160,l),
(504,625,l),
(314,625,l),
(204,0,l),
(584,0,l,{
name = hr01;
})
);
},
{
closed = 1;
nodes = (
(182,48,l),
(-250,48,l),
(174,3,l)
);
},
{
closed = 1;
nodes = (
(216,241,l),
(-216,241,l),
(208,196,l)
);
},
{
closed = 1;
nodes = (
(233,337,l),
(-199,337,l),
(225,292,l)
);
},
{
closed = 1;
nodes = (
(250,433,l),
(-182,433,l),
(242,388,l)
);
},
{
closed = 1;
nodes = (
(266,529,l),
(-165,529,l),
(259,484,l)
);
},
{
closed = 1;
nodes = (
(199,145,l),
(-233,145,l),
(191,100,l)
);
},
{
closed = 1;
nodes = (
(283,625,l),
(-148,625,l),
(275,580,l)
);
}
);
width = 622;
}
);
unicode = 321;
},
{
glyphname = M;
layers = (
{
layerId = master01;
shapes = (
{
closed = 1;
nodes = (
(182,48,l),
(-250,48,l),
(172,3,l,{
name = hr00;
})
);
},
{
closed = 1;
nodes = (
(205,145,l),
(-227,145,l),
(194,100,l)
);
},
{
closed = 1;
nodes = (
(227,241,l),
(-204,241,l),
(217,196,l)
);
},
{
closed = 1;
nodes = (
(250,337,l),
(-181,337,l),
(239,292,l)
);
},
{
closed = 1;
nodes = (
(272,433,l),
(-158,433,l),
(262,388,l)
);
},
{
closed = 1;
nodes = (
(295,529,l),
(-135,529,l),
(284,484,l)
);
},
{
closed = 1;
nodes = (
(317,625,l),
(-112,625,l),
(307,580,l)
);
},
{
closed = 1;
nodes = (
(465,303,l),
(470,303,l),
(491,0,l),
(636,0,l),
(761,303,l),
(768,303,l),
(726,0,l),
(925,0,l),
(999,625,l),
(751,625,l),
(621,307,l),
(614,307,l),
(596,625,l),
(348,625,l),
(202,0,l),
(400,0,l)
);
}
);
width = 1023;
}
);
unicode = 77;
},
{
glyphname = N;
layers = (
{
layerId = master01;
shapes = (
{
closed = 1;
nodes = (
(732,0,l),
(842,625,l),
(652,625,l),
(604,355,l),
(596,355,l),
(597,363,o),
(598,374,o),
(598,383,cs),
(598,391,o),
(597,398,o),
(595,403,cs),
(493,625,l),
(314,625,l),
(204,0,l),
(394,0,l),
(441,270,l),
(449,270,l),
(448,262,o),
(447,252,o),
(447,244,cs),
(447,235,o),
(448,227,o),
(451,222,cs),
(553,0,l,{
name = hr00;
})
);
},
{
closed = 1;
nodes = (
(182,48,l),
(-250,48,l),
(174,3,l)
);
},
{
closed = 1;
nodes = (
(216,241,l),
(-216,241,l),
(208,196,l)
);
},
{
closed = 1;
nodes = (
(233,337,l),
(-199,337,l),
(225,292,l)
);
},
{
closed = 1;
nodes = (
(250,433,l),
(-182,433,l),
(242,388,l)
);
},
{
closed = 1;
nodes = (
(266,529,l),
(-165,529,l),
(259,484,l)
);
},
{
closed = 1;
nodes = (
(199,145,l),
(-233,145,l),
(191,100,l)
);
},
{
closed = 1;
nodes = (
(283,625,l),
(-148,625,l),
(275,580,l)
);
}
);
width = 851;
}
);
unicode = 78;
},
{
glyphname = Ntilde;
layers = (
{
layerId = master01;
shapes = (
{
closed = 1;
nodes = (
(732,0,l),
(842,625,l),
(652,625,l),
(604,355,l),
(596,355,l),
(597,363,o),
(598,374,o),
(598,383,cs),
(598,391,o),
(597,398,o),
(595,403,cs),
(493,625,l),
(314,625,l),
(204,0,l),
(394,0,l),
(441,270,l),
(449,270,l),
(448,262,o),
(447,252,o),
(447,244,cs),
(447,235,o),
(448,227,o),
(451,222,cs),
(553,0,l)
);
},
{
closed = 1;
nodes = (
(182,48,l),
(-250,48,l),
(174,3,l)
);
},
{
closed = 1;
nodes = (
(216,241,l),
(-216,241,l),
(208,196,l)
);
},
{
closed = 1;
nodes = (
(233,337,l),
(-199,337,l),
(225,292,l)
);
},
{
closed = 1;
nodes = (
(250,433,l),
(-182,433,l),
(242,388,l)
);
},
{
closed = 1;
nodes = (
(266,529,l),
(-165,529,l),
(259,484,l)
);
},
{
closed = 1;
nodes = (
(199,145,l),
(-233,145,l),
(191,100,l)
);
},
{
closed = 1;
nodes = (
(283,625,l),
(-148,625,l),
(275,580,l)
);
},
{
closed = 1;
nodes = (
(624,839,o),
(607,861,o),
(575,861,cs),
(543,861,o),
(537,854,o),
(401,769,c),
(435,688,l),
(520,728,l),
(546,705,o),
(563,683,o),
(595,683,cs),
(627,683,o),
(633,690,o),
(769,775,c),
(736,856,l),
(650,816,l,{
name = hr01;
})
);
},
{
closed = 1;
nodes = (
(81,833,l),
(375,787,l),
(447,833,l)
);
},
{
closed = 1;
nodes = (
(81,754,l),
(394,708,l),
(375,754,l)
);
}
);
width = 851;
}
);
unicode = 209;
},
{
glyphname = Eng;
layers = (
{
layerId = master01;
shapes = (
{
closed = 1;
nodes = (
(571,-190,ls),
(653,-190,o),
(707,-143,o),
(724,-49,cs),
(842,625,l),
(652,625,l),
(604,355,l),
(596,355,l),
(597,363,o),
(598,374,o),
(598,383,cs),
(598,391,o),
(597,398,o),
(595,403,cs),
(493,625,l),
(314,625,l),
(204,0,l),
(394,0,l),
(441,270,l),
(449,270,l),
(448,262,o),
(447,252,o),
(447,244,cs),
(447,235,o),
(448,227,o),
(451,222,cs),
(555,2,l),
(550,-27,ls),
(547,-45,o),
(530,-47,o),
(513,-47,cs),
(452,-47,l),
(426,-190,l,{
name = hr00;
})
);
},
{
closed = 1;
nodes = (
(199,145,l),
(-233,145,l),
(191,100,l)
);
},
{
closed = 1;
nodes = (
(421,-45,l),
(-11,-45,l),
(413,-90,l)
);
},
{
closed = 1;
nodes = (
(250,433,l),
(-182,433,l),
(242,388,l)
);
},
{
closed = 1;
nodes = (
(233,337,l),
(-199,337,l),
(225,292,l)
);
},
{
closed = 1;
nodes = (
(216,241,l),
(-216,241,l),
(208,196,l)
);
},
{
closed = 1;
nodes = (
(182,48,l),
(-250,48,l),
(174,3,l)
);
},
{
closed = 1;
nodes = (
(403,-142,l),
(-29,-142,l),
(395,-187,l)
);
},
{
closed = 1;
nodes = (
(266,529,l),
(-165,529,l),
(259,484,l)
);
},
{
closed = 1;
nodes = (
(283,625,l),
(-148,625,l),
(275,580,l)
);
}
);
width = 851;
}
);
unicode = 330;
},
{
glyphname = O;
layers = (
{
layerId = master01;
shapes = (
{
closed = 1;
nodes = (
(451,465,o),
(480,469,o),
(524,469,cs),
(604,469,l),
(558,209,ls),
(549,160,o),
(519,156,o),
(475,156,cs),
(396,156,l),
(442,416,ls)
);
},
{
closed = 1;
nodes = (
(337,640,o),
(258,529,o),
(220,312,cs),
(212,265,o),
(207,224,o),
(207,187,cs),
(207,53,o),
(269,-15,o),
(442,-15,cs),
(534,-15,o),
(604,1,o),
(657,48,cs),
(761,140,o),
(792,328,o),
(792,438,cs),
(792,572,o),
(730,640,o),
(557,640,cs)
);
},
{
closed = 1;
nodes = (
(195,337,l),
(-205,337,l),
(188,295,l),
(189,302,o),
(190,309,o),
(192,317,c)
);
},
{
closed = 1;
nodes = (
(-216,241,l),
(178,199,l),
(178,212,o),
(179,226,o),
(181,241,c)
);
},
{
closed = 1;
nodes = (
(-181,433,l),
(207,392,l),
(219,433,l)
);
},
{
closed = 1;
nodes = (
(-203,145,l),
(186,103,l),
(183,116,o),
(181,130,o),
(179,145,c,{
name = hr01;
})
);
},
{
closed = 1;
nodes = (
(-134,529,l),
(240,489,l),
(246,503,o),
(253,516,o),
(260,529,c)
);
},
{
closed = 1;
nodes = (
(-107,48,l),
(239,11,l),
(227,21,o),
(217,34,o),
(209,48,c,{
name = hr02;
})
);
},
{
closed = 1;
nodes = (
(4,625,l),
(310,592,l),
(324,605,o),
(339,615,o),
(355,625,c)
);
}
);
width = 815;
}
);
unicode = 79;
},
{
glyphname = Oacute;
layers = (
{
layerId = master01;
shapes = (
{
closed = 1;
nodes = (
(451,465,o),
(480,469,o),
(524,469,cs),
(604,469,l),
(558,209,ls),
(549,160,o),
(519,156,o),
(475,156,cs),
(396,156,l),
(442,416,ls)
);
},
{
closed = 1;
nodes = (
(337,640,o),
(258,529,o),
(220,312,cs),
(212,265,o),
(207,224,o),
(207,187,cs),
(207,53,o),
(269,-15,o),
(442,-15,cs),
(534,-15,o),
(604,1,o),
(657,48,cs),
(761,140,o),
(792,328,o),
(792,438,cs),
(792,572,o),
(730,640,o),
(557,640,cs)
);
},
{
closed = 1;
nodes = (
(195,337,l),
(-205,337,l),
(188,295,l),
(189,302,o),
(190,309,o),
(192,317,c)
);
},
{
closed = 1;
nodes = (
(-216,241,l),
(178,199,l),
(178,212,o),
(179,226,o),
(181,241,c)
);
},
{
closed = 1;
nodes = (
(-181,433,l),
(207,392,l),
(219,433,l)
);
},
{
closed = 1;
nodes = (
(-203,145,l),
(186,103,l),
(183,116,o),
(181,130,o),
(179,145,c,{
name = hr01;
})
);
},
{
closed = 1;
nodes = (
(-134,529,l),
(240,489,l),
(246,503,o),
(253,516,o),
(260,529,c)
);
},
{
closed = 1;
nodes = (
(-107,48,l),
(239,11,l),
(227,21,o),
(217,34,o),
(209,48,c,{
name = hr02;
})
);
},
{
closed = 1;
nodes = (
(4,625,l),
(310,592,l),
(324,605,o),
(339,615,o),
(355,625,c)
);
},
{
closed = 1;
nodes = (
(683,717,o),
(687,720,o),
(694,726,cs),
(738,764,o),
(739,765,o),
(739,765,c),
(741,768,o),
(743,771,o),
(743,776,cs),
(743,781,o),
(740,787,o),
(734,794,cs),
(671,868,ls),
(666,874,o),
(660,879,o),
(653,879,cs),
(649,879,o),
(645,877,o),
(642,875,cs),
(453,736,l),
(494,679,l),
(668,714,ls,{
name = hr03;
})
);
},
{
closed = 1;
nodes = (
(533,833,l),
(120,833,l),
(480,794,l)
);
},
{
closed = 1;
nodes = (
(422,752,l),
(9,752,l),
(369,713,l)
);
}
);
width = 815;
}
);
unicode = 211;
},
{
glyphname = Ocircumflex;
layers = (
{
layerId = master01;
shapes = (
{
closed = 1;
nodes = (
(451,465,o),
(480,469,o),
(524,469,cs),
(604,469,l),
(558,209,ls),
(549,160,o),
(519,156,o),
(475,156,cs),
(396,156,l),
(442,416,ls)
);
},
{
closed = 1;
nodes = (
(337,640,o),
(258,529,o),
(220,312,cs),
(212,265,o),
(207,224,o),
(207,187,cs),
(207,53,o),
(269,-15,o),
(442,-15,cs),
(534,-15,o),
(604,1,o),
(657,48,cs),
(761,140,o),
(792,328,o),
(792,438,cs),
(792,572,o),
(730,640,o),
(557,640,cs)
);
},
{
closed = 1;
nodes = (
(195,337,l),
(-205,337,l),
(188,295,l),
(189,302,o),
(190,309,o),
(192,317,c)
);
},
{
closed = 1;
nodes = (
(-216,241,l),
(178,199,l),
(178,212,o),
(179,226,o),
(181,241,c)
);
},
{
closed = 1;
nodes = (
(-181,433,l),
(207,392,l),
(219,433,l)
);
},
{
closed = 1;
nodes = (
(-203,145,l),
(186,103,l),
(183,116,o),
(181,130,o),
(179,145,c,{
name = hr01;
})
);
},
{
closed = 1;
nodes = (
(-134,529,l),
(240,489,l),
(246,503,o),
(253,516,o),
(260,529,c)
);
},
{
closed = 1;
nodes = (
(-107,48,l),
(239,11,l),
(227,21,o),
(217,34,o),
(209,48,c,{
name = hr02;
})
);
},
{
closed = 1;
nodes = (
(4,625,l),
(310,592,l),
(324,605,o),
(339,615,o),
(355,625,c)
);
},
{
closed = 1;
nodes = (
(566,880,o),
(560,877,o),
(555,871,cs),
(423,726,l),
(471,677,l),
(570,740,l),
(648,677,l),
(714,726,l),
(631,871,ls),
(628,876,o),
(625,880,o),
(618,880,cs),
(573,880,ls,{
name = hr03;
})
);
},
{
closed = 1;
nodes = (
(479,833,l),
(121,833,l),
(444,794,l)
);
},
{
closed = 1;
nodes = (
(406,752,l),
(40,752,l),
(370,713,l)
);
}
);
width = 815;
}
);
unicode = 212;
},
{
glyphname = Odieresis;
layers = (
{
layerId = master01;
shapes = (
{
closed = 1;
nodes = (
(451,465,o),
(480,469,o),
(524,469,cs),
(604,469,l),
(558,209,ls),
(549,160,o),
(519,156,o),
(475,156,cs),
(396,156,l),
(442,416,ls)
);
},
{
closed = 1;
nodes = (
(337,640,o),
(258,529,o),
(220,312,cs),
(212,265,o),
(207,224,o),
(207,187,cs),
(207,53,o),
(269,-15,o),
(442,-15,cs),
(534,-15,o),
(604,1,o),
(657,48,cs),
(761,140,o),
(792,328,o),
(792,438,cs),
(792,572,o),
(730,640,o),
(557,640,cs)
);
},
{
closed = 1;
nodes = (
(195,337,l),
(-205,337,l),
(188,295,l),
(189,302,o),
(190,309,o),
(192,317,c)
);
},
{
closed = 1;
nodes = (
(-216,241,l),
(178,199,l),
(178,212,o),
(179,226,o),
(181,241,c)
);
},
{
closed = 1;
nodes = (
(-181,433,l),
(207,392,l),
(219,433,l)
);
},
{
closed = 1;
nodes = (
(-203,145,l),
(186,103,l),
(183,116,o),
(181,130,o),
(179,145,c,{
name = hr01;
})
);
},
{
closed = 1;
nodes = (
(-134,529,l),
(240,489,l),
(246,503,o),
(253,516,o),
(260,529,c)
);
},
{
closed = 1;
nodes = (
(-107,48,l),
(239,11,l),
(227,21,o),
(217,34,o),
(209,48,c,{
name = hr02;
})
);
},
{
closed = 1;
nodes = (
(4,625,l),
(310,592,l),
(324,605,o),
(339,615,o),
(355,625,c)
);
},
{
closed = 1;
nodes = (
(643,848,o),
(618,819,o),
(618,740,cs),
(618,706,o),
(634,692,o),
(682,692,cs),
(748,692,o),
(773,721,o),
(773,800,cs),
(773,834,o),
(757,848,o),
(709,848,cs,{
name = hr03;
})
);
},
{
closed = 1;
nodes = (
(435,848,o),
(410,819,o),
(410,740,cs),
(410,706,o),
(426,692,o),
(474,692,cs),
(539,692,o),
(565,721,o),
(565,800,cs),
(565,834,o),
(548,848,o),
(501,848,cs)
);
},
{
closed = 1;
nodes = (
(81,833,l),
(383,787,l),
(386,805,o),
(390,820,o),
(397,833,c,{
name = hr04;
})
);
},
{
closed = 1;
nodes = (
(380,754,l,{
name = hr05;
}),
(81,754,l),
(383,708,l),
(381,717,o),
(380,728,o),
(380,740,c)
);
}
);
width = 815;
}
);
unicode = 214;
},
{
glyphname = Ograve;
layers = (
{
layerId = master01;
shapes = (
{
closed = 1;
nodes = (
(451,465,o),
(480,469,o),
(524,469,cs),
(604,469,l),
(558,209,ls),
(549,160,o),
(519,156,o),
(475,156,cs),
(396,156,l),
(442,416,ls)
);
},
{
closed = 1;
nodes = (
(337,640,o),
(258,529,o),
(220,312,cs),
(212,265,o),
(207,224,o),
(207,187,cs),
(207,53,o),
(269,-15,o),
(442,-15,cs),
(534,-15,o),
(604,1,o),
(657,48,cs),
(761,140,o),
(792,328,o),
(792,438,cs),
(792,572,o),
(730,640,o),
(557,640,cs)
);
},
{
closed = 1;
nodes = (
(195,337,l),
(-205,337,l),
(188,295,l),
(189,302,o),
(190,309,o),
(192,317,c)
);
},
{
closed = 1;
nodes = (
(-216,241,l),
(178,199,l),
(178,212,o),
(179,226,o),
(181,241,c)
);
},
{
closed = 1;
nodes = (
(-181,433,l),
(207,392,l),
(219,433,l)
);
},
{
closed = 1;
nodes = (
(-203,145,l),
(186,103,l),
(183,116,o),
(181,130,o),
(179,145,c,{
name = hr01;
})
);
},
{
closed = 1;
nodes = (
(-134,529,l),
(240,489,l),
(246,503,o),
(253,516,o),
(260,529,c)
);
},
{
closed = 1;
nodes = (
(-107,48,l),
(239,11,l),
(227,21,o),
(217,34,o),
(209,48,c,{
name = hr02;
})
);
},
{
closed = 1;
nodes = (
(4,625,l),
(310,592,l),
(324,605,o),
(339,615,o),
(355,625,c)
);
},
{
closed = 1;
nodes = (
(713,736,l),
(524,875,ls),
(521,877,o),
(517,879,o),
(513,879,cs),
(506,879,o),
(500,874,o),
(495,868,cs),
(432,794,ls),
(427,788,o),
(423,781,o),
(423,775,cs),
(423,772,o),
(424,768,o),
(427,765,cs),
(472,726,ls),
(479,720,o),
(483,717,o),
(498,714,cs),
(672,679,l,{
name = hr03;
})
);
},
{
closed = 1;
nodes = (
(404,810,o),
(416,820,o),
(426,833,c),
(2,833,l),
(397,794,l)
);
},
{
closed = 1;
nodes = (
(413,736,o),
(405,743,o),
(399,752,c),
(32,752,l),
(440,713,l)
);
}
);
width = 815;
}
);
unicode = 210;
},
{
glyphname = Oslash;
layers = (
{
layerId = master01;
shapes = (
{
closed = 1;
nodes = (
(251,-79,l),
(303,-79,l),
(747,704,l),
(697,704,l)
);
},
{
closed = 1;
nodes = (
(451,465,o),
(480,469,o),
(524,469,cs),
(604,469,l),
(558,209,ls),
(549,160,o),
(519,156,o),
(475,156,cs),
(396,156,l),
(442,416,ls,{
name = hr01;
})
);
},
{
closed = 1;
nodes = (
(337,640,o),
(258,529,o),
(220,312,cs),
(212,265,o),
(207,224,o),
(207,187,cs),
(207,53,o),
(269,-15,o),
(442,-15,cs),
(534,-15,o),
(604,1,o),
(657,48,cs),
(761,140,o),
(792,328,o),
(792,438,cs),
(792,572,o),
(730,640,o),
(557,640,cs)
);
},
{
closed = 1;
nodes = (
(195,337,l),
(-205,337,l),
(188,295,l),
(189,302,o),
(190,309,o),
(192,317,c)
);
},
{
closed = 1;
nodes = (
(-216,241,l),
(178,199,l),
(178,212,o),
(179,226,o),
(181,241,c)
);
},
{
closed = 1;
nodes = (
(-181,433,l),
(207,392,l),
(219,433,l)
);
},
{
closed = 1;
nodes = (
(-203,145,l),
(186,103,l),
(183,116,o),
(181,130,o),
(179,145,c,{
name = hr02;
})
);
},
{
closed = 1;
nodes = (
(-134,529,l),
(240,489,l),
(246,503,o),
(253,516,o),
(260,529,c)
);
},
{
closed = 1;
nodes = (
(-107,48,l),
(239,11,l),
(227,21,o),
(217,34,o),
(209,48,c,{
name = hr03;
})
);
},
{
closed = 1;
nodes = (
(4,625,l),
(310,592,l),
(324,605,o),
(339,615,o),
(355,625,c)
);
}
);
width = 815;
}
);
unicode = 216;
},
{
glyphname = Otilde;
layers = (
{
layerId = master01;
shapes = (
{
closed = 1;
nodes = (
(451,465,o),
(480,469,o),
(524,469,cs),
(604,469,l),
(558,209,ls),
(549,160,o),
(519,156,o),
(475,156,cs),
(396,156,l),
(442,416,ls)
);
},
{
closed = 1;
nodes = (
(337,640,o),
(258,529,o),
(220,312,cs),
(212,265,o),
(207,224,o),
(207,187,cs),
(207,53,o),
(269,-15,o),
(442,-15,cs),
(534,-15,o),
(604,1,o),
(657,48,cs),
(761,140,o),
(792,328,o),
(792,438,cs),
(792,572,o),
(730,640,o),
(557,640,cs)
);
},
{
closed = 1;
nodes = (
(195,337,l),
(-205,337,l),
(188,295,l),
(189,302,o),
(190,309,o),
(192,317,c)
);
},
{
closed = 1;
nodes = (
(-216,241,l),
(178,199,l),
(178,212,o),
(179,226,o),
(181,241,c)
);
},
{
closed = 1;
nodes = (
(-181,433,l),
(207,392,l),
(219,433,l)
);
},
{
closed = 1;
nodes = (
(-203,145,l),
(186,103,l),
(183,116,o),
(181,130,o),
(179,145,c,{
name = hr01;
})
);
},
{
closed = 1;
nodes = (
(-134,529,l),
(240,489,l),
(246,503,o),
(253,516,o),
(260,529,c)
);
},
{
closed = 1;
nodes = (
(-107,48,l),
(239,11,l),
(227,21,o),
(217,34,o),
(209,48,c,{
name = hr02;
})
);
},
{
closed = 1;
nodes = (
(4,625,l),
(310,592,l),
(324,605,o),
(339,615,o),
(355,625,c)
);
},
{
closed = 1;
nodes = (
(621,839,o),
(604,861,o),
(572,861,cs),
(540,861,o),
(534,854,o),
(398,769,c),
(432,688,l),
(517,728,l),
(543,705,o),
(560,683,o),
(592,683,cs),
(624,683,o),
(630,690,o),
(766,775,c),
(733,856,l),
(647,816,l,{
name = hr03;
})
);
},
{
closed = 1;
nodes = (
(78,833,l),
(372,787,l),
(444,833,l)
);
},
{
closed = 1;
nodes = (
(78,754,l),
(391,708,l),
(372,754,l)
);
}
);
width = 815;
}
);
unicode = 213;
},
{
glyphname = OE;
layers = (
{
layerId = master01;
shapes = (
{
closed = 1;
nodes = (
(953,160,l),
(739,160,l),
(752,236,l),
(923,236,l),
(949,381,l),
(778,381,l),
(792,465,l),
(977,465,l),
(1030,625,l),
(674,625,l),
(642,635,o),
(603,640,o),
(556,640,cs,{
name = hr01;
}),
(336,640,o),
(257,529,o),
(219,312,cs),
(211,265,o),
(206,224,o),
(206,187,cs),
(206,53,o),
(268,-15,o),
(441,-15,cs),
(488,-15,o),
(529,-10,o),
(564,0,c,{
name = hr02;
}),
(925,0,l)
);
},
{
closed = 1;
nodes = (
(450,465,o),
(479,469,o),
(523,469,cs),
(603,469,l),
(556,202,l),
(546,159,o),
(515,156,o),
(474,156,cs),
(395,156,l),
(441,416,ls)
);
},
{
closed = 1;
nodes = (
(-148,625,l),
(301,584,l),
(317,600,o),
(334,613,o),
(354,625,c)
);
},
{
closed = 1;
nodes = (
(187,300,o),
(188,308,o),
(190,317,cs),
(193,337,l),
(-238,337,l),
(186,292,l)
);
},
{
closed = 1;
nodes = (
(205,388,l),
(209,404,o),
(212,419,o),
(217,433,c),
(-215,433,l)
);
},
{
closed = 1;
nodes = (
(177,211,o),
(178,225,o),
(179,241,c),
(-247,241,l),
(177,196,l)
);
},
{
closed = 1;
nodes = (
(183,114,o),
(180,129,o),
(179,145,c,{
name = hr03;
}),
(-237,145,l),
(187,100,l)
);
},
{
closed = 1;
nodes = (
(-165,529,l),
(237,485,l),
(243,500,o),
(251,514,o),
(259,529,c)
);
},
{
closed = 1;
nodes = (
(231,16,o),
(218,31,o),
(208,48,c,{
name = hr04;
}),
(-177,48,l),
(247,3,l)
);
}
);
width = 1024;
}
);
unicode = 338;
},
{
glyphname = P;
layers = (
{
layerId = master01;
shapes = (
{
closed = 1;
nodes = (
(747,151,o),
(784,376,o),
(784,467,cs),
(784,557,o),
(743,625,o),
(614,625,cs),
(314,625,l),
(204,0,l),
(394,0,l),
(420,151,l),
(544,151,ls,{
name = hr00;
})
);
},
{
closed = 1;
nodes = (
(519,465,ls),
(553,465,o),
(579,462,o),
(579,434,cs),
(579,431,o),
(579,427,o),
(566,353,cs),
(559,314,o),
(530,311,o),
(492,311,cs),
(448,311,l),
(475,465,l)
);
},
{
closed = 1;
nodes = (
(182,48,l),
(-250,48,l),
(174,3,l)
);
},
{
closed = 1;
nodes = (
(216,241,l),
(-216,241,l),
(208,196,l)
);
},
{
closed = 1;
nodes = (
(249,433,l),
(-182,433,l),
(241,388,l)
);
},
{
closed = 1;
nodes = (
(266,529,l),
(-165,529,l),
(258,484,l)
);
},
{
closed = 1;
nodes = (
(199,145,l),
(-233,145,l),
(191,100,l)
);
},
{
closed = 1;
nodes = (
(283,625,l),
(-148,625,l),
(275,580,l)
);
},
{
closed = 1;
nodes = (
(232,337,l),
(-199,337,l),
(224,292,l)
);
}
);
width = 769;
}
);
unicode = 80;
},
{
glyphname = Thorn;
layers = (
{
layerId = master01;
shapes = (
{
closed = 1;
nodes = (
(182,48,l),
(-250,48,l),
(174,3,l,{
name = hr00;
})
);
},
{
closed = 1;
nodes = (
(216,241,l),
(-216,241,l),
(208,196,l)
);
},
{
closed = 1;
nodes = (
(249,433,l),
(-182,433,l),
(241,388,l)
);
},
{
closed = 1;
nodes = (
(266,529,l),
(-165,529,l),
(258,484,l)
);
},
{
closed = 1;
nodes = (
(199,145,l),
(-233,145,l),
(191,100,l)
);
},
{
closed = 1;
nodes = (
(283,625,l),
(-148,625,l),
(275,580,l)
);
},
{
closed = 1;
nodes = (
(232,337,l),
(-199,337,l),
(224,292,l)
);
},
{
closed = 1;
nodes = (
(733,76,o),
(771,300,o),
(771,391,cs),
(771,482,o),
(730,550,o),
(600,550,cs),
(490,550,l),
(504,625,l),
(314,625,l),
(204,0,l),
(394,0,l),
(407,76,l),
(531,76,ls)
);
},
{
closed = 1;
nodes = (
(506,390,ls),
(540,390,o),
(566,387,o),
(566,359,cs),
(566,356,o),
(566,352,o),
(565,348,cs),
(553,278,ls),
(546,239,o),
(517,236,o),
(479,236,cs),
(435,236,l),
(462,390,l)
);
}
);
width = 769;
}
);
unicode = 222;
},
{
glyphname = Q;
layers = (
{
layerId = master01;
shapes = (
{
closed = 1;
nodes = (
(207,75,o),
(261,0,o),
(431,0,c),
(516,23,l),
(509,-15,l),
(685,-50,l),
(755,65,l),
(693,107,l),
(745,169,o),
(792,303,o),
(792,434,cs),
(792,570,o),
(729,640,o),
(557,640,cs),
(337,640,o),
(258,529,o),
(220,312,cs),
(212,265,o),
(207,224,o),
(207,187,cs)
);
},
{
closed = 1;
nodes = (
(442,416,ls),
(451,465,o),
(480,469,o),
(524,469,cs),
(604,469,l),
(558,209,ls),
(549,160,o),
(519,156,o),
(475,156,cs),
(396,156,l)
);
},
{
closed = 1;
nodes = (
(-205,337,l),
(188,295,l),
(195,337,l)
);
},
{
closed = 1;
nodes = (
(-216,241,l),
(178,199,l),
(178,212,o),
(179,226,o),
(181,241,c)
);
},
{
closed = 1;
nodes = (
(-181,433,l),
(207,392,l),
(219,433,l)
);
},
{
closed = 1;
nodes = (
(-203,145,l),
(187,103,l),
(184,116,o),
(181,130,o),
(179,145,c)
);
},
{
closed = 1;
nodes = (
(-134,529,l),
(240,489,l),
(246,503,o),
(253,516,o),
(260,529,c)
);
},
{
closed = 1;
nodes = (
(-107,48,l),
(255,11,l),
(243,21,o),
(225,37,o),
(215,48,c)
);
},
{
closed = 1;
nodes = (
(4,625,l),
(310,592,l),
(324,605,o),
(339,615,o),
(355,625,c,{
name = hr01;
})
);
}
);
width = 815;
}
);
unicode = 81;
},
{
glyphname = R;
layers = (
{
layerId = master01;
shapes = (
{
closed = 1;
nodes = (
(656,208,l),
(761,260,o),
(785,400,o),
(785,472,cs),
(785,560,o),
(744,625,o),
(614,625,cs),
(314,625,l),
(204,0,l),
(394,0,l),
(426,186,l),
(467,186,l),
(513,0,l),
(722,0,l,{
name = hr00;
})
);
},
{
closed = 1;
nodes = (
(513,465,ls),
(552,465,o),
(579,463,o),
(579,434,cs),
(579,432,o),
(577,415,o),
(571,382,cs),
(564,343,o),
(535,340,o),
(497,340,cs),
(453,340,l),
(475,465,l)
);
},
{
closed = 1;
nodes = (
(182,48,l),
(-250,48,l),
(174,3,l)
);
},
{
closed = 1;
nodes = (
(216,241,l),
(-216,241,l),
(208,196,l)
);
},
{
closed = 1;
nodes = (
(249,433,l),
(-182,433,l),
(241,388,l)
);
},
{
closed = 1;
nodes = (
(266,529,l),
(-165,529,l),
(258,484,l)
);
},
{
closed = 1;
nodes = (
(199,145,l),
(-233,145,l),
(191,100,l)
);
},
{
closed = 1;
nodes = (
(283,625,l),
(-148,625,l),
(275,580,l)
);
},
{
closed = 1;
nodes = (
(232,337,l),
(-199,337,l),
(224,292,l)
);
}
);
width = 795;
}
);
unicode = 82;
},
{
glyphname = S;
layers = (
{
layerId = master01;
shapes = (
{
closed = 1;
nodes = (
(259,401,o),
(261,411,o),
(263,421,c),
(263,425,o),
(264,429,o),
(265,433,c),
(-166,433,l),
(258,388,l)
);
},
{
closed = 1;
nodes = (
(-138,529,l),
(277,485,l),
(292,529,l)
);
},
{
closed = 1;
nodes = (
(-157,337,l),
(266,292,l),
(261,306,o),
(259,320,o),
(258,337,c)
);
},
{
closed = 1;
nodes = (
(354,205,o),
(322,220,o),
(300,241,c),
(-131,241,l),
(398,196,l)
);
},
{
closed = 1;
nodes = (
(-63,625,l),
(323,584,l),
(336,600,o),
(350,614,o),
(367,625,c)
);
},
{
closed = 1;
nodes = (
(211,101,l),
(226,145,l),
(-148,145,l)
);
},
{
closed = 1;
nodes = (
(179,4,l),
(194,48,l),
(-165,48,l)
);
},
{
closed = 1;
nodes = (
(283,-7,o),
(359,-15,o),
(438,-15,cs),
(575,-15,o),
(710,-8,o),
(748,209,cs),
(751,227,o),
(753,244,o),
(753,260,cs),
(753,339,o),
(708,394,o),
(565,409,cs),
(498,416,l),
(506,465,l),
(536,469,o),
(553,470,o),
(584,470,cs,{
name = hr01;
}),
(641,470,o),
(684,464,o),
(736,455,c),
(788,615,l),
(722,632,o),
(651,640,o),
(578,640,cs),
(390,640,o),
(324,586,o),
(293,416,cs),
(289,394,o),
(287,375,o),
(287,356,cs),
(287,276,o),
(330,230,o),
(461,217,cs),
(544,209,l),
(536,159,l),
(507,155,o),
(476,153,o),
(434,153,cs),
(382,153,o),
(320,162,o),
(269,176,c),
(213,11,l)
);
}
);
width = 798;
}
);
unicode = 83;
},
{
glyphname = Scaron;
layers = (
{
layerId = master01;
shapes = (
{
closed = 1;
nodes = (
(259,401,o),
(261,411,o),
(263,421,c),
(263,425,o),
(264,429,o),
(265,433,c),
(-166,433,l),
(258,388,l)
);
},
{
closed = 1;
nodes = (
(-138,529,l),
(277,485,l),
(292,529,l)
);
},
{
closed = 1;
nodes = (
(-157,337,l),
(266,292,l),
(261,306,o),
(259,320,o),
(258,337,c)
);
},
{
closed = 1;
nodes = (
(354,205,o),
(322,220,o),
(300,241,c),
(-131,241,l),
(398,196,l)
);
},
{
closed = 1;
nodes = (
(-63,625,l),
(323,584,l),
(336,600,o),
(350,614,o),
(367,625,c)
);
},
{
closed = 1;
nodes = (
(211,101,l),
(226,145,l),
(-148,145,l)
);
},
{
closed = 1;
nodes = (
(179,4,l),
(194,48,l),
(-165,48,l)
);
},
{
closed = 1;
nodes = (
(283,-7,o),
(359,-15,o),
(438,-15,cs),
(575,-15,o),
(710,-8,o),
(748,209,cs),
(751,227,o),
(753,244,o),
(753,260,cs),
(753,339,o),
(708,394,o),
(565,409,cs),
(498,416,l),
(506,465,l),
(536,469,o),
(553,470,o),
(584,470,cs,{
name = hr01;
}),
(641,470,o),
(684,464,o),
(736,455,c),
(788,615,l),
(722,632,o),
(651,640,o),
(578,640,cs),
(390,640,o),
(324,586,o),
(293,416,cs),
(289,394,o),
(287,375,o),
(287,356,cs),
(287,276,o),
(330,230,o),
(461,217,cs),
(544,209,l),
(536,159,l),
(507,155,o),
(476,153,o),
(434,153,cs),
(382,153,o),
(320,162,o),
(269,176,c),
(213,11,l)
);
},
{
closed = 1;
nodes = (
(595,677,o),
(601,680,o),
(606,686,cs),
(738,831,l),
(690,880,l),
(591,817,l),
(513,880,l),
(447,831,l),
(530,686,ls),
(533,681,o),
(536,677,o),
(543,677,cs),
(588,677,ls,{
name = hr02;
})
);
},
{
closed = 1;
nodes = (
(410,833,l),
(32,833,l),
(433,794,l)
);
},
{
closed = 1;
nodes = (
(457,752,l),
(71,752,l),
(479,713,l)
);
}
);
width = 798;
}
);
unicode = 352;
},
{
glyphname = T;
layers = (
{
layerId = master01;
shapes = (
{
closed = 1;
nodes = (
(765,625,l),
(300,625,l),
(271,465,l),
(408,465,l),
(327,0,l),
(517,0,l),
(598,465,l),
(736,465,l,{
name = hr00;
})
);
},
{
closed = 1;
nodes = (
(304,48,l),
(-128,48,l),
(296,3,l)
);
},
{
closed = 1;
nodes = (
(338,241,l),
(-94,241,l),
(330,196,l)
);
},
{
closed = 1;
nodes = (
(355,337,l),
(-77,337,l),
(347,292,l)
);
},
{
closed = 1;
nodes = (
(372,433,l),
(-60,433,l),
(364,388,l)
);
},
{
closed = 1;
nodes = (
(321,145,l),
(-111,145,l),
(313,100,l)
);
},
{
closed = 1;
nodes = (
(251,529,l),
(-180,529,l),
(244,484,l)
);
},
{
closed = 1;
nodes = (
(268,625,l),
(-163,625,l),
(260,580,l)
);
}
);
width = 727;
}
);
unicode = 84;
},
{
glyphname = Tbar;
layers = (
{
layerId = master01;
shapes = (
{
closed = 1;
nodes = (
(680,196,l),
(689,242,l),
(239,242,l),
(231,196,l,{
name = hr00;
})
);
},
{
closed = 1;
nodes = (
(765,625,l),
(300,625,l),
(271,465,l),
(408,465,l),
(327,0,l),
(517,0,l),
(598,465,l),
(736,465,l)
);
},
{
closed = 1;
nodes = (
(304,48,l),
(-128,48,l),
(296,3,l)
);
},
{
closed = 1;
nodes = (
(355,337,l),
(-77,337,l),
(347,292,l)
);
},
{
closed = 1;
nodes = (
(372,433,l),
(-60,433,l),
(364,388,l)
);
},
{
closed = 1;
nodes = (
(321,145,l),
(-111,145,l),
(313,100,l)
);
},
{
closed = 1;
nodes = (
(251,529,l),
(-180,529,l),
(244,484,l)
);
},
{
closed = 1;
nodes = (
(268,625,l),
(-163,625,l),
(260,580,l)
);
}
);
width = 727;
}
);
unicode = 358;
},
{
glyphname = U;
layers = (
{
layerId = master01;
shapes = (
{
closed = 1;
nodes = (
(246,433,l),
(-186,433,l),
(238,388,l)
);
},
{
closed = 1;
nodes = (
(229,337,l),
(-202,337,l),
(221,292,l)
);
},
{
closed = 1;
nodes = (
(280,625,l),
(-151,625,l),
(272,580,l)
);
},
{
closed = 1;
nodes = (
(255,484,l),
(263,529,l),
(-168,529,l)
);
},
{
closed = 1;
nodes = (
(-216,241,l),
(207,196,l),
(208,210,o),
(210,225,o),
(212,241,c)
);
},
{
closed = 1;
nodes = (
(-215,145,l),
(208,100,l),
(206,114,o),
(205,128,o),
(205,145,c)
);
},
{
closed = 1;
nodes = (
(-169,48,l),
(254,3,l),
(240,15,o),
(230,30,o),
(222,48,c,{
name = hr01;
})
);
},
{
closed = 1;
nodes = (
(311,625,l),
(249,274,ls),
(240,224,o),
(235,182,o),
(235,147,cs),
(235,28,o),
(292,-15,o),
(453,-15,cs),
(662,-15,o),
(721,58,o),
(759,274,cs),
(821,625,l),
(631,625,l),
(557,209,ls),
(548,160,o),
(529,156,o),
(486,156,cs),
(418,156,l),
(501,625,l)
);
}
);
width = 814;
}
);
unicode = 85;
},
{
glyphname = Uacute;
layers = (
{
layerId = master01;
shapes = (
{
closed = 1;
nodes = (
(246,433,l),
(-186,433,l),
(238,388,l)
);
},
{
closed = 1;
nodes = (
(229,337,l),
(-202,337,l),
(221,292,l)
);
},
{
closed = 1;
nodes = (
(280,625,l),
(-151,625,l),
(272,580,l)
);
},
{
closed = 1;
nodes = (
(255,484,l),
(263,529,l),
(-168,529,l)
);
},
{
closed = 1;
nodes = (
(-216,241,l),
(207,196,l),
(208,210,o),
(210,225,o),
(212,241,c)
);
},
{
closed = 1;
nodes = (
(-215,145,l),
(208,100,l),
(206,114,o),
(205,128,o),
(205,145,c)
);
},
{
closed = 1;
nodes = (
(-169,48,l),
(254,3,l),
(240,15,o),
(230,30,o),
(222,48,c,{
name = hr01;
})
);
},
{
closed = 1;
nodes = (
(311,625,l),
(249,274,ls),
(240,224,o),
(235,182,o),
(235,147,cs),
(235,28,o),
(292,-15,o),
(453,-15,cs),
(662,-15,o),
(721,58,o),
(759,274,cs),
(821,625,l),
(631,625,l),
(557,209,ls),
(548,160,o),
(529,156,o),
(486,156,cs),
(418,156,l),
(501,625,l)
);
},
{
closed = 1;
nodes = (
(682,717,o),
(686,720,o),
(693,726,cs),
(737,764,o),
(738,765,o),
(738,765,c),
(740,768,o),
(742,771,o),
(742,776,cs),
(742,781,o),
(739,787,o),
(733,794,cs),
(670,868,ls),
(665,874,o),
(659,879,o),
(652,879,cs),
(648,879,o),
(644,877,o),
(641,875,cs),
(452,736,l),
(493,679,l),
(667,714,ls,{
name = hr02;
})
);
},
{
closed = 1;
nodes = (
(532,833,l),
(119,833,l),
(479,794,l)
);
},
{
closed = 1;
nodes = (
(421,752,l),
(8,752,l),
(368,713,l)
);
}
);
width = 814;
}
);
unicode = 218;
},
{
glyphname = Ucircumflex;
layers = (
{
layerId = master01;
shapes = (
{
closed = 1;
nodes = (
(246,433,l),
(-186,433,l),
(238,388,l)
);
},
{
closed = 1;
nodes = (
(229,337,l),
(-202,337,l),
(221,292,l)
);
},
{
closed = 1;
nodes = (
(280,625,l),
(-151,625,l),
(272,580,l)
);
},
{
closed = 1;
nodes = (
(255,484,l),
(263,529,l),
(-168,529,l)
);
},
{
closed = 1;
nodes = (
(-216,241,l),
(207,196,l),
(208,210,o),
(210,225,o),
(212,241,c)
);
},
{
closed = 1;
nodes = (
(-215,145,l),
(208,100,l),
(206,114,o),
(205,128,o),
(205,145,c)
);
},
{
closed = 1;
nodes = (
(-169,48,l),
(254,3,l),
(240,15,o),
(230,30,o),
(222,48,c,{
name = hr01;
})
);
},
{
closed = 1;
nodes = (
(311,625,l),
(249,274,ls),
(240,224,o),
(235,182,o),
(235,147,cs),
(235,28,o),
(292,-15,o),
(453,-15,cs),
(662,-15,o),
(721,58,o),
(759,274,cs),
(821,625,l),
(631,625,l),
(557,209,ls),
(548,160,o),
(529,156,o),
(486,156,cs),
(418,156,l),
(501,625,l)
);
},
{
closed = 1;
nodes = (
(575,880,o),
(569,877,o),
(564,871,cs),
(432,726,l),
(480,677,l),
(579,740,l),
(657,677,l),
(723,726,l),
(640,871,ls),
(637,876,o),
(634,880,o),
(627,880,cs),
(582,880,ls,{
name = hr02;
})
);
},
{
closed = 1;
nodes = (
(488,833,l),
(130,833,l),
(453,794,l)
);
},
{
closed = 1;
nodes = (
(415,752,l),
(49,752,l),
(379,713,l)
);
}
);
width = 814;
}
);
unicode = 219;
},
{
glyphname = Udieresis;
layers = (
{
layerId = master01;
shapes = (
{
closed = 1;
nodes = (
(246,433,l),
(-186,433,l),
(238,388,l)
);
},
{
closed = 1;
nodes = (
(229,337,l),
(-202,337,l),
(221,292,l)
);
},
{
closed = 1;
nodes = (
(280,625,l),
(-151,625,l),
(272,580,l)
);
},
{
closed = 1;
nodes = (
(255,484,l),
(263,529,l),
(-168,529,l)
);
},
{
closed = 1;
nodes = (
(-216,241,l),
(207,196,l),
(208,210,o),
(210,225,o),
(212,241,c)
);
},
{
closed = 1;
nodes = (
(-215,145,l),
(208,100,l),
(206,114,o),
(205,128,o),
(205,145,c)
);
},
{
closed = 1;
nodes = (
(-169,48,l),
(254,3,l),
(240,15,o),
(230,30,o),
(222,48,c,{
name = hr01;
})
);
},
{
closed = 1;
nodes = (
(311,625,l),
(249,274,ls),
(240,224,o),
(235,182,o),
(235,147,cs),
(235,28,o),
(292,-15,o),
(453,-15,cs),
(662,-15,o),
(721,58,o),
(759,274,cs),
(821,625,l),
(631,625,l),
(557,209,ls),
(548,160,o),
(529,156,o),
(486,156,cs),
(418,156,l),
(501,625,l)
);
},
{
closed = 1;
nodes = (
(643,848,o),
(618,819,o),
(618,740,cs),
(618,706,o),
(634,692,o),
(682,692,cs),
(748,692,o),
(773,721,o),
(773,800,cs),
(773,834,o),
(757,848,o),
(709,848,cs,{
name = hr02;
})
);
},
{
closed = 1;
nodes = (
(435,848,o),
(410,819,o),
(410,740,cs),
(410,706,o),
(426,692,o),
(474,692,cs),
(539,692,o),
(565,721,o),
(565,800,cs),
(565,834,o),
(548,848,o),
(501,848,cs)
);
},
{
closed = 1;
nodes = (
(81,833,l),
(383,787,l),
(386,805,o),
(390,820,o),
(397,833,c,{
name = hr03;
})
);
},
{
closed = 1;
nodes = (
(380,754,l,{
name = hr04;
}),
(81,754,l),
(383,708,l),
(381,717,o),
(380,728,o),
(380,740,c)
);
}
);
width = 814;
}
);
unicode = 220;
},
{
glyphname = Ugrave;
layers = (
{
layerId = master01;
shapes = (
{
closed = 1;
nodes = (
(246,433,l),
(-186,433,l),
(238,388,l)
);
},
{
closed = 1;
nodes = (
(229,337,l),
(-202,337,l),
(221,292,l)
);
},
{
closed = 1;
nodes = (
(280,625,l),
(-151,625,l),
(272,580,l)
);
},
{
closed = 1;
nodes = (
(255,484,l),
(263,529,l),
(-168,529,l)
);
},
{
closed = 1;
nodes = (
(-216,241,l),
(207,196,l),
(208,210,o),
(210,225,o),
(212,241,c)
);
},
{
closed = 1;
nodes = (
(-215,145,l),
(208,100,l),
(206,114,o),
(205,128,o),
(205,145,c)
);
},
{
closed = 1;
nodes = (
(-169,48,l),
(254,3,l),
(240,15,o),
(230,30,o),
(222,48,c,{
name = hr01;
})
);
},
{
closed = 1;
nodes = (
(311,625,l),
(249,274,ls),
(240,224,o),
(235,182,o),
(235,147,cs),
(235,28,o),
(292,-15,o),
(453,-15,cs),
(662,-15,o),
(721,58,o),
(759,274,cs),
(821,625,l),
(631,625,l),
(557,209,ls),
(548,160,o),
(529,156,o),
(486,156,cs),
(418,156,l),
(501,625,l)
);
},
{
closed = 1;
nodes = (
(713,736,l),
(524,875,ls),
(521,877,o),
(517,879,o),
(513,879,cs),
(506,879,o),
(500,874,o),
(495,868,cs),
(432,794,ls),
(427,788,o),
(423,781,o),
(423,775,cs),
(423,772,o),
(424,768,o),
(427,765,cs),
(472,726,ls),
(479,720,o),
(483,717,o),
(498,714,cs),
(672,679,l,{
name = hr02;
})
);
},
{
closed = 1;
nodes = (
(404,810,o),
(416,820,o),
(426,833,c),
(2,833,l),
(397,794,l)
);
},
{
closed = 1;
nodes = (
(413,736,o),
(405,743,o),
(399,752,c),
(32,752,l),
(440,713,l)
);
}
);
width = 814;
}
);
unicode = 217;
},
{
glyphname = V;
layers = (
{
layerId = master01;
shapes = (
{
closed = 1;
nodes = (
(278,3,l),
(275,48,l),
(-146,48,l)
);
},
{
closed = 1;
nodes = (
(272,100,l),
(269,145,l),
(-152,145,l)
);
},
{
closed = 1;
nodes = (
(249,484,l),
(246,529,l),
(-175,529,l)
);
},
{
closed = 1;
nodes = (
(254,388,l),
(252,433,l),
(-169,433,l)
);
},
{
closed = 1;
nodes = (
(243,580,l),
(241,625,l),
(-180,625,l)
);
},
{
closed = 1;
nodes = (
(260,292,l),
(257,337,l),
(-163,337,l)
);
},
{
closed = 1;
nodes = (
(266,196,l),
(263,241,l),
(-157,241,l)
);
},
{
closed = 1;
nodes = (
(491,228,l),
(482,228,l,{
name = hr01;
}),
(482,625,l),
(271,625,l),
(308,0,l),
(586,0,l),
(843,625,l),
(642,625,l)
);
}
);
width = 793;
}
);
unicode = 86;
},
{
glyphname = W;
layers = (
{
layerId = master01;
shapes = (
{
closed = 1;
nodes = (
(223,625,l),
(-170,625,l),
(223,580,l,{
name = hr00;
})
);
},
{
closed = 1;
nodes = (
(223,529,l),
(-170,529,l),
(223,484,l)
);
},
{
closed = 1;
nodes = (
(223,433,l),
(-170,433,l),
(223,388,l)
);
},
{
closed = 1;
nodes = (
(223,337,l),
(-170,337,l),
(223,292,l)
);
},
{
closed = 1;
nodes = (
(223,241,l),
(-170,241,l),
(223,196,l)
);
},
{
closed = 1;
nodes = (
(223,145,l),
(-170,145,l),
(223,100,l)
);
},
{
closed = 1;
nodes = (
(223,48,l),
(-170,48,l),
(223,3,l)
);
},
{
closed = 1;
nodes = (
(727,276,l),
(721,276,l),
(721,625,l),
(570,625,l),
(440,276,l),
(434,276,l),
(452,625,l),
(253,625,l),
(253,0,l),
(484,0,l),
(567,230,l),
(578,230,l),
(578,0,l),
(830,0,l),
(1033,625,l),
(834,625,l)
);
}
);
width = 993;
}
);
unicode = 87;
},
{
glyphname = X;
layers = (
{
layerId = master01;
shapes = (
{
closed = 1;
nodes = (
(302,324,l),
(299,337,l),
(-127,337,l),
(284,293,l,{
name = hr00;
})
);
},
{
closed = 1;
nodes = (
(118,5,l),
(143,48,l),
(-289,48,l)
);
},
{
closed = 1;
nodes = (
(275,433,l),
(-137,433,l),
(286,388,l)
);
},
{
closed = 1;
nodes = (
(254,241,l),
(-177,241,l),
(229,198,l)
);
},
{
closed = 1;
nodes = (
(259,499,o),
(255,514,o),
(252,529,c),
(-160,529,l),
(263,484,l)
);
},
{
closed = 1;
nodes = (
(236,595,o),
(232,610,o),
(229,625,c),
(-183,625,l),
(240,580,l)
);
},
{
closed = 1;
nodes = (
(199,145,l),
(-232,145,l),
(174,102,l)
);
},
{
closed = 1;
nodes = (
(260,625,l),
(334,317,l),
(150,0,l),
(351,0,l),
(453,180,l),
(461,180,l),
(501,0,l),
(712,0,l),
(636,323,l),
(822,625,l),
(616,625,l),
(521,458,l),
(511,458,l),
(476,625,l)
);
}
);
width = 772;
}
);
unicode = 88;
},
{
glyphname = Y;
layers = (
{
layerId = master01;
shapes = (
{
closed = 1;
nodes = (
(241,48,l),
(-190,48,l),
(233,3,l,{
name = hr00;
})
);
},
{
closed = 1;
nodes = (
(257,145,l),
(-173,145,l),
(250,100,l)
);
},
{
closed = 1;
nodes = (
(248,241,l),
(-167,241,l),
(257,196,l)
);
},
{
closed = 1;
nodes = (
(229,337,l),
(-186,337,l),
(238,292,l)
);
},
{
closed = 1;
nodes = (
(-223,529,l),
(200,484,l),
(191,529,l)
);
},
{
closed = 1;
nodes = (
(-204,433,l),
(219,388,l),
(210,433,l)
);
},
{
closed = 1;
nodes = (
(173,625,l),
(-241,625,l),
(182,580,l)
);
},
{
closed = 1;
nodes = (
(203,625,l),
(293,170,l),
(264,0,l),
(454,0,l),
(483,170,l),
(735,625,l),
(525,625,l),
(433,405,l),
(426,405,l),
(413,625,l)
);
}
);
width = 654;
}
);
unicode = 89;
},
{
glyphname = Yacute;
layers = (
{
layerId = master01;
shapes = (
{
closed = 1;
nodes = (
(241,48,l),
(-190,48,l),
(233,3,l)
);
},
{
closed = 1;
nodes = (
(257,145,l),
(-173,145,l),
(250,100,l)
);
},
{
closed = 1;
nodes = (
(248,241,l),
(-167,241,l),
(257,196,l)
);
},
{
closed = 1;
nodes = (
(229,337,l),
(-186,337,l),
(238,292,l)
);
},
{
closed = 1;
nodes = (
(-223,529,l),
(200,484,l),
(191,529,l)
);
},
{
closed = 1;
nodes = (
(-204,433,l),
(219,388,l),
(210,433,l)
);
},
{
closed = 1;
nodes = (
(173,625,l),
(-241,625,l),
(182,580,l)
);
},
{
closed = 1;
nodes = (
(203,625,l),
(293,170,l),
(264,0,l),
(454,0,l),
(483,170,l),
(735,625,l),
(525,625,l),
(433,405,l),
(426,405,l),
(413,625,l)
);
},
{
closed = 1;
nodes = (
(564,717,o),
(568,720,o),
(575,726,cs),
(619,764,o),
(620,765,o),
(620,765,c),
(622,768,o),
(624,771,o),
(624,776,cs),
(624,781,o),
(621,787,o),
(615,794,cs),
(552,868,ls),
(547,874,o),
(541,879,o),
(534,879,cs),
(530,879,o),
(526,877,o),
(523,875,cs),
(334,736,l),
(375,679,l),
(549,714,ls,{
name = hr01;
})
);
},
{
closed = 1;
nodes = (
(414,833,l),
(1,833,l),
(361,794,l)
);
},
{
closed = 1;
nodes = (
(303,752,l),
(-110,752,l),
(250,713,l)
);
}
);
width = 654;
}
);
unicode = 221;
},
{
glyphname = Ydieresis;
layers = (
{
layerId = master01;
shapes = (
{
closed = 1;
nodes = (
(241,48,l),
(-190,48,l),
(233,3,l)
);
},
{
closed = 1;
nodes = (
(257,145,l),
(-173,145,l),
(250,100,l)
);
},
{
closed = 1;
nodes = (
(248,241,l),
(-167,241,l),
(257,196,l)
);
},
{
closed = 1;
nodes = (
(229,337,l),
(-186,337,l),
(238,292,l)
);
},
{
closed = 1;
nodes = (
(-223,529,l),
(200,484,l),
(191,529,l)
);
},
{
closed = 1;
nodes = (
(-204,433,l),
(219,388,l),
(210,433,l)
);
},
{
closed = 1;
nodes = (
(173,625,l),
(-241,625,l),
(182,580,l)
);
},
{
closed = 1;
nodes = (
(203,625,l),
(293,170,l),
(264,0,l),
(454,0,l),
(483,170,l),
(735,625,l),
(525,625,l),
(433,405,l),
(426,405,l),
(413,625,l)
);
},
{
closed = 1;
nodes = (
(543,848,o),
(518,819,o),
(518,740,cs),
(518,706,o),
(534,692,o),
(582,692,cs),
(648,692,o),
(673,721,o),
(673,800,cs),
(673,834,o),
(657,848,o),
(609,848,cs,{
name = hr01;
})
);
},
{
closed = 1;
nodes = (
(335,848,o),
(310,819,o),
(310,740,cs),
(310,706,o),
(326,692,o),
(374,692,cs),
(439,692,o),
(465,721,o),
(465,800,cs),
(465,834,o),
(448,848,o),
(401,848,cs)
);
},
{
closed = 1;
nodes = (
(-19,833,l),
(283,787,l),
(286,805,o),
(290,820,o),
(297,833,c,{
name = hr02;
})
);
},
{
closed = 1;
nodes = (
(280,754,l,{
name = hr03;
}),
(-19,754,l),
(283,708,l),
(281,717,o),
(280,728,o),
(280,740,c)
);
}
);
width = 654;
}
);
unicode = 376;
},
{
glyphname = Z;
layers = (
{
layerId = master01;
shapes = (
{
closed = 1;
nodes = (
(127,48,l),
(-563,48,l),
(119,3,l)
);
},
{
closed = 1;
nodes = (
(144,145,l),
(-288,145,l),
(136,100,l)
);
},
{
closed = 1;
nodes = (
(246,529,l),
(-181,529,l),
(243,484,l)
);
},
{
closed = 1;
nodes = (
(253,625,l),
(-173,625,l),
(250,580,l)
);
},
{
closed = 1;
nodes = (
(285,295,l),
(323,337,l),
(-109,337,l)
);
},
{
closed = 1;
nodes = (
(198,199,l),
(236,241,l),
(-196,241,l,{
name = hr01;
})
);
},
{
closed = 1;
nodes = (
(371,391,l),
(409,433,l),
(-23,433,l)
);
},
{
closed = 1;
nodes = (
(690,160,l),
(448,160,l),
(447,166,l),
(746,500,l),
(768,625,l),
(283,625,l),
(272,465,l),
(471,465,l),
(473,459,l),
(172,125,l),
(150,0,l),
(662,0,l,{
name = hr02;
})
);
}
);
width = 748;
}
);
unicode = 90;
},
{
glyphname = Zcaron;
layers = (
{
layerId = master01;
shapes = (
{
closed = 1;
nodes = (
(127,48,l),
(-563,48,l),
(119,3,l)
);
},
{
closed = 1;
nodes = (
(144,145,l),
(-288,145,l),
(136,100,l)
);
},
{
closed = 1;
nodes = (
(246,529,l),
(-181,529,l),
(243,484,l)
);
},
{
closed = 1;
nodes = (
(253,625,l),
(-173,625,l),
(250,580,l)
);
},
{
closed = 1;
nodes = (
(285,295,l),
(323,337,l),
(-109,337,l)
);
},
{
closed = 1;
nodes = (
(198,199,l),
(236,241,l),
(-196,241,l,{
name = hr01;
})
);
},
{
closed = 1;
nodes = (
(371,391,l),
(409,433,l),
(-23,433,l)
);
},
{
closed = 1;
nodes = (
(690,160,l),
(448,160,l),
(447,166,l),
(746,500,l),
(768,625,l),
(283,625,l),
(272,465,l),
(471,465,l),
(473,459,l),
(172,125,l),
(150,0,l),
(662,0,l,{
name = hr02;
})
);
},
{
closed = 1;
nodes = (
(555,677,o),
(561,680,o),
(566,686,cs),
(698,831,l),
(650,880,l),
(551,817,l),
(473,880,l),
(407,831,l),
(490,686,ls),
(493,681,o),
(496,677,o),
(503,677,cs),
(548,677,ls,{
name = hr03;
})
);
},
{
closed = 1;
nodes = (
(370,833,l),
(-8,833,l),
(393,794,l)
);
},
{
closed = 1;
nodes = (
(417,752,l),
(31,752,l),
(439,713,l)
);
}
);
width = 748;
}
);
unicode = 381;
},
{
glyphname = L.cat;
layers = (
{
layerId = master01;
shapes = (
{
closed = 1;
nodes = (
(468,160,l),
(278,160,l),
(360,625,l),
(170,625,l),
(60,0,l),
(440,0,l,{
name = hr00;
})
);
}
);
width = 478;
}
);
},
{
glyphname = a;
layers = (
{
layerId = master01;
shapes = (
{
closed = 1;
nodes = (
(701,0,l),
(662,529,l),
(414,529,l),
(192,0,l),
(365,0,l),
(396,81,l,{
name = hr01;
}),
(522,81,l),
(526,0,l)
);
},
{
closed = 1;
nodes = (
(522,376,l),
(522,224,l,{
name = hr03;
}),
(449,224,l),
(508,376,l)
);
},
{
closed = 1;
nodes = (
(179,48,l),
(-250,48,l),
(160,4,l)
);
},
{
closed = 1;
nodes = (
(220,145,l,{
name = hr04;
}),
(-209,145,l),
(201,101,l)
);
},
{
closed = 1;
nodes = (
(260,241,l),
(-168,241,l),
(242,197,l)
);
},
{
closed = 1;
nodes = (
(301,337,l),
(-127,337,l),
(282,293,l)
);
},
{
closed = 1;
nodes = (
(341,433,l),
(-86,433,l),
(323,389,l)
);
},
{
closed = 1;
nodes = (
(381,529,l),
(-45,529,l),
(363,486,l)
);
}
);
width = 758;
}
);
unicode = 97;
},
{
glyphname = aacute;
layers = (
{
layerId = master01;
shapes = (
{
closed = 1;
nodes = (
(701,0,l),
(662,529,l),
(414,529,l),
(192,0,l),
(365,0,l),
(396,81,l,{
name = hr01;
}),
(522,81,l),
(526,0,l)
);
},
{
closed = 1;
nodes = (
(522,376,l),
(522,224,l,{
name = hr03;
}),
(449,224,l),
(508,376,l)
);
},
{
closed = 1;
nodes = (
(179,48,l),
(-250,48,l),
(160,4,l)
);
},
{
closed = 1;
nodes = (
(220,145,l,{
name = hr04;
}),
(-209,145,l),
(201,101,l)
);
},
{
closed = 1;
nodes = (
(260,241,l),
(-168,241,l),
(242,197,l)
);
},
{
closed = 1;
nodes = (
(301,337,l),
(-127,337,l),
(282,293,l)
);
},
{
closed = 1;
nodes = (
(341,433,l),
(-86,433,l),
(323,389,l)
);
},
{
closed = 1;
nodes = (
(381,529,l),
(-45,529,l),
(363,486,l)
);
},
{
closed = 1;
nodes = (
(684,607,o),
(688,610,o),
(695,616,cs),
(739,654,o),
(740,655,o),
(740,655,c),
(742,658,o),
(744,661,o),
(744,666,cs),
(744,671,o),
(741,677,o),
(735,684,cs),
(672,758,ls),
(667,764,o),
(661,769,o),
(654,769,cs),
(650,769,o),
(646,767,o),
(643,765,cs),
(454,626,l),
(495,569,l),
(669,604,ls,{
name = hr05;
})
);
},
{
closed = 1;
nodes = (
(534,723,l),
(121,723,l),
(481,684,l)
);
},
{
closed = 1;
nodes = (
(423,642,l),
(10,642,l),
(370,603,l)
);
}
);
width = 758;
}
);
unicode = 225;
},
{
glyphname = acircumflex;
layers = (
{
layerId = master01;
shapes = (
{
closed = 1;
nodes = (
(701,0,l),
(662,529,l),
(414,529,l),
(192,0,l),
(365,0,l),
(396,81,l,{
name = hr01;
}),
(522,81,l),
(526,0,l)
);
},
{
closed = 1;
nodes = (
(522,376,l),
(522,224,l,{
name = hr03;
}),
(449,224,l),
(508,376,l)
);
},
{
closed = 1;
nodes = (
(179,48,l),
(-250,48,l),
(160,4,l)
);
},
{
closed = 1;
nodes = (
(220,145,l,{
name = hr04;
}),
(-209,145,l),
(201,101,l)
);
},
{
closed = 1;
nodes = (
(260,241,l),
(-168,241,l),
(242,197,l)
);
},
{
closed = 1;
nodes = (
(301,337,l),
(-127,337,l),
(282,293,l)
);
},
{
closed = 1;
nodes = (
(341,433,l),
(-86,433,l),
(323,389,l)
);
},
{
closed = 1;
nodes = (
(381,529,l),
(-45,529,l),
(363,486,l)
);
},
{
closed = 1;
nodes = (
(567,770,o),
(561,767,o),
(556,761,cs),
(424,616,l),
(472,567,l),
(571,630,l),
(649,567,l),
(715,616,l),
(632,761,ls),
(629,766,o),
(626,770,o),
(619,770,cs),
(574,770,ls,{
name = hr05;
})
);
},
{
closed = 1;
nodes = (
(480,723,l),
(122,723,l),
(445,684,l)
);
},
{
closed = 1;
nodes = (
(407,642,l),
(41,642,l),
(371,603,l)
);
}
);
width = 758;
}
);
unicode = 226;
},
{
glyphname = adieresis;
layers = (
{
layerId = master01;
shapes = (
{
closed = 1;
nodes = (
(701,0,l),
(662,529,l),
(414,529,l),
(192,0,l),
(365,0,l),
(396,81,l,{
name = hr01;
}),
(522,81,l),
(526,0,l)
);
},
{
closed = 1;
nodes = (
(522,376,l),
(522,224,l,{
name = hr03;
}),
(449,224,l),
(508,376,l)
);
},
{
closed = 1;
nodes = (
(179,48,l),
(-250,48,l),
(160,4,l)
);
},
{
closed = 1;
nodes = (
(220,145,l,{
name = hr04;
}),
(-209,145,l),
(201,101,l)
);
},
{
closed = 1;
nodes = (
(260,241,l),
(-168,241,l),
(242,197,l)
);
},
{
closed = 1;
nodes = (
(301,337,l),
(-127,337,l),
(282,293,l)
);
},
{
closed = 1;
nodes = (
(341,433,l),
(-86,433,l),
(323,389,l)
);
},
{
closed = 1;
nodes = (
(381,529,l),
(-45,529,l),
(363,486,l)
);
},
{
closed = 1;
nodes = (
(624,738,o),
(599,709,o),
(599,630,cs),
(599,596,o),
(615,582,o),
(663,582,cs),
(729,582,o),
(754,611,o),
(754,690,cs),
(754,724,o),
(738,738,o),
(690,738,cs,{
name = hr05;
})
);
},
{
closed = 1;
nodes = (
(416,738,o),
(391,709,o),
(391,630,cs),
(391,596,o),
(407,582,o),
(455,582,cs),
(520,582,o),
(546,611,o),
(546,690,cs),
(546,724,o),
(529,738,o),
(482,738,cs)
);
},
{
closed = 1;
nodes = (
(62,723,l),
(364,677,l),
(367,695,o),
(371,710,o),
(378,723,c,{
name = hr06;
})
);
},
{
closed = 1;
nodes = (
(361,644,l,{
name = hr07;
}),
(62,644,l),
(364,598,l),
(362,607,o),
(361,618,o),
(361,630,c)
);
}
);
width = 758;
}
);
unicode = 228;
},
{
glyphname = agrave;
layers = (
{
layerId = master01;
shapes = (
{
closed = 1;
nodes = (
(701,0,l),
(662,529,l),
(414,529,l),
(192,0,l),
(365,0,l),
(396,81,l,{
name = hr01;
}),
(522,81,l),
(526,0,l)
);
},
{
closed = 1;
nodes = (
(522,376,l),
(522,224,l,{
name = hr03;
}),
(449,224,l),
(508,376,l)
);
},
{
closed = 1;
nodes = (
(179,48,l),
(-250,48,l),
(160,4,l)
);
},
{
closed = 1;
nodes = (
(220,145,l,{
name = hr04;
}),
(-209,145,l),
(201,101,l)
);
},
{
closed = 1;
nodes = (
(260,241,l),
(-168,241,l),
(242,197,l)
);
},
{
closed = 1;
nodes = (
(301,337,l),
(-127,337,l),
(282,293,l)
);
},
{
closed = 1;
nodes = (
(341,433,l),
(-86,433,l),
(323,389,l)
);
},
{
closed = 1;
nodes = (
(381,529,l),
(-45,529,l),
(363,486,l)
);
},
{
closed = 1;
nodes = (
(675,626,l),
(486,765,ls),
(483,767,o),
(479,769,o),
(475,769,cs),
(468,769,o),
(462,764,o),
(457,758,cs),
(394,684,ls),
(389,678,o),
(385,671,o),
(385,665,cs),
(385,662,o),
(386,658,o),
(389,655,cs),
(434,616,ls),
(441,610,o),
(445,607,o),
(460,604,cs),
(634,569,l,{
name = hr05;
})
);
},
{
closed = 1;
nodes = (
(366,700,o),
(378,710,o),
(388,723,c),
(-36,723,l),
(359,684,l)
);
},
{
closed = 1;
nodes = (
(375,626,o),
(367,633,o),
(361,642,c),
(-6,642,l),
(402,603,l)
);
}
);
width = 758;
}
);
unicode = 224;
},
{
glyphname = aring;
layers = (
{
layerId = master01;
shapes = (
{
closed = 1;
nodes = (
(701,0,l),
(662,529,l),
(414,529,l),
(192,0,l),
(365,0,l),
(396,81,l,{
name = hr01;
}),
(522,81,l),
(526,0,l)
);
},
{
closed = 1;
nodes = (
(522,376,l),
(522,224,l,{
name = hr03;
}),
(449,224,l),
(508,376,l)
);
},
{
closed = 1;
nodes = (
(179,48,l),
(-250,48,l),
(160,4,l)
);
},
{
closed = 1;
nodes = (
(220,145,l,{
name = hr04;
}),
(-209,145,l),
(201,101,l)
);
},
{
closed = 1;
nodes = (
(260,241,l),
(-168,241,l),
(242,197,l)
);
},
{
closed = 1;
nodes = (
(301,337,l),
(-127,337,l),
(282,293,l)
);
},
{
closed = 1;
nodes = (
(341,433,l),
(-86,433,l),
(323,389,l)
);
},
{
closed = 1;
nodes = (
(381,529,l),
(-45,529,l),
(363,486,l)
);
},
{
closed = 1;
nodes = (
(533,718,o),
(551,719,o),
(576,719,cs),
(613,719,l),
(601,652,ls),
(596,627,o),
(581,626,o),
(557,626,cs),
(517,626,l),
(529,694,ls,{
name = hr05;
})
);
},
{
closed = 1;
nodes = (
(501,788,o),
(452,737,o),
(452,637,cs),
(452,584,o),
(479,557,o),
(545,557,cs),
(630,557,o),
(679,608,o),
(679,708,cs),
(679,761,o),
(652,788,o),
(586,788,cs)
);
},
{
closed = 1;
nodes = (
(427,693,o),
(431,709,o),
(435,723,c,{
name = hr06;
}),
(127,723,l),
(425,677,l)
);
},
{
closed = 1;
nodes = (
(422,644,l,{
name = hr07;
}),
(129,644,l),
(427,598,l),
(424,609,o),
(422,622,o),
(422,637,c)
);
}
);
width = 758;
}
);
unicode = 229;
},
{
glyphname = atilde;
layers = (
{
layerId = master01;
shapes = (
{
closed = 1;
nodes = (
(701,0,l),
(662,529,l),
(414,529,l),
(192,0,l),
(365,0,l),
(396,81,l,{
name = hr01;
}),
(522,81,l),
(526,0,l)
);
},
{
closed = 1;
nodes = (
(522,376,l),
(522,224,l,{
name = hr03;
}),
(449,224,l),
(508,376,l)
);
},
{
closed = 1;
nodes = (
(179,48,l),
(-250,48,l),
(160,4,l)
);
},
{
closed = 1;
nodes = (
(220,145,l,{
name = hr04;
}),
(-209,145,l),
(201,101,l)
);
},
{
closed = 1;
nodes = (
(260,241,l),
(-168,241,l),
(242,197,l)
);
},
{
closed = 1;
nodes = (
(301,337,l),
(-127,337,l),
(282,293,l)
);
},
{
closed = 1;
nodes = (
(341,433,l),
(-86,433,l),
(323,389,l)
);
},
{
closed = 1;
nodes = (
(381,529,l),
(-45,529,l),
(363,486,l)
);
},
{
closed = 1;
nodes = (
(608,729,o),
(591,751,o),
(559,751,cs),
(527,751,o),
(521,744,o),
(385,659,c),
(419,578,l),
(504,618,l),
(530,595,o),
(547,573,o),
(579,573,cs),
(611,573,o),
(617,580,o),
(753,665,c),
(720,746,l),
(634,706,l,{
name = hr05;
})
);
},
{
closed = 1;
nodes = (
(65,723,l),
(359,677,l),
(431,723,l)
);
},
{
closed = 1;
nodes = (
(65,644,l),
(378,598,l),
(359,644,l)
);
}
);
width = 758;
}
);
unicode = 227;
},
{
glyphname = ae;
layers = (
{
layerId = master01;
shapes = (
{
closed = 1;
nodes = (
(855,311,l),
(678,311,l),
(673,379,l),
(880,379,l),
(927,529,l),
(414,529,l),
(192,0,l),
(365,0,l),
(396,81,l,{
name = hr01;
}),
(522,81,l),
(526,0,l,{
name = hr02;
}),
(836,0,l),
(862,147,l),
(690,147,l),
(685,215,l),
(838,215,l)
);
},
{
closed = 1;
nodes = (
(179,48,l),
(-250,48,l),
(160,4,l)
);
},
{
closed = 1;
nodes = (
(220,145,l),
(-209,145,l),
(201,101,l)
);
},
{
closed = 1;
nodes = (
(301,337,l),
(-127,337,l),
(282,293,l)
);
},
{
closed = 1;
nodes = (
(260,241,l),
(-168,241,l),
(242,197,l)
);
},
{
closed = 1;
nodes = (
(341,433,l),
(-86,433,l),
(323,389,l)
);
},
{
closed = 1;
nodes = (
(381,529,l),
(-45,529,l),
(363,486,l)
);
},
{
closed = 1;
nodes = (
(522,376,l),
(522,224,l,{
name = hr03;
}),
(449,224,l),
(508,376,l)
);
}
);
width = 935;
}
);
unicode = 230;
},
{
glyphname = b;
layers = (
{
layerId = master01;
shapes = (
{
closed = 1;
nodes = (
(470,0,ls),
(602,0,o),
(661,73,o),
(661,186,cs),
(661,228,o),
(642,262,o),
(595,277,c),
(596,283,l),
(641,304,o),
(680,363,o),
(680,435,cs,{
name = hr01;
}),
(680,492,o),
(648,529,o),
(566,529,cs),
(296,529,l),
(204,0,l)
);
},
{
closed = 1;
nodes = (
(487,205,o),
(492,196,o),
(492,182,cs,{
name = hr02;
}),
(492,156,o),
(484,131,o),
(457,131,cs),
(395,131,l),
(408,205,l),
(470,205,ls)
);
},
{
closed = 1;
nodes = (
(512,402,o),
(516,394,o),
(516,382,cs,{
name = hr03;
}),
(516,360,o),
(508,338,o),
(486,338,cs),
(431,338,l),
(442,402,l),
(496,402,ls)
);
},
{
closed = 1;
nodes = (
(180,48,l),
(-252,48,l),
(172,3,l)
);
},
{
closed = 1;
nodes = (
(214,241,l),
(-218,241,l),
(206,196,l)
);
},
{
closed = 1;
nodes = (
(231,337,l),
(-201,337,l),
(223,292,l)
);
},
{
closed = 1;
nodes = (
(248,433,l),
(-184,433,l),
(240,388,l)
);
},
{
closed = 1;
nodes = (
(264,529,l),
(-167,529,l),
(257,484,l)
);
},
{
closed = 1;
nodes = (
(197,145,l),
(-235,145,l),
(189,100,l)
);
}
);
width = 714;
}
);
unicode = 98;
},
{
glyphname = c;
layers = (
{
layerId = master01;
shapes = (
{
closed = 1;
nodes = (
(517,147,o),
(468,139,o),
(426,139,cs),
(409,139,o),
(392,139,o),
(371,144,c),
(410,358,ls),
(415,386,o),
(437,392,o),
(484,392,cs),
(504,392,o),
(543,388,o),
(579,378,c),
(630,517,l),
(604,533,o),
(535,539,o),
(497,539,cs),
(309,539,o),
(246,447,o),
(214,264,cs),
(207,224,o),
(202,187,o),
(202,156,cs),
(202,44,o),
(253,-12,o),
(400,-12,cs),
(455,-12,o),
(497,-7,o),
(539,11,c),
(555,161,l)
);
},
{
closed = 1;
nodes = (
(-220,241,l),
(174,199,l),
(175,212,o),
(177,226,o),
(179,241,c)
);
},
{
closed = 1;
nodes = (
(-202,337,l),
(189,295,l),
(198,337,l)
);
},
{
closed = 1;
nodes = (
(-216,145,l),
(177,103,l),
(175,116,o),
(173,130,o),
(173,145,c)
);
},
{
closed = 1;
nodes = (
(-162,433,l),
(216,393,l),
(221,407,o),
(227,420,o),
(233,433,c)
);
},
{
closed = 1;
nodes = (
(-129,48,l),
(220,11,l),
(209,21,o),
(201,34,o),
(194,48,c,{
name = hr01;
})
);
},
{
closed = 1;
nodes = (
(-28,529,l),
(279,496,l),
(291,509,o),
(305,520,o),
(320,529,c)
);
}
);
width = 620;
}
);
unicode = 99;
},
{
glyphname = ccedilla;
layers = (
{
layerId = master01;
shapes = (
{
closed = 1;
nodes = (
(517,147,o),
(468,139,o),
(426,139,cs),
(409,139,o),
(392,139,o),
(371,144,c),
(410,358,ls),
(415,386,o),
(437,392,o),
(484,392,cs),
(504,392,o),
(543,388,o),
(579,378,c),
(630,517,l),
(604,533,o),
(535,539,o),
(497,539,cs),
(309,539,o),
(246,447,o),
(214,264,cs),
(207,224,o),
(202,187,o),
(202,156,cs),
(202,44,o),
(253,-12,o),
(400,-12,cs),
(455,-12,o),
(497,-7,o),
(539,11,c),
(555,161,l)
);
},
{
closed = 1;
nodes = (
(-220,241,l),
(174,199,l),
(175,212,o),
(177,226,o),
(179,241,c)
);
},
{
closed = 1;
nodes = (
(-202,337,l),
(189,295,l),
(198,337,l)
);
},
{
closed = 1;
nodes = (
(-216,145,l),
(177,103,l),
(175,116,o),
(173,130,o),
(173,145,c)
);
},
{
closed = 1;
nodes = (
(-162,433,l),
(216,393,l),
(221,407,o),
(227,420,o),
(233,433,c)
);
},
{
closed = 1;
nodes = (
(-129,48,l),
(220,11,l),
(209,21,o),
(201,34,o),
(194,48,c,{
name = hr01;
})
);
},
{
closed = 1;
nodes = (
(-28,529,l),
(279,496,l),
(291,509,o),
(305,520,o),
(320,529,c)
);
},
{
closed = 1;
nodes = (
(333,-54,o),
(327,-58,o),
(301,-58,cs),
(270,-58,l),
(244,-146,l),
(273,-158,o),
(305,-165,o),
(339,-165,cs),
(422,-165,o),
(461,-114,o),
(461,-64,cs),
(461,-29,o),
(442,5,o),
(404,21,c,{
name = hr03;
}),
(346,21,l),
(338,-26,ls,{
name = hr02;
})
);
},
{
closed = 1;
nodes = (
(238,-58,l,{
name = hr04;
}),
(47,-58,l),
(229,-89,l)
);
},
{
closed = 1;
nodes = (
(217,-130,l),
(34,-130,l),
(208,-161,l)
);
}
);
width = 620;
}
);
unicode = 231;
},
{
glyphname = d;
layers = (
{
layerId = master01;
shapes = (
{
closed = 1;
nodes = (
(428,0,ls),
(616,0,o),
(681,81,o),
(713,264,cs),
(720,302,o),
(724,336,o),
(724,365,cs),
(724,478,o),
(669,529,o),
(521,529,cs),
(296,529,l),
(204,0,l,{
name = hr00;
})
);
},
{
closed = 1;
nodes = (
(528,383,o),
(549,380,o),
(549,357,cs),
(549,354,o),
(549,350,o),
(548,346,cs),
(519,181,ls),
(513,147,o),
(489,143,o),
(455,143,cs),
(397,143,l),
(439,383,l),
(497,383,ls)
);
},
{
closed = 1;
nodes = (
(179,48,l),
(-253,48,l),
(171,3,l)
);
},
{
closed = 1;
nodes = (
(213,241,l),
(-219,241,l),
(205,196,l)
);
},
{
closed = 1;
nodes = (
(230,337,l),
(-202,337,l),
(222,292,l)
);
},
{
closed = 1;
nodes = (
(247,433,l),
(-185,433,l),
(239,388,l)
);
},
{
closed = 1;
nodes = (
(263,529,l),
(-168,529,l),
(256,484,l)
);
},
{
closed = 1;
nodes = (
(196,145,l),
(-236,145,l),
(188,100,l)
);
}
);
width = 775;
}
);
unicode = 100;
},
{
glyphname = eth;
layers = (
{
layerId = master01;
shapes = (
{
closed = 1;
nodes = (
(348,220,l),
(450,220,ls),
(472,220,o),
(487,222,o),
(491,245,cs),
(503,306,l),
(363,306,l)
);
},
{
closed = 1;
nodes = (
(428,0,ls),
(616,0,o),
(681,81,o),
(713,264,cs),
(720,302,o),
(724,336,o),
(724,365,cs),
(724,478,o),
(669,529,o),
(521,529,cs),
(296,529,l),
(204,0,l,{
name = hr01;
})
);
},
{
closed = 1;
nodes = (
(528,383,o),
(549,380,o),
(549,357,cs),
(549,354,o),
(549,350,o),
(548,346,cs),
(519,181,ls),
(513,147,o),
(489,143,o),
(455,143,cs),
(397,143,l),
(439,383,l),
(497,383,ls)
);
},
{
closed = 1;
nodes = (
(179,48,l),
(-253,48,l),
(171,3,l)
);
},
{
closed = 1;
nodes = (
(213,241,l),
(-219,241,l),
(205,196,l)
);
},
{
closed = 1;
nodes = (
(230,337,l),
(-202,337,l),
(222,292,l)
);
},
{
closed = 1;
nodes = (
(247,433,l),
(-185,433,l),
(239,388,l)
);
},
{
closed = 1;
nodes = (
(263,529,l),
(-168,529,l),
(256,484,l)
);
},
{
closed = 1;
nodes = (
(196,145,l),
(-236,145,l),
(188,100,l)
);
}
);
width = 775;
}
);
unicode = 240;
},
{
glyphname = dcroat;
layers = (
{
layerId = master01;
shapes = (
{
closed = 1;
nodes = (
(348,220,l),
(450,220,ls),
(472,220,o),
(487,222,o),
(491,245,cs),
(503,306,l),
(363,306,l)
);
},
{
closed = 1;
nodes = (
(428,0,ls),
(616,0,o),
(681,81,o),
(713,264,cs),
(720,302,o),
(724,336,o),
(724,365,cs),
(724,478,o),
(669,529,o),
(521,529,cs),
(296,529,l),
(204,0,l,{
name = hr01;
})
);
},
{
closed = 1;
nodes = (
(528,383,o),
(549,380,o),
(549,357,cs),
(549,354,o),
(549,350,o),
(548,346,cs),
(519,181,ls),
(513,147,o),
(489,143,o),
(455,143,cs),
(397,143,l),
(439,383,l),
(497,383,ls)
);
},
{
closed = 1;
nodes = (
(179,48,l),
(-253,48,l),
(171,3,l)
);
},
{
closed = 1;
nodes = (
(213,241,l),
(-219,241,l),
(205,196,l)
);
},
{
closed = 1;
nodes = (
(230,337,l),
(-202,337,l),
(222,292,l)
);
},
{
closed = 1;
nodes = (
(247,433,l),
(-185,433,l),
(239,388,l)
);
},
{
closed = 1;
nodes = (
(263,529,l),
(-168,529,l),
(256,484,l)
);
},
{
closed = 1;
nodes = (
(196,145,l),
(-236,145,l),
(188,100,l)
);
}
);
width = 775;
}
);
unicode = 273;
},
{
glyphname = e;
layers = (
{
layerId = master01;
shapes = (
{
closed = 1;
nodes = (
(576,311,l),
(426,311,l),
(438,379,l),
(601,379,l),
(648,529,l),
(296,529,l),
(204,0,l),
(557,0,l),
(583,147,l),
(398,147,l),
(410,215,l),
(559,215,l,{
name = hr00;
})
);
},
{
closed = 1;
nodes = (
(179,48,l),
(-253,48,l),
(171,3,l)
);
},
{
closed = 1;
nodes = (
(213,241,l),
(-219,241,l),
(205,196,l)
);
},
{
closed = 1;
nodes = (
(230,337,l),
(-202,337,l),
(222,292,l)
);
},
{
closed = 1;
nodes = (
(247,433,l),
(-185,433,l),
(239,388,l)
);
},
{
closed = 1;
nodes = (
(263,529,l),
(-168,529,l),
(256,484,l)
);
},
{
closed = 1;
nodes = (
(196,145,l),
(-236,145,l),
(188,100,l)
);
}
);
width = 656;
}
);
unicode = 101;
},
{
glyphname = eacute;
layers = (
{
layerId = master01;
shapes = (
{
closed = 1;
nodes = (
(576,311,l),
(426,311,l),
(438,379,l),
(601,379,l),
(648,529,l),
(296,529,l),
(204,0,l),
(557,0,l),
(583,147,l),
(398,147,l),
(410,215,l),
(559,215,l)
);
},
{
closed = 1;
nodes = (
(179,48,l),
(-253,48,l),
(171,3,l)
);
},
{
closed = 1;
nodes = (
(213,241,l),
(-219,241,l),
(205,196,l)
);
},
{
closed = 1;
nodes = (
(230,337,l),
(-202,337,l),
(222,292,l)
);
},
{
closed = 1;
nodes = (
(247,433,l),
(-185,433,l),
(239,388,l)
);
},
{
closed = 1;
nodes = (
(263,529,l),
(-168,529,l),
(256,484,l)
);
},
{
closed = 1;
nodes = (
(196,145,l),
(-236,145,l),
(188,100,l)
);
},
{
closed = 1;
nodes = (
(573,607,o),
(577,610,o),
(584,616,cs),
(628,654,o),
(629,655,o),
(629,655,c),
(631,658,o),
(633,661,o),
(633,666,cs),
(633,671,o),
(630,677,o),
(624,684,cs),
(561,758,ls),
(556,764,o),
(550,769,o),
(543,769,cs),
(539,769,o),
(535,767,o),
(532,765,cs),
(343,626,l),
(384,569,l),
(558,604,ls,{
name = hr01;
})
);
},
{
closed = 1;
nodes = (
(423,723,l),
(10,723,l),
(370,684,l)
);
},
{
closed = 1;
nodes = (
(312,642,l),
(-101,642,l),
(259,603,l)
);
}
);
width = 656;
}
);
unicode = 233;
},
{
glyphname = ecircumflex;
layers = (
{
layerId = master01;
shapes = (
{
closed = 1;
nodes = (
(576,311,l),
(426,311,l),
(438,379,l),
(601,379,l),
(648,529,l),
(296,529,l),
(204,0,l),
(557,0,l),
(583,147,l),
(398,147,l),
(410,215,l),
(559,215,l)
);
},
{
closed = 1;
nodes = (
(179,48,l),
(-253,48,l),
(171,3,l)
);
},
{
closed = 1;
nodes = (
(213,241,l),
(-219,241,l),
(205,196,l)
);
},
{
closed = 1;
nodes = (
(230,337,l),
(-202,337,l),
(222,292,l)
);
},
{
closed = 1;
nodes = (
(247,433,l),
(-185,433,l),
(239,388,l)
);
},
{
closed = 1;
nodes = (
(263,529,l),
(-168,529,l),
(256,484,l)
);
},
{
closed = 1;
nodes = (
(196,145,l),
(-236,145,l),
(188,100,l)
);
},
{
closed = 1;
nodes = (
(476,770,o),
(470,767,o),
(465,761,cs),
(333,616,l),
(381,567,l),
(480,630,l),
(558,567,l),
(624,616,l),
(541,761,ls),
(538,766,o),
(535,770,o),
(528,770,cs),
(483,770,ls,{
name = hr01;
})
);
},
{
closed = 1;
nodes = (
(389,723,l),
(31,723,l),
(354,684,l)
);
},
{
closed = 1;
nodes = (
(316,642,l),
(-50,642,l),
(280,603,l)
);
}
);
width = 656;
}
);
unicode = 234;
},
{
glyphname = edieresis;
layers = (
{
layerId = master01;
shapes = (
{
closed = 1;
nodes = (
(576,311,l),
(426,311,l),
(438,379,l),
(601,379,l),
(648,529,l),
(296,529,l),
(204,0,l),
(557,0,l),
(583,147,l),
(398,147,l),
(410,215,l),
(559,215,l)
);
},
{
closed = 1;
nodes = (
(179,48,l),
(-253,48,l),
(171,3,l)
);
},
{
closed = 1;
nodes = (
(213,241,l),
(-219,241,l),
(205,196,l)
);
},
{
closed = 1;
nodes = (
(230,337,l),
(-202,337,l),
(222,292,l)
);
},
{
closed = 1;
nodes = (
(247,433,l),
(-185,433,l),
(239,388,l)
);
},
{
closed = 1;
nodes = (
(263,529,l),
(-168,529,l),
(256,484,l)
);
},
{
closed = 1;
nodes = (
(196,145,l),
(-236,145,l),
(188,100,l)
);
},
{
closed = 1;
nodes = (
(533,738,o),
(508,709,o),
(508,630,cs),
(508,596,o),
(524,582,o),
(572,582,cs),
(638,582,o),
(663,611,o),
(663,690,cs),
(663,724,o),
(647,738,o),
(599,738,cs,{
name = hr01;
})
);
},
{
closed = 1;
nodes = (
(325,738,o),
(300,709,o),
(300,630,cs),
(300,596,o),
(316,582,o),
(364,582,cs),
(429,582,o),
(455,611,o),
(455,690,cs),
(455,724,o),
(438,738,o),
(391,738,cs)
);
},
{
closed = 1;
nodes = (
(-29,723,l),
(273,677,l),
(276,695,o),
(280,710,o),
(287,723,c,{
name = hr02;
})
);
},
{
closed = 1;
nodes = (
(270,644,l,{
name = hr03;
}),
(-29,644,l),
(273,598,l),
(271,607,o),
(270,618,o),
(270,630,c)
);
}
);
width = 656;
}
);
unicode = 235;
},
{
glyphname = egrave;
layers = (
{
layerId = master01;
shapes = (
{
closed = 1;
nodes = (
(576,311,l),
(426,311,l),
(438,379,l),
(601,379,l),
(648,529,l),
(296,529,l),
(204,0,l),
(557,0,l),
(583,147,l),
(398,147,l),
(410,215,l),
(559,215,l)
);
},
{
closed = 1;
nodes = (
(179,48,l),
(-253,48,l),
(171,3,l)
);
},
{
closed = 1;
nodes = (
(213,241,l),
(-219,241,l),
(205,196,l)
);
},
{
closed = 1;
nodes = (
(230,337,l),
(-202,337,l),
(222,292,l)
);
},
{
closed = 1;
nodes = (
(247,433,l),
(-185,433,l),
(239,388,l)
);
},
{
closed = 1;
nodes = (
(263,529,l),
(-168,529,l),
(256,484,l)
);
},
{
closed = 1;
nodes = (
(196,145,l),
(-236,145,l),
(188,100,l)
);
},
{
closed = 1;
nodes = (
(624,626,l),
(435,765,ls),
(432,767,o),
(428,769,o),
(424,769,cs),
(417,769,o),
(411,764,o),
(406,758,cs),
(343,684,ls),
(338,678,o),
(334,671,o),
(334,665,cs),
(334,662,o),
(335,658,o),
(338,655,cs),
(383,616,ls),
(390,610,o),
(394,607,o),
(409,604,cs),
(583,569,l,{
name = hr01;
})
);
},
{
closed = 1;
nodes = (
(315,700,o),
(327,710,o),
(337,723,c),
(-87,723,l),
(308,684,l)
);
},
{
closed = 1;
nodes = (
(324,626,o),
(316,633,o),
(310,642,c),
(-57,642,l),
(351,603,l)
);
}
);
width = 656;
}
);
unicode = 232;
},
{
glyphname = f;
layers = (
{
layerId = master01;
shapes = (
{
closed = 1;
nodes = (
(558,311,l),
(426,311,l),
(438,379,l),
(583,379,l),
(629,529,l),
(296,529,l),
(204,0,l),
(372,0,l),
(406,192,l),
(538,192,l,{
name = hr00;
})
);
},
{
closed = 1;
nodes = (
(180,48,l),
(-252,48,l),
(172,3,l)
);
},
{
closed = 1;
nodes = (
(214,241,l),
(-218,241,l),
(206,196,l)
);
},
{
closed = 1;
nodes = (
(231,337,l),
(-201,337,l),
(223,292,l)
);
},
{
closed = 1;
nodes = (
(248,433,l),
(-184,433,l),
(240,388,l)
);
},
{
closed = 1;
nodes = (
(264,529,l),
(-167,529,l),
(257,484,l)
);
},
{
closed = 1;
nodes = (
(197,145,l),
(-235,145,l),
(189,100,l)
);
}
);
width = 591;
}
);
unicode = 102;
},
{
glyphname = g;
layers = (
{
layerId = master01;
shapes = (
{
closed = 1;
nodes = (
(462,131,o),
(440,128,o),
(412,128,cs),
(366,128,l),
(408,358,ls),
(413,386,o),
(442,392,o),
(499,392,cs),
(525,392,o),
(573,388,o),
(618,378,c),
(669,517,l),
(637,533,o),
(556,539,o),
(513,539,cs),
(307,539,o),
(244,447,o),
(212,264,cs),
(205,224,o),
(201,188,o),
(201,158,cs),
(201,45,o),
(252,-12,o),
(398,-12,cs),
(454,-12,o),
(531,-1,o),
(605,28,c),
(655,311,l),
(453,311,l),
(433,197,l),
(474,197,l),
(467,158,ls)
);
},
{
closed = 1;
nodes = (
(-222,241,l),
(172,199,l),
(173,212,o),
(175,226,o),
(177,241,c)
);
},
{
closed = 1;
nodes = (
(-204,337,l),
(187,295,l),
(196,337,l)
);
},
{
closed = 1;
nodes = (
(-218,145,l),
(175,103,l),
(173,116,o),
(171,130,o),
(171,145,c,{
name = hr01;
})
);
},
{
closed = 1;
nodes = (
(-164,433,l),
(214,393,l),
(219,407,o),
(225,420,o),
(231,433,c)
);
},
{
closed = 1;
nodes = (
(-131,48,l),
(218,11,l),
(207,21,o),
(199,34,o),
(192,48,c,{
name = hr02;
})
);
},
{
closed = 1;
nodes = (
(-30,529,l),
(277,496,l),
(289,509,o),
(303,520,o),
(318,529,c)
);
}
);
width = 696;
}
);
unicode = 103;
},
{
glyphname = h;
layers = (
{
layerId = master01;
shapes = (
{
closed = 1;
nodes = (
(653,0,l),
(746,529,l),
(577,529,l),
(545,346,l),
(432,346,l),
(465,529,l),
(296,529,l),
(204,0,l),
(372,0,l),
(404,183,l),
(516,183,l),
(485,0,l,{
name = hr00;
})
);
},
{
closed = 1;
nodes = (
(179,48,l),
(-253,48,l),
(171,3,l)
);
},
{
closed = 1;
nodes = (
(213,241,l),
(-219,241,l),
(205,196,l)
);
},
{
closed = 1;
nodes = (
(230,337,l),
(-202,337,l),
(222,292,l)
);
},
{
closed = 1;
nodes = (
(247,433,l),
(-185,433,l),
(239,388,l)
);
},
{
closed = 1;
nodes = (
(263,529,l),
(-168,529,l),
(256,484,l)
);
},
{
closed = 1;
nodes = (
(196,145,l),
(-236,145,l),
(188,100,l)
);
}
);
width = 772;
}
);
unicode = 104;
},
{
glyphname = hbar;
layers = (
{
layerId = master01;
shapes = (
{
closed = 1;
nodes = (
(653,0,l),
(746,529,l),
(577,529,l),
(545,346,l),
(432,346,l),
(465,529,l),
(296,529,l),
(204,0,l),
(372,0,l),
(404,183,l),
(516,183,l),
(485,0,l,{
name = hr00;
})
);
},
{
closed = 1;
nodes = (
(179,48,l),
(-253,48,l),
(171,3,l)
);
},
{
closed = 1;
nodes = (
(213,241,l),
(-219,241,l),
(205,196,l)
);
},
{
closed = 1;
nodes = (
(230,337,l),
(-202,337,l),
(222,292,l)
);
},
{
closed = 1;
nodes = (
(263,529,l),
(-168,529,l),
(256,484,l)
);
},
{
closed = 1;
nodes = (
(196,145,l),
(-236,145,l),
(188,100,l)
);
},
{
closed = 1;
nodes = (
(821,387,l),
(830,433,l),
(179,433,l),
(171,387,l)
);
}
);
width = 772;
}
);
unicode = 295;
},
{
glyphname = i;
layers = (
{
layerId = master01;
shapes = (
{
closed = 1;
nodes = (
(379,0,l),
(472,529,l),
(296,529,l),
(204,0,l,{
name = hr00;
})
);
},
{
closed = 1;
nodes = (
(179,48,l),
(-253,48,l),
(171,3,l)
);
},
{
closed = 1;
nodes = (
(213,241,l),
(-219,241,l),
(205,196,l)
);
},
{
closed = 1;
nodes = (
(230,337,l),
(-202,337,l),
(222,292,l)
);
},
{
closed = 1;
nodes = (
(247,433,l),
(-185,433,l),
(239,388,l)
);
},
{
closed = 1;
nodes = (
(263,529,l),
(-168,529,l),
(256,484,l)
);
},
{
closed = 1;
nodes = (
(196,145,l),
(-236,145,l),
(188,100,l)
);
}
);
width = 489;
}
);
unicode = 105;
},
{
glyphname = dotlessi;
layers = (
{
layerId = master01;
shapes = (
{
closed = 1;
nodes = (
(379,0,l),
(472,529,l),
(296,529,l),
(204,0,l,{
name = hr00;
})
);
},
{
closed = 1;
nodes = (
(179,48,l),
(-253,48,l),
(171,3,l)
);
},
{
closed = 1;
nodes = (
(213,241,l),
(-219,241,l),
(205,196,l)
);
},
{
closed = 1;
nodes = (
(230,337,l),
(-202,337,l),
(222,292,l)
);
},
{
closed = 1;
nodes = (
(247,433,l),
(-185,433,l),
(239,388,l)
);
},
{
closed = 1;
nodes = (
(263,529,l),
(-168,529,l),
(256,484,l)
);
},
{
closed = 1;
nodes = (
(196,145,l),
(-236,145,l),
(188,100,l)
);
}
);
width = 489;
}
);
unicode = 305;
},
{
glyphname = iacute;
layers = (
{
layerId = master01;
shapes = (
{
closed = 1;
nodes = (
(379,0,l),
(472,529,l),
(296,529,l),
(204,0,l)
);
},
{
closed = 1;
nodes = (
(179,48,l),
(-253,48,l),
(171,3,l)
);
},
{
closed = 1;
nodes = (
(213,241,l),
(-219,241,l),
(205,196,l)
);
},
{
closed = 1;
nodes = (
(230,337,l),
(-202,337,l),
(222,292,l)
);
},
{
closed = 1;
nodes = (
(247,433,l),
(-185,433,l),
(239,388,l)
);
},
{
closed = 1;
nodes = (
(263,529,l),
(-168,529,l),
(256,484,l)
);
},
{
closed = 1;
nodes = (
(196,145,l),
(-236,145,l),
(188,100,l)
);
},
{
closed = 1;
nodes = (
(510,607,o),
(514,610,o),
(521,616,cs),
(565,654,o),
(566,655,o),
(566,655,c),
(568,658,o),
(570,661,o),
(570,666,cs),
(570,671,o),
(567,677,o),
(561,684,cs),
(498,758,ls),
(493,764,o),
(487,769,o),
(480,769,cs),
(476,769,o),
(472,767,o),
(469,765,cs),
(280,626,l),
(321,569,l),
(495,604,ls,{
name = hr01;
})
);
},
{
closed = 1;
nodes = (
(360,723,l),
(-53,723,l),
(307,684,l)
);
},
{
closed = 1;
nodes = (
(249,642,l),
(-164,642,l),
(196,603,l)
);
}
);
width = 489;
}
);
unicode = 237;
},
{
glyphname = icircumflex;
layers = (
{
layerId = master01;
shapes = (
{
closed = 1;
nodes = (
(379,0,l),
(472,529,l),
(296,529,l),
(204,0,l)
);
},
{
closed = 1;
nodes = (
(179,48,l),
(-253,48,l),
(171,3,l)
);
},
{
closed = 1;
nodes = (
(213,241,l),
(-219,241,l),
(205,196,l)
);
},
{
closed = 1;
nodes = (
(230,337,l),
(-202,337,l),
(222,292,l)
);
},
{
closed = 1;
nodes = (
(247,433,l),
(-185,433,l),
(239,388,l)
);
},
{
closed = 1;
nodes = (
(263,529,l),
(-168,529,l),
(256,484,l)
);
},
{
closed = 1;
nodes = (
(196,145,l),
(-236,145,l),
(188,100,l)
);
},
{
closed = 1;
nodes = (
(393,770,o),
(387,767,o),
(382,761,cs),
(250,616,l),
(298,567,l),
(397,630,l),
(475,567,l),
(541,616,l),
(458,761,ls),
(455,766,o),
(452,770,o),
(445,770,cs),
(400,770,ls,{
name = hr01;
})
);
},
{
closed = 1;
nodes = (
(306,723,l),
(-52,723,l),
(271,684,l)
);
},
{
closed = 1;
nodes = (
(233,642,l),
(-133,642,l),
(197,603,l)
);
}
);
width = 489;
}
);
unicode = 238;
},
{
glyphname = idieresis;
layers = (
{
layerId = master01;
shapes = (
{
closed = 1;
nodes = (
(379,0,l),
(472,529,l),
(296,529,l),
(204,0,l)
);
},
{
closed = 1;
nodes = (
(179,48,l),
(-253,48,l),
(171,3,l)
);
},
{
closed = 1;
nodes = (
(213,241,l),
(-219,241,l),
(205,196,l)
);
},
{
closed = 1;
nodes = (
(230,337,l),
(-202,337,l),
(222,292,l)
);
},
{
closed = 1;
nodes = (
(247,433,l),
(-185,433,l),
(239,388,l)
);
},
{
closed = 1;
nodes = (
(263,529,l),
(-168,529,l),
(256,484,l)
);
},
{
closed = 1;
nodes = (
(196,145,l),
(-236,145,l),
(188,100,l)
);
},
{
closed = 1;
nodes = (
(460,738,o),
(435,709,o),
(435,630,cs),
(435,596,o),
(451,582,o),
(499,582,cs),
(565,582,o),
(590,611,o),
(590,690,cs),
(590,724,o),
(574,738,o),
(526,738,cs,{
name = hr01;
})
);
},
{
closed = 1;
nodes = (
(252,738,o),
(227,709,o),
(227,630,cs),
(227,596,o),
(243,582,o),
(291,582,cs),
(356,582,o),
(382,611,o),
(382,690,cs),
(382,724,o),
(365,738,o),
(318,738,cs)
);
},
{
closed = 1;
nodes = (
(-102,723,l),
(200,677,l),
(203,695,o),
(207,710,o),
(214,723,c,{
name = hr02;
})
);
},
{
closed = 1;
nodes = (
(197,644,l,{
name = hr03;
}),
(-102,644,l),
(200,598,l),
(198,607,o),
(197,618,o),
(197,630,c)
);
}
);
width = 489;
}
);
unicode = 239;
},
{
glyphname = igrave;
layers = (
{
layerId = master01;
shapes = (
{
closed = 1;
nodes = (
(379,0,l),
(472,529,l),
(296,529,l),
(204,0,l)
);
},
{
closed = 1;
nodes = (
(179,48,l),
(-253,48,l),
(171,3,l)
);
},
{
closed = 1;
nodes = (
(213,241,l),
(-219,241,l),
(205,196,l)
);
},
{
closed = 1;
nodes = (
(230,337,l),
(-202,337,l),
(222,292,l)
);
},
{
closed = 1;
nodes = (
(247,433,l),
(-185,433,l),
(239,388,l)
);
},
{
closed = 1;
nodes = (
(263,529,l),
(-168,529,l),
(256,484,l)
);
},
{
closed = 1;
nodes = (
(196,145,l),
(-236,145,l),
(188,100,l)
);
},
{
closed = 1;
nodes = (
(540,626,l),
(351,765,ls),
(348,767,o),
(344,769,o),
(340,769,cs),
(333,769,o),
(327,764,o),
(322,758,cs),
(259,684,ls),
(254,678,o),
(250,671,o),
(250,665,cs),
(250,662,o),
(251,658,o),
(254,655,cs),
(299,616,ls),
(306,610,o),
(310,607,o),
(325,604,cs),
(499,569,l,{
name = hr01;
})
);
},
{
closed = 1;
nodes = (
(231,700,o),
(243,710,o),
(253,723,c),
(-171,723,l),
(224,684,l)
);
},
{
closed = 1;
nodes = (
(240,626,o),
(232,633,o),
(226,642,c),
(-141,642,l),
(267,603,l)
);
}
);
width = 489;
}
);
unicode = 236;
},
{
glyphname = j;
layers = (
{
layerId = master01;
shapes = (
{
closed = 1;
nodes = (
(321,0,ls),
(403,0,o),
(457,47,o),
(474,141,cs),
(542,529,l),
(309,529,l),
(282,379,l),
(347,379,l),
(310,163,ls),
(307,145,o),
(290,143,o),
(273,143,cs),
(202,143,l),
(176,0,l,{
name = hr00;
})
);
},
{
closed = 1;
nodes = (
(153,48,l),
(-279,48,l),
(145,3,l)
);
},
{
closed = 1;
nodes = (
(293,241,l),
(-139,241,l),
(285,196,l)
);
},
{
closed = 1;
nodes = (
(310,337,l),
(-122,337,l),
(302,292,l)
);
},
{
closed = 1;
nodes = (
(260,433,l),
(-172,433,l),
(252,388,l)
);
},
{
closed = 1;
nodes = (
(277,529,l),
(-154,529,l),
(270,484,l)
);
},
{
closed = 1;
nodes = (
(171,145,l),
(-261,145,l),
(163,100,l)
);
}
);
width = 534;
}
);
unicode = 106;
},
{
glyphname = dotlessj;
layers = (
{
layerId = master01;
shapes = (
{
closed = 1;
nodes = (
(321,0,ls),
(403,0,o),
(457,47,o),
(474,141,cs),
(542,529,l),
(309,529,l),
(282,379,l),
(347,379,l),
(310,163,ls),
(307,145,o),
(290,143,o),
(273,143,cs),
(202,143,l),
(176,0,l,{
name = hr00;
})
);
},
{
closed = 1;
nodes = (
(153,48,l),
(-279,48,l),
(145,3,l)
);
},
{
closed = 1;
nodes = (
(293,241,l),
(-139,241,l),
(285,196,l)
);
},
{
closed = 1;
nodes = (
(310,337,l),
(-122,337,l),
(302,292,l)
);
},
{
closed = 1;
nodes = (
(260,433,l),
(-172,433,l),
(252,388,l)
);
},
{
closed = 1;
nodes = (
(277,529,l),
(-154,529,l),
(270,484,l)
);
},
{
closed = 1;
nodes = (
(171,145,l),
(-261,145,l),
(163,100,l)
);
}
);
width = 534;
}
);
unicode = 567;
},
{
glyphname = k;
layers = (
{
layerId = master01;
shapes = (
{
closed = 1;
nodes = (
(638,0,l),
(559,270,l),
(727,529,l),
(544,529,l),
(441,367,l),
(436,367,l),
(465,529,l),
(296,529,l),
(204,0,l),
(372,0,l),
(402,173,l),
(408,173,l),
(455,0,l,{
name = hr00;
})
);
},
{
closed = 1;
nodes = (
(179,48,l),
(-253,48,l),
(171,3,l)
);
},
{
closed = 1;
nodes = (
(213,241,l),
(-219,241,l),
(205,196,l)
);
},
{
closed = 1;
nodes = (
(230,337,l),
(-202,337,l),
(222,292,l)
);
},
{
closed = 1;
nodes = (
(247,433,l),
(-185,433,l),
(239,388,l)
);
},
{
closed = 1;
nodes = (
(263,529,l),
(-168,529,l),
(256,484,l)
);
},
{
closed = 1;
nodes = (
(196,145,l),
(-236,145,l),
(188,100,l)
);
}
);
width = 697;
}
);
unicode = 107;
},
{
glyphname = l;
layers = (
{
layerId = master01;
shapes = (
{
closed = 1;
nodes = (
(555,147,l),
(405,147,l),
(472,529,l),
(296,529,l),
(204,0,l),
(529,0,l,{
name = hr00;
})
);
},
{
closed = 1;
nodes = (
(179,48,l),
(-253,48,l),
(171,3,l)
);
},
{
closed = 1;
nodes = (
(213,241,l),
(-219,241,l),
(205,196,l)
);
},
{
closed = 1;
nodes = (
(230,337,l),
(-202,337,l),
(222,292,l)
);
},
{
closed = 1;
nodes = (
(247,433,l),
(-185,433,l),
(239,388,l)
);
},
{
closed = 1;
nodes = (
(263,529,l),
(-168,529,l),
(256,484,l)
);
},
{
closed = 1;
nodes = (
(196,145,l),
(-236,145,l),
(188,100,l)
);
}
);
width = 567;
}
);
unicode = 108;
},
{
glyphname = ldot;
layers = (
{
layerId = master01;
shapes = (
{
closed = 1;
nodes = (
(484,248,o),
(503,233,o),
(560,233,cs),
(643,233,o),
(667,287,o),
(667,358,cs),
(667,397,o),
(648,413,o),
(592,413,cs),
(508,413,o),
(484,357,o),
(484,286,cs,{
name = hr00;
})
);
},
{
ref = l;
}
);
width = 567;
}
);
unicode = 320;
},
{
glyphname = lslash;
layers = (
{
layerId = master01;
shapes = (
{
closed = 1;
nodes = (
(271,216,l),
(505,293,ls),
(528,300,o),
(545,307,o),
(545,326,cs),
(545,329,o),
(544,333,o),
(519,411,c),
(293,336,l)
);
},
{
closed = 1;
nodes = (
(555,147,l),
(405,147,l),
(472,529,l),
(296,529,l),
(204,0,l),
(529,0,l,{
name = hr01;
})
);
},
{
closed = 1;
nodes = (
(179,48,l),
(-253,48,l),
(171,3,l)
);
},
{
closed = 1;
nodes = (
(213,241,l),
(-219,241,l),
(205,196,l)
);
},
{
closed = 1;
nodes = (
(230,337,l),
(-202,337,l),
(222,292,l)
);
},
{
closed = 1;
nodes = (
(247,433,l),
(-185,433,l),
(239,388,l)
);
},
{
closed = 1;
nodes = (
(263,529,l),
(-168,529,l),
(256,484,l)
);
},
{
closed = 1;
nodes = (
(196,145,l),
(-236,145,l),
(188,100,l)
);
}
);
width = 567;
}
);
unicode = 322;
},
{
glyphname = m;
layers = (
{
layerId = master01;
shapes = (
{
closed = 1;
nodes = (
(665,215,l),
(670,215,l),
(643,0,l),
(815,0,l),
(879,529,l),
(662,529,l),
(561,281,l),
(557,281,l),
(542,529,l),
(325,529,l),
(204,0,l),
(375,0,l),
(423,215,l),
(428,215,l),
(443,0,l),
(575,0,l,{
name = hr00;
})
);
},
{
closed = 1;
nodes = (
(181,48,l),
(-253,48,l),
(171,3,l)
);
},
{
closed = 1;
nodes = (
(204,145,l),
(-230,145,l),
(193,100,l)
);
},
{
closed = 1;
nodes = (
(226,241,l),
(-207,241,l),
(216,196,l)
);
},
{
closed = 1;
nodes = (
(247,337,l),
(-184,337,l),
(236,292,l)
);
},
{
closed = 1;
nodes = (
(269,433,l),
(-161,433,l),
(259,388,l)
);
},
{
closed = 1;
nodes = (
(292,529,l),
(-138,529,l),
(281,484,l)
);
}
);
width = 901;
}
);
unicode = 109;
},
{
glyphname = n;
layers = (
{
layerId = master01;
shapes = (
{
closed = 1;
nodes = (
(650,0,l),
(743,529,l),
(576,529,l),
(542,332,l),
(536,332,l),
(432,529,l),
(296,529,l),
(204,0,l),
(372,0,l),
(407,198,l),
(411,198,l),
(514,0,l,{
name = hr00;
})
);
},
{
closed = 1;
nodes = (
(179,48,l),
(-253,48,l),
(171,3,l)
);
},
{
closed = 1;
nodes = (
(213,241,l),
(-219,241,l),
(205,196,l)
);
},
{
closed = 1;
nodes = (
(230,337,l),
(-202,337,l),
(222,292,l)
);
},
{
closed = 1;
nodes = (
(247,433,l),
(-185,433,l),
(239,388,l)
);
},
{
closed = 1;
nodes = (
(263,529,l),
(-168,529,l),
(256,484,l)
);
},
{
closed = 1;
nodes = (
(196,145,l),
(-236,145,l),
(188,100,l)
);
}
);
width = 769;
}
);
unicode = 110;
},
{
glyphname = ntilde;
layers = (
{
layerId = master01;
shapes = (
{
closed = 1;
nodes = (
(650,0,l),
(743,529,l),
(576,529,l),
(542,332,l),
(536,332,l),
(432,529,l),
(296,529,l),
(204,0,l),
(372,0,l),
(407,198,l),
(411,198,l),
(514,0,l)
);
},
{
closed = 1;
nodes = (
(179,48,l),
(-253,48,l),
(171,3,l)
);
},
{
closed = 1;
nodes = (
(213,241,l),
(-219,241,l),
(205,196,l)
);
},
{
closed = 1;
nodes = (
(230,337,l),
(-202,337,l),
(222,292,l)
);
},
{
closed = 1;
nodes = (
(247,433,l),
(-185,433,l),
(239,388,l)
);
},
{
closed = 1;
nodes = (
(263,529,l),
(-168,529,l),
(256,484,l)
);
},
{
closed = 1;
nodes = (
(196,145,l),
(-236,145,l),
(188,100,l)
);
},
{
closed = 1;
nodes = (
(573,729,o),
(556,751,o),
(524,751,cs),
(492,751,o),
(486,744,o),
(350,659,c),
(384,578,l),
(469,618,l),
(495,595,o),
(512,573,o),
(544,573,cs),
(576,573,o),
(582,580,o),
(718,665,c),
(685,746,l),
(599,706,l,{
name = hr01;
})
);
},
{
closed = 1;
nodes = (
(30,723,l),
(324,677,l),
(396,723,l)
);
},
{
closed = 1;
nodes = (
(30,644,l),
(343,598,l),
(324,644,l)
);
}
);
width = 769;
}
);
unicode = 241;
},
{
glyphname = eng;
layers = (
{
layerId = master01;
shapes = (
{
closed = 1;
nodes = (
(488,-190,ls),
(570,-190,o),
(624,-143,o),
(641,-49,cs),
(743,529,l),
(576,529,l),
(542,332,l),
(536,332,l),
(432,529,l),
(296,529,l),
(204,0,l),
(372,0,l),
(407,198,l),
(411,198,l),
(497,32,l),
(487,-27,ls),
(484,-45,o),
(467,-47,o),
(450,-47,cs),
(369,-47,l),
(343,-190,l,{
name = hr00;
})
);
},
{
closed = 1;
nodes = (
(196,145,l),
(-236,145,l),
(188,100,l)
);
},
{
closed = 1;
nodes = (
(338,-45,l),
(-94,-45,l),
(330,-90,l)
);
},
{
closed = 1;
nodes = (
(230,337,l),
(-202,337,l),
(222,292,l)
);
},
{
closed = 1;
nodes = (
(213,241,l),
(-219,241,l),
(205,196,l)
);
},
{
closed = 1;
nodes = (
(179,48,l),
(-253,48,l),
(171,3,l)
);
},
{
closed = 1;
nodes = (
(247,433,l),
(-185,433,l),
(239,388,l)
);
},
{
closed = 1;
nodes = (
(320,-142,l),
(-112,-142,l),
(312,-187,l)
);
},
{
closed = 1;
nodes = (
(263,529,l),
(-168,529,l),
(256,484,l)
);
}
);
width = 769;
}
);
unicode = 331;
},
{
glyphname = o;
layers = (
{
layerId = master01;
shapes = (
{
closed = 1;
nodes = (
(220,225,o),
(216,189,o),
(216,158,cs),
(216,45,o),
(267,-12,o),
(412,-12,cs),
(599,-12,o),
(666,81,o),
(698,264,cs),
(705,303,o),
(709,338,o),
(709,368,cs),
(709,482,o),
(656,539,o),
(509,539,cs),
(325,539,o),
(259,447,o),
(227,264,cs)
);
},
{
closed = 1;
nodes = (
(424,383,o),
(449,387,o),
(481,387,cs),
(542,387,l),
(504,178,ls),
(497,143,o),
(475,140,o),
(441,140,cs),
(382,140,l),
(419,350,l)
);
},
{
closed = 1;
nodes = (
(-207,241,l),
(187,199,l),
(188,212,o),
(190,226,o),
(192,241,c)
);
},
{
closed = 1;
nodes = (
(-189,337,l),
(202,295,l),
(211,337,l)
);
},
{
closed = 1;
nodes = (
(-203,145,l),
(190,103,l),
(188,116,o),
(186,130,o),
(186,145,c)
);
},
{
closed = 1;
nodes = (
(-149,433,l),
(229,393,l),
(234,407,o),
(240,420,o),
(246,433,c)
);
},
{
closed = 1;
nodes = (
(-116,48,l),
(233,11,l),
(222,21,o),
(214,34,o),
(207,48,c,{
name = hr01;
})
);
},
{
closed = 1;
nodes = (
(-15,529,l),
(292,496,l),
(304,509,o),
(318,520,o),
(333,529,c)
);
}
);
width = 759;
}
);
unicode = 111;
},
{
glyphname = oacute;
layers = (
{
layerId = master01;
shapes = (
{
closed = 1;
nodes = (
(220,225,o),
(216,189,o),
(216,158,cs),
(216,45,o),
(267,-12,o),
(412,-12,cs),
(599,-12,o),
(666,81,o),
(698,264,cs),
(705,303,o),
(709,338,o),
(709,368,cs),
(709,482,o),
(656,539,o),
(509,539,cs),
(325,539,o),
(259,447,o),
(227,264,cs)
);
},
{
closed = 1;
nodes = (
(424,383,o),
(449,387,o),
(481,387,cs),
(542,387,l),
(504,178,ls),
(497,143,o),
(475,140,o),
(441,140,cs),
(382,140,l),
(419,350,l)
);
},
{
closed = 1;
nodes = (
(-207,241,l),
(187,199,l),
(188,212,o),
(190,226,o),
(192,241,c)
);
},
{
closed = 1;
nodes = (
(-189,337,l),
(202,295,l),
(211,337,l)
);
},
{
closed = 1;
nodes = (
(-203,145,l),
(190,103,l),
(188,116,o),
(186,130,o),
(186,145,c)
);
},
{
closed = 1;
nodes = (
(-149,433,l),
(229,393,l),
(234,407,o),
(240,420,o),
(246,433,c)
);
},
{
closed = 1;
nodes = (
(-116,48,l),
(233,11,l),
(222,21,o),
(214,34,o),
(207,48,c,{
name = hr01;
})
);
},
{
closed = 1;
nodes = (
(-15,529,l),
(292,496,l),
(304,509,o),
(318,520,o),
(333,529,c)
);
},
{
closed = 1;
nodes = (
(636,607,o),
(640,610,o),
(647,616,cs),
(691,654,o),
(692,655,o),
(692,655,c),
(694,658,o),
(696,661,o),
(696,666,cs),
(696,671,o),
(693,677,o),
(687,684,cs),
(624,758,ls),
(619,764,o),
(613,769,o),
(606,769,cs),
(602,769,o),
(598,767,o),
(595,765,cs),
(406,626,l),
(447,569,l),
(621,604,ls,{
name = hr02;
})
);
},
{
closed = 1;
nodes = (
(486,723,l),
(73,723,l),
(433,684,l)
);
},
{
closed = 1;
nodes = (
(375,642,l),
(-38,642,l),
(322,603,l)
);
}
);
width = 759;
}
);
unicode = 243;
},
{
glyphname = ocircumflex;
layers = (
{
layerId = master01;
shapes = (
{
closed = 1;
nodes = (
(220,225,o),
(216,189,o),
(216,158,cs),
(216,45,o),
(267,-12,o),
(412,-12,cs),
(599,-12,o),
(666,81,o),
(698,264,cs),
(705,303,o),
(709,338,o),
(709,368,cs),
(709,482,o),
(656,539,o),
(509,539,cs),
(325,539,o),
(259,447,o),
(227,264,cs)
);
},
{
closed = 1;
nodes = (
(424,383,o),
(449,387,o),
(481,387,cs),
(542,387,l),
(504,178,ls),
(497,143,o),
(475,140,o),
(441,140,cs),
(382,140,l),
(419,350,l)
);
},
{
closed = 1;
nodes = (
(-207,241,l),
(187,199,l),
(188,212,o),
(190,226,o),
(192,241,c)
);
},
{
closed = 1;
nodes = (
(-189,337,l),
(202,295,l),
(211,337,l)
);
},
{
closed = 1;
nodes = (
(-203,145,l),
(190,103,l),
(188,116,o),
(186,130,o),
(186,145,c)
);
},
{
closed = 1;
nodes = (
(-149,433,l),
(229,393,l),
(234,407,o),
(240,420,o),
(246,433,c)
);
},
{
closed = 1;
nodes = (
(-116,48,l),
(233,11,l),
(222,21,o),
(214,34,o),
(207,48,c,{
name = hr01;
})
);
},
{
closed = 1;
nodes = (
(-15,529,l),
(292,496,l),
(304,509,o),
(318,520,o),
(333,529,c)
);
},
{
closed = 1;
nodes = (
(518,770,o),
(512,767,o),
(507,761,cs),
(375,616,l),
(423,567,l),
(522,630,l),
(600,567,l),
(666,616,l),
(583,761,ls),
(580,766,o),
(577,770,o),
(570,770,cs),
(525,770,ls,{
name = hr02;
})
);
},
{
closed = 1;
nodes = (
(431,723,l),
(73,723,l),
(396,684,l)
);
},
{
closed = 1;
nodes = (
(358,642,l),
(-8,642,l),
(322,603,l)
);
}
);
width = 759;
}
);
unicode = 244;
},
{
glyphname = odieresis;
layers = (
{
layerId = master01;
shapes = (
{
closed = 1;
nodes = (
(220,225,o),
(216,189,o),
(216,158,cs),
(216,45,o),
(267,-12,o),
(412,-12,cs),
(599,-12,o),
(666,81,o),
(698,264,cs),
(705,303,o),
(709,338,o),
(709,368,cs),
(709,482,o),
(656,539,o),
(509,539,cs),
(325,539,o),
(259,447,o),
(227,264,cs)
);
},
{
closed = 1;
nodes = (
(424,383,o),
(449,387,o),
(481,387,cs),
(542,387,l),
(504,178,ls),
(497,143,o),
(475,140,o),
(441,140,cs),
(382,140,l),
(419,350,l)
);
},
{
closed = 1;
nodes = (
(-207,241,l),
(187,199,l),
(188,212,o),
(190,226,o),
(192,241,c)
);
},
{
closed = 1;
nodes = (
(-189,337,l),
(202,295,l),
(211,337,l)
);
},
{
closed = 1;
nodes = (
(-203,145,l),
(190,103,l),
(188,116,o),
(186,130,o),
(186,145,c)
);
},
{
closed = 1;
nodes = (
(-149,433,l),
(229,393,l),
(234,407,o),
(240,420,o),
(246,433,c)
);
},
{
closed = 1;
nodes = (
(-116,48,l),
(233,11,l),
(222,21,o),
(214,34,o),
(207,48,c,{
name = hr01;
})
);
},
{
closed = 1;
nodes = (
(-15,529,l),
(292,496,l),
(304,509,o),
(318,520,o),
(333,529,c)
);
},
{
closed = 1;
nodes = (
(595,738,o),
(570,709,o),
(570,630,cs),
(570,596,o),
(586,582,o),
(634,582,cs),
(700,582,o),
(725,611,o),
(725,690,cs),
(725,724,o),
(709,738,o),
(661,738,cs,{
name = hr02;
})
);
},
{
closed = 1;
nodes = (
(387,738,o),
(362,709,o),
(362,630,cs),
(362,596,o),
(378,582,o),
(426,582,cs),
(491,582,o),
(517,611,o),
(517,690,cs),
(517,724,o),
(500,738,o),
(453,738,cs)
);
},
{
closed = 1;
nodes = (
(33,723,l),
(335,677,l),
(338,695,o),
(342,710,o),
(349,723,c,{
name = hr03;
})
);
},
{
closed = 1;
nodes = (
(332,644,l,{
name = hr04;
}),
(33,644,l),
(335,598,l),
(333,607,o),
(332,618,o),
(332,630,c)
);
}
);
width = 759;
}
);
unicode = 246;
},
{
glyphname = ograve;
layers = (
{
layerId = master01;
shapes = (
{
closed = 1;
nodes = (
(220,225,o),
(216,189,o),
(216,158,cs),
(216,45,o),
(267,-12,o),
(412,-12,cs),
(599,-12,o),
(666,81,o),
(698,264,cs),
(705,303,o),
(709,338,o),
(709,368,cs),
(709,482,o),
(656,539,o),
(509,539,cs),
(325,539,o),
(259,447,o),
(227,264,cs)
);
},
{
closed = 1;
nodes = (
(424,383,o),
(449,387,o),
(481,387,cs),
(542,387,l),
(504,178,ls),
(497,143,o),
(475,140,o),
(441,140,cs),
(382,140,l),
(419,350,l)
);
},
{
closed = 1;
nodes = (
(-207,241,l),
(187,199,l),
(188,212,o),
(190,226,o),
(192,241,c)
);
},
{
closed = 1;
nodes = (
(-189,337,l),
(202,295,l),
(211,337,l)
);
},
{
closed = 1;
nodes = (
(-203,145,l),
(190,103,l),
(188,116,o),
(186,130,o),
(186,145,c)
);
},
{
closed = 1;
nodes = (
(-149,433,l),
(229,393,l),
(234,407,o),
(240,420,o),
(246,433,c)
);
},
{
closed = 1;
nodes = (
(-116,48,l),
(233,11,l),
(222,21,o),
(214,34,o),
(207,48,c,{
name = hr01;
})
);
},
{
closed = 1;
nodes = (
(-15,529,l),
(292,496,l),
(304,509,o),
(318,520,o),
(333,529,c)
);
},
{
closed = 1;
nodes = (
(675,626,l),
(486,765,ls),
(483,767,o),
(479,769,o),
(475,769,cs),
(468,769,o),
(462,764,o),
(457,758,cs),
(394,684,ls),
(389,678,o),
(385,671,o),
(385,665,cs),
(385,662,o),
(386,658,o),
(389,655,cs),
(434,616,ls),
(441,610,o),
(445,607,o),
(460,604,cs),
(634,569,l,{
name = hr02;
})
);
},
{
closed = 1;
nodes = (
(366,700,o),
(378,710,o),
(388,723,c),
(-36,723,l),
(359,684,l)
);
},
{
closed = 1;
nodes = (
(375,626,o),
(367,633,o),
(361,642,c),
(-6,642,l),
(402,603,l)
);
}
);
width = 759;
}
);
unicode = 242;
},
{
glyphname = oslash;
layers = (
{
layerId = master01;
shapes = (
{
closed = 1;
nodes = (
(275,-54,l),
(317,-54,l),
(649,581,l),
(609,581,l)
);
},
{
closed = 1;
nodes = (
(220,225,o),
(216,189,o),
(216,158,cs),
(216,45,o),
(267,-12,o),
(412,-12,cs),
(599,-12,o),
(666,81,o),
(698,264,cs),
(705,303,o),
(709,338,o),
(709,368,cs),
(709,482,o),
(656,539,o),
(509,539,cs),
(325,539,o),
(259,447,o),
(227,264,cs,{
name = hr01;
})
);
},
{
closed = 1;
nodes = (
(424,383,o),
(449,387,o),
(481,387,cs),
(542,387,l),
(504,178,ls),
(497,143,o),
(475,140,o),
(441,140,cs),
(382,140,l),
(419,350,l)
);
},
{
closed = 1;
nodes = (
(-207,241,l),
(187,199,l),
(188,212,o),
(190,226,o),
(192,241,c)
);
},
{
closed = 1;
nodes = (
(-189,337,l),
(202,295,l),
(211,337,l)
);
},
{
closed = 1;
nodes = (
(-203,145,l),
(190,103,l),
(188,116,o),
(186,130,o),
(186,145,c)
);
},
{
closed = 1;
nodes = (
(-149,433,l),
(229,393,l),
(234,407,o),
(240,420,o),
(246,433,c)
);
},
{
closed = 1;
nodes = (
(-116,48,l),
(233,11,l),
(222,21,o),
(214,34,o),
(207,48,c,{
name = hr02;
})
);
},
{
closed = 1;
nodes = (
(-15,529,l),
(292,496,l),
(304,509,o),
(318,520,o),
(333,529,c)
);
}
);
width = 759;
}
);
unicode = 248;
},
{
glyphname = otilde;
layers = (
{
layerId = master01;
shapes = (
{
closed = 1;
nodes = (
(220,225,o),
(216,189,o),
(216,158,cs),
(216,45,o),
(267,-12,o),
(412,-12,cs),
(599,-12,o),
(666,81,o),
(698,264,cs),
(705,303,o),
(709,338,o),
(709,368,cs),
(709,482,o),
(656,539,o),
(509,539,cs),
(325,539,o),
(259,447,o),
(227,264,cs)
);
},
{
closed = 1;
nodes = (
(424,383,o),
(449,387,o),
(481,387,cs),
(542,387,l),
(504,178,ls),
(497,143,o),
(475,140,o),
(441,140,cs),
(382,140,l),
(419,350,l)
);
},
{
closed = 1;
nodes = (
(-207,241,l),
(187,199,l),
(188,212,o),
(190,226,o),
(192,241,c)
);
},
{
closed = 1;
nodes = (
(-189,337,l),
(202,295,l),
(211,337,l)
);
},
{
closed = 1;
nodes = (
(-203,145,l),
(190,103,l),
(188,116,o),
(186,130,o),
(186,145,c)
);
},
{
closed = 1;
nodes = (
(-149,433,l),
(229,393,l),
(234,407,o),
(240,420,o),
(246,433,c)
);
},
{
closed = 1;
nodes = (
(-116,48,l),
(233,11,l),
(222,21,o),
(214,34,o),
(207,48,c,{
name = hr01;
})
);
},
{
closed = 1;
nodes = (
(-15,529,l),
(292,496,l),
(304,509,o),
(318,520,o),
(333,529,c)
);
},
{
closed = 1;
nodes = (
(578,729,o),
(561,751,o),
(529,751,cs),
(497,751,o),
(491,744,o),
(355,659,c),
(389,578,l),
(474,618,l),
(500,595,o),
(517,573,o),
(549,573,cs),
(581,573,o),
(587,580,o),
(723,665,c),
(690,746,l),
(604,706,l,{
name = hr02;
})
);
},
{
closed = 1;
nodes = (
(35,723,l),
(329,677,l),
(401,723,l)
);
},
{
closed = 1;
nodes = (
(35,644,l),
(348,598,l),
(329,644,l)
);
}
);
width = 759;
}
);
unicode = 245;
},
{
glyphname = oe;
layers = (
{
layerId = master01;
shapes = (
{
closed = 1;
nodes = (
(847,322,l),
(697,322,l),
(707,379,l),
(870,379,l),
(917,529,l),
(599,529,l),
(574,535,o),
(544,539,o),
(509,539,cs),
(325,539,o),
(259,447,o),
(227,264,cs),
(220,225,o),
(216,189,o),
(216,158,cs),
(216,45,o),
(267,-12,o),
(412,-12,cs),
(451,-12,o),
(484,-8,o),
(514,0,c,{
name = hr01;
}),
(826,0,l),
(852,147,l),
(667,147,l),
(677,204,l),
(826,204,l)
);
},
{
closed = 1;
nodes = (
(-189,337,l),
(202,295,l),
(211,337,l)
);
},
{
closed = 1;
nodes = (
(-207,241,l),
(187,199,l),
(188,212,o),
(190,226,o),
(192,241,c)
);
},
{
closed = 1;
nodes = (
(-203,145,l),
(190,103,l),
(188,116,o),
(186,130,o),
(186,145,c)
);
},
{
closed = 1;
nodes = (
(-149,433,l),
(229,393,l),
(234,407,o),
(240,420,o),
(246,433,c)
);
},
{
closed = 1;
nodes = (
(-116,48,l),
(233,11,l),
(222,21,o),
(214,34,o),
(207,48,c,{
name = hr02;
})
);
},
{
closed = 1;
nodes = (
(-15,529,l),
(292,496,l),
(304,509,o),
(318,520,o),
(333,529,c)
);
},
{
closed = 1;
nodes = (
(425,383,o),
(449,387,o),
(481,387,cs),
(540,387,l),
(504,178,ls),
(498,143,o),
(475,140,o),
(441,140,cs),
(382,140,l),
(419,350,ls)
);
}
);
width = 925;
}
);
unicode = 339;
},
{
glyphname = p;
layers = (
{
layerId = master01;
shapes = (
{
closed = 1;
nodes = (
(664,124,o),
(695,315,o),
(695,392,cs),
(695,471,o),
(660,529,o),
(550,529,cs),
(296,529,l),
(204,0,l),
(372,0,l),
(394,124,l),
(491,124,ls,{
name = hr00;
})
);
},
{
closed = 1;
nodes = (
(471,383,ls),
(493,383,o),
(514,381,o),
(514,362,cs),
(514,361,o),
(513,358,o),
(513,356,cs),
(501,288,ls),
(496,262,o),
(475,259,o),
(449,259,cs),
(418,259,l),
(439,383,l)
);
},
{
closed = 1;
nodes = (
(179,48,l),
(-253,48,l),
(171,3,l)
);
},
{
closed = 1;
nodes = (
(213,241,l),
(-219,241,l),
(205,196,l)
);
},
{
closed = 1;
nodes = (
(230,337,l),
(-202,337,l),
(222,292,l)
);
},
{
closed = 1;
nodes = (
(247,433,l),
(-185,433,l),
(239,388,l)
);
},
{
closed = 1;
nodes = (
(263,529,l),
(-168,529,l),
(256,484,l)
);
},
{
closed = 1;
nodes = (
(196,145,l),
(-236,145,l),
(188,100,l)
);
}
);
width = 695;
}
);
unicode = 112;
},
{
glyphname = thorn;
layers = (
{
layerId = master01;
shapes = (
{
closed = 1;
nodes = (
(653,62,o),
(684,253,o),
(684,330,cs),
(684,409,o),
(649,467,o),
(539,467,cs),
(454,467,l),
(465,529,l,{
name = hr01;
}),
(295,529,l),
(204,0,l),
(372,0,l),
(383,62,l),
(480,62,ls)
);
},
{
closed = 1;
nodes = (
(460,321,ls),
(482,321,o),
(503,319,o),
(503,300,cs),
(503,299,o),
(502,296,o),
(502,294,cs),
(490,226,ls),
(485,200,o),
(464,197,o),
(438,197,cs),
(407,197,l),
(428,321,l)
);
},
{
closed = 1;
nodes = (
(179,48,l),
(-253,48,l),
(171,3,l)
);
},
{
closed = 1;
nodes = (
(213,241,l),
(-219,241,l),
(205,196,l)
);
},
{
closed = 1;
nodes = (
(230,337,l),
(-202,337,l),
(222,292,l)
);
},
{
closed = 1;
nodes = (
(247,433,l),
(-185,433,l),
(239,388,l)
);
},
{
closed = 1;
nodes = (
(263,529,l),
(-168,529,l),
(256,484,l)
);
},
{
closed = 1;
nodes = (
(196,145,l),
(-236,145,l),
(188,100,l)
);
}
);
width = 748;
}
);
unicode = 254;
},
{
glyphname = q;
layers = (
{
layerId = master01;
shapes = (
{
closed = 1;
nodes = (
(643,131,o),
(696,216,o),
(696,368,cs),
(696,482,o),
(643,539,o),
(496,539,cs),
(312,539,o),
(245,447,o),
(213,264,cs),
(206,223,o),
(202,186,o),
(202,155,cs),
(202,48,o),
(249,1,o),
(371,1,c),
(446,26,l),
(440,-10,l),
(596,-42,l),
(656,63,l),
(612,95,l,{
name = hr00;
})
);
},
{
closed = 1;
nodes = (
(411,383,o),
(436,387,o),
(468,387,cs),
(529,387,l),
(491,178,ls),
(484,143,o),
(462,140,o),
(428,140,cs),
(369,140,l),
(406,350,ls)
);
},
{
closed = 1;
nodes = (
(-221,241,l),
(173,199,l),
(174,212,o),
(176,226,o),
(178,241,c)
);
},
{
closed = 1;
nodes = (
(-203,337,l),
(188,295,l),
(197,337,l)
);
},
{
closed = 1;
nodes = (
(-217,145,l),
(176,103,l),
(174,116,o),
(172,130,o),
(172,145,c)
);
},
{
closed = 1;
nodes = (
(-163,433,l),
(215,393,l),
(220,407,o),
(226,420,o),
(232,433,c)
);
},
{
closed = 1;
nodes = (
(-130,48,l),
(219,11,l),
(208,21,o),
(200,34,o),
(193,48,c)
);
},
{
closed = 1;
nodes = (
(-29,529,l),
(278,496,l),
(290,509,o),
(304,520,o),
(319,529,c)
);
}
);
width = 733;
}
);
unicode = 113;
},
{
glyphname = r;
layers = (
{
layerId = master01;
shapes = (
{
closed = 1;
nodes = (
(591,176,l),
(676,224,o),
(696,336,o),
(696,397,cs),
(696,473,o),
(661,529,o),
(550,529,cs),
(296,529,l),
(204,0,l),
(372,0,l),
(399,154,l),
(423,154,l),
(461,0,l),
(648,0,l,{
name = hr00;
})
);
},
{
closed = 1;
nodes = (
(461,383,ls),
(493,383,o),
(514,381,o),
(514,362,cs),
(514,361,o),
(513,358,o),
(513,356,cs),
(507,321,ls),
(502,295,o),
(481,291,o),
(455,291,cs),
(423,291,l),
(439,383,l)
);
},
{
closed = 1;
nodes = (
(179,48,l),
(-253,48,l),
(171,3,l)
);
},
{
closed = 1;
nodes = (
(213,241,l),
(-219,241,l),
(205,196,l)
);
},
{
closed = 1;
nodes = (
(230,337,l),
(-202,337,l),
(222,292,l)
);
},
{
closed = 1;
nodes = (
(247,433,l),
(-185,433,l),
(239,388,l)
);
},
{
closed = 1;
nodes = (
(263,529,l),
(-168,529,l),
(256,484,l)
);
},
{
closed = 1;
nodes = (
(196,145,l),
(-236,145,l),
(188,100,l)
);
}
);
width = 721;
}
);
unicode = 114;
},
{
glyphname = s;
layers = (
{
layerId = master01;
shapes = (
{
closed = 1;
nodes = (
(180,3,l),
(194,48,l),
(-238,48,l)
);
},
{
closed = 1;
nodes = (
(-161,433,l),
(257,388,l),
(261,404,o),
(265,419,o),
(270,433,c)
);
},
{
closed = 1;
nodes = (
(245,300,ls),
(245,312,o),
(246,325,o),
(247,337,c),
(-179,337,l),
(245,292,l)
);
},
{
closed = 1;
nodes = (
(226,145,l),
(-205,145,l),
(212,101,l)
);
},
{
closed = 1;
nodes = (
(-92,529,l),
(298,487,l),
(309,504,o),
(323,517,o),
(339,529,c)
);
},
{
closed = 1;
nodes = (
(-140,241,l),
(283,196,l),
(270,208,o),
(260,223,o),
(254,241,c)
);
},
{
closed = 1;
nodes = (
(645,532,o),
(584,539,o),
(522,539,cs,{
name = hr01;
}),
(364,539,o),
(306,493,o),
(280,350,cs),
(277,332,o),
(275,315,o),
(275,300,cs),
(275,230,o),
(313,191,o),
(424,179,cs),
(487,172,l),
(482,140,l),
(458,137,o),
(437,137,o),
(413,137,cs),
(365,137,o),
(316,144,o),
(263,159,c),
(214,11,l),
(277,-6,o),
(342,-12,o),
(405,-12,cs),
(520,-12,o),
(636,-7,o),
(668,178,cs),
(670,191,o),
(672,205,o),
(672,217,cs),
(672,287,o),
(628,335,o),
(511,350,cs),
(461,356,l),
(466,385,l),
(489,388,o),
(501,388,o),
(526,388,cs,{
name = hr02;
}),
(571,388,o),
(606,383,o),
(653,372,c),
(701,518,l)
);
}
);
width = 718;
}
);
unicode = 115;
},
{
glyphname = scaron;
layers = (
{
layerId = master01;
shapes = (
{
closed = 1;
nodes = (
(180,3,l),
(194,48,l),
(-238,48,l)
);
},
{
closed = 1;
nodes = (
(-161,433,l),
(257,388,l),
(261,404,o),
(265,419,o),
(270,433,c)
);
},
{
closed = 1;
nodes = (
(245,300,ls),
(245,312,o),
(246,325,o),
(247,337,c),
(-179,337,l),
(245,292,l)
);
},
{
closed = 1;
nodes = (
(226,145,l),
(-205,145,l),
(212,101,l)
);
},
{
closed = 1;
nodes = (
(-92,529,l),
(298,487,l),
(309,504,o),
(323,517,o),
(339,529,c)
);
},
{
closed = 1;
nodes = (
(-140,241,l),
(283,196,l),
(270,208,o),
(260,223,o),
(254,241,c)
);
},
{
closed = 1;
nodes = (
(645,532,o),
(584,539,o),
(522,539,cs,{
name = hr01;
}),
(364,539,o),
(306,493,o),
(280,350,cs),
(277,332,o),
(275,315,o),
(275,300,cs),
(275,230,o),
(313,191,o),
(424,179,cs),
(487,172,l),
(482,140,l),
(458,137,o),
(437,137,o),
(413,137,cs),
(365,137,o),
(316,144,o),
(263,159,c),
(214,11,l),
(277,-6,o),
(342,-12,o),
(405,-12,cs),
(520,-12,o),
(636,-7,o),
(668,178,cs),
(670,191,o),
(672,205,o),
(672,217,cs),
(672,287,o),
(628,335,o),
(511,350,cs),
(461,356,l),
(466,385,l),
(489,388,o),
(501,388,o),
(526,388,cs,{
name = hr02;
}),
(571,388,o),
(606,383,o),
(653,372,c),
(701,518,l)
);
},
{
closed = 1;
nodes = (
(543,567,o),
(549,570,o),
(554,576,cs),
(686,721,l),
(638,770,l),
(539,707,l),
(461,770,l),
(395,721,l),
(478,576,ls),
(481,571,o),
(484,567,o),
(491,567,cs),
(536,567,ls,{
name = hr03;
})
);
},
{
closed = 1;
nodes = (
(358,723,l),
(-20,723,l),
(381,684,l)
);
},
{
closed = 1;
nodes = (
(405,642,l),
(19,642,l),
(427,603,l)
);
}
);
width = 718;
}
);
unicode = 353;
},
{
glyphname = germandbls;
layers = (
{
layerId = master01;
shapes = (
{
closed = 1;
nodes = (
(269,370,l),
(204,0,l),
(394,0,l),
(484,515,l),
(499,518,o),
(509,519,o),
(519,519,cs),
(549,519,o),
(559,507,o),
(559,487,cs),
(559,424,o),
(478,328,o),
(478,243,cs),
(478,186,o),
(500,166,o),
(574,166,c),
(568,134,l),
(557,131,o),
(546,130,o),
(535,130,cs,{
name = hr01;
}),
(514,130,o),
(493,135,o),
(472,141,c),
(428,-1,l),
(448,-10,o),
(507,-15,o),
(557,-15,cs),
(700,-15,o),
(778,71,o),
(778,198,cs),
(778,269,o),
(742,314,o),
(639,314,c),
(749,442,o),
(755,528,o),
(755,550,cs),
(755,658,o),
(646,675,o),
(570,675,cs),
(442,675,o),
(339,665,o),
(309,560,cs),
(292,500,l),
(245,500,l),
(222,370,l)
);
},
{
closed = 1;
nodes = (
(182,48,l),
(-250,48,l),
(174,3,l)
);
},
{
closed = 1;
nodes = (
(216,241,l),
(-216,241,l),
(208,196,l)
);
},
{
closed = 1;
nodes = (
(233,337,l),
(-199,337,l),
(225,292,l)
);
},
{
closed = 1;
nodes = (
(202,433,l),
(-230,433,l),
(194,388,l)
);
},
{
closed = 1;
nodes = (
(219,529,l),
(-212,529,l),
(212,484,l)
);
},
{
closed = 1;
nodes = (
(199,145,l),
(-233,145,l),
(191,100,l)
);
},
{
closed = 1;
nodes = (
(-125,625,l),
(285,581,l),
(290,597,o),
(297,611,o),
(306,625,c,{
name = hr02;
})
);
}
);
width = 773;
}
);
unicode = 223;
},
{
glyphname = t;
layers = (
{
layerId = master01;
shapes = (
{
closed = 1;
nodes = (
(654,529,l),
(259,529,l),
(232,379,l),
(343,379,l),
(277,0,l),
(453,0,l),
(519,379,l),
(627,379,l,{
name = hr00;
})
);
},
{
closed = 1;
nodes = (
(255,48,l),
(-177,48,l),
(247,3,l)
);
},
{
closed = 1;
nodes = (
(289,241,l),
(-143,241,l),
(281,196,l)
);
},
{
closed = 1;
nodes = (
(306,337,l),
(-126,337,l),
(298,292,l)
);
},
{
closed = 1;
nodes = (
(210,433,l),
(-222,433,l),
(202,388,l)
);
},
{
closed = 1;
nodes = (
(226,529,l),
(-205,529,l),
(219,484,l)
);
},
{
closed = 1;
nodes = (
(272,145,l),
(-160,145,l),
(264,100,l)
);
}
);
width = 623;
}
);
unicode = 116;
},
{
glyphname = tbar;
layers = (
{
layerId = master01;
shapes = (
{
closed = 1;
nodes = (
(587,196,l),
(596,242,l),
(219,242,l),
(211,196,l,{
name = hr00;
})
);
},
{
closed = 1;
nodes = (
(654,529,l),
(259,529,l),
(232,379,l),
(343,379,l),
(277,0,l),
(453,0,l),
(519,379,l),
(627,379,l)
);
},
{
closed = 1;
nodes = (
(255,48,l),
(-177,48,l),
(247,3,l)
);
},
{
closed = 1;
nodes = (
(306,337,l),
(-126,337,l),
(298,292,l)
);
},
{
closed = 1;
nodes = (
(210,433,l),
(-222,433,l),
(202,388,l)
);
},
{
closed = 1;
nodes = (
(226,529,l),
(-205,529,l),
(219,484,l)
);
},
{
closed = 1;
nodes = (
(272,145,l),
(-160,145,l),
(264,100,l)
);
}
);
width = 623;
}
);
unicode = 359;
},
{
glyphname = u;
layers = (
{
layerId = master01;
shapes = (
{
closed = 1;
nodes = (
(213,241,l),
(-219,241,l),
(205,196,l)
);
},
{
closed = 1;
nodes = (
(230,337,l),
(-202,337,l),
(222,292,l)
);
},
{
closed = 1;
nodes = (
(247,433,l),
(-185,433,l),
(239,388,l)
);
},
{
closed = 1;
nodes = (
(263,529,l),
(-168,529,l),
(256,484,l)
);
},
{
closed = 1;
nodes = (
(201,108,o),
(201,116,o),
(201,125,cs),
(201,145,l),
(-222,145,l),
(202,100,l)
);
},
{
closed = 1;
nodes = (
(227,15,o),
(218,30,o),
(211,48,c,{
name = hr01;
}),
(-184,48,l),
(240,3,l)
);
},
{
closed = 1;
nodes = (
(295,529,l),
(242,231,ls),
(235,190,o),
(231,155,o),
(231,125,cs),
(231,24,o),
(279,-12,o),
(416,-12,cs),
(591,-12,o),
(644,48,o),
(676,231,cs),
(728,529,l),
(560,529,l),
(497,178,ls),
(491,143,o),
(478,140,o),
(445,140,cs),
(395,140,l),
(463,529,l)
);
}
);
width = 727;
}
);
unicode = 117;
},
{
glyphname = uacute;
layers = (
{
layerId = master01;
shapes = (
{
closed = 1;
nodes = (
(213,241,l),
(-219,241,l),
(205,196,l)
);
},
{
closed = 1;
nodes = (
(230,337,l),
(-202,337,l),
(222,292,l)
);
},
{
closed = 1;
nodes = (
(247,433,l),
(-185,433,l),
(239,388,l)
);
},
{
closed = 1;
nodes = (
(263,529,l),
(-168,529,l),
(256,484,l)
);
},
{
closed = 1;
nodes = (
(201,108,o),
(201,116,o),
(201,125,cs),
(201,145,l),
(-222,145,l),
(202,100,l)
);
},
{
closed = 1;
nodes = (
(227,15,o),
(218,30,o),
(211,48,c,{
name = hr01;
}),
(-184,48,l),
(240,3,l)
);
},
{
closed = 1;
nodes = (
(295,529,l),
(242,231,ls),
(235,190,o),
(231,155,o),
(231,125,cs),
(231,24,o),
(279,-12,o),
(416,-12,cs),
(591,-12,o),
(644,48,o),
(676,231,cs),
(728,529,l),
(560,529,l),
(497,178,ls),
(491,143,o),
(478,140,o),
(445,140,cs),
(395,140,l),
(463,529,l)
);
},
{
closed = 1;
nodes = (
(630,607,o),
(634,610,o),
(641,616,cs),
(685,654,o),
(686,655,o),
(686,655,c),
(688,658,o),
(690,661,o),
(690,666,cs),
(690,671,o),
(687,677,o),
(681,684,cs),
(618,758,ls),
(613,764,o),
(607,769,o),
(600,769,cs),
(596,769,o),
(592,767,o),
(589,765,cs),
(400,626,l),
(441,569,l),
(615,604,ls,{
name = hr02;
})
);
},
{
closed = 1;
nodes = (
(480,723,l),
(67,723,l),
(427,684,l)
);
},
{
closed = 1;
nodes = (
(369,642,l),
(-44,642,l),
(316,603,l)
);
}
);
width = 727;
}
);
unicode = 250;
},
{
glyphname = ucircumflex;
layers = (
{
layerId = master01;
shapes = (
{
closed = 1;
nodes = (
(213,241,l),
(-219,241,l),
(205,196,l)
);
},
{
closed = 1;
nodes = (
(230,337,l),
(-202,337,l),
(222,292,l)
);
},
{
closed = 1;
nodes = (
(247,433,l),
(-185,433,l),
(239,388,l)
);
},
{
closed = 1;
nodes = (
(263,529,l),
(-168,529,l),
(256,484,l)
);
},
{
closed = 1;
nodes = (
(201,108,o),
(201,116,o),
(201,125,cs),
(201,145,l),
(-222,145,l),
(202,100,l)
);
},
{
closed = 1;
nodes = (
(227,15,o),
(218,30,o),
(211,48,c,{
name = hr01;
}),
(-184,48,l),
(240,3,l)
);
},
{
closed = 1;
nodes = (
(295,529,l),
(242,231,ls),
(235,190,o),
(231,155,o),
(231,125,cs),
(231,24,o),
(279,-12,o),
(416,-12,cs),
(591,-12,o),
(644,48,o),
(676,231,cs),
(728,529,l),
(560,529,l),
(497,178,ls),
(491,143,o),
(478,140,o),
(445,140,cs),
(395,140,l),
(463,529,l)
);
},
{
closed = 1;
nodes = (
(523,770,o),
(517,767,o),
(512,761,cs),
(380,616,l),
(428,567,l),
(527,630,l),
(605,567,l),
(671,616,l),
(588,761,ls),
(585,766,o),
(582,770,o),
(575,770,cs),
(530,770,ls,{
name = hr02;
})
);
},
{
closed = 1;
nodes = (
(436,723,l),
(78,723,l),
(401,684,l)
);
},
{
closed = 1;
nodes = (
(363,642,l),
(-3,642,l),
(327,603,l)
);
}
);
width = 727;
}
);
unicode = 251;
},
{
glyphname = udieresis;
layers = (
{
layerId = master01;
shapes = (
{
closed = 1;
nodes = (
(213,241,l),
(-219,241,l),
(205,196,l)
);
},
{
closed = 1;
nodes = (
(230,337,l),
(-202,337,l),
(222,292,l)
);
},
{
closed = 1;
nodes = (
(247,433,l),
(-185,433,l),
(239,388,l)
);
},
{
closed = 1;
nodes = (
(263,529,l),
(-168,529,l),
(256,484,l)
);
},
{
closed = 1;
nodes = (
(201,108,o),
(201,116,o),
(201,125,cs),
(201,145,l),
(-222,145,l),
(202,100,l)
);
},
{
closed = 1;
nodes = (
(227,15,o),
(218,30,o),
(211,48,c,{
name = hr01;
}),
(-184,48,l),
(240,3,l)
);
},
{
closed = 1;
nodes = (
(295,529,l),
(242,231,ls),
(235,190,o),
(231,155,o),
(231,125,cs),
(231,24,o),
(279,-12,o),
(416,-12,cs),
(591,-12,o),
(644,48,o),
(676,231,cs),
(728,529,l),
(560,529,l),
(497,178,ls),
(491,143,o),
(478,140,o),
(445,140,cs),
(395,140,l),
(463,529,l)
);
},
{
closed = 1;
nodes = (
(588,738,o),
(563,709,o),
(563,630,cs),
(563,596,o),
(579,582,o),
(627,582,cs),
(693,582,o),
(718,611,o),
(718,690,cs),
(718,724,o),
(702,738,o),
(654,738,cs,{
name = hr02;
})
);
},
{
closed = 1;
nodes = (
(380,738,o),
(355,709,o),
(355,630,cs),
(355,596,o),
(371,582,o),
(419,582,cs),
(484,582,o),
(510,611,o),
(510,690,cs),
(510,724,o),
(493,738,o),
(446,738,cs)
);
},
{
closed = 1;
nodes = (
(26,723,l),
(328,677,l),
(331,695,o),
(335,710,o),
(342,723,c,{
name = hr03;
})
);
},
{
closed = 1;
nodes = (
(325,644,l,{
name = hr04;
}),
(26,644,l),
(328,598,l),
(326,607,o),
(325,618,o),
(325,630,c)
);
}
);
width = 727;
}
);
unicode = 252;
},
{
glyphname = ugrave;
layers = (
{
layerId = master01;
shapes = (
{
closed = 1;
nodes = (
(213,241,l),
(-219,241,l),
(205,196,l)
);
},
{
closed = 1;
nodes = (
(230,337,l),
(-202,337,l),
(222,292,l)
);
},
{
closed = 1;
nodes = (
(247,433,l),
(-185,433,l),
(239,388,l)
);
},
{
closed = 1;
nodes = (
(263,529,l),
(-168,529,l),
(256,484,l)
);
},
{
closed = 1;
nodes = (
(201,108,o),
(201,116,o),
(201,125,cs),
(201,145,l),
(-222,145,l),
(202,100,l)
);
},
{
closed = 1;
nodes = (
(227,15,o),
(218,30,o),
(211,48,c,{
name = hr01;
}),
(-184,48,l),
(240,3,l)
);
},
{
closed = 1;
nodes = (
(295,529,l),
(242,231,ls),
(235,190,o),
(231,155,o),
(231,125,cs),
(231,24,o),
(279,-12,o),
(416,-12,cs),
(591,-12,o),
(644,48,o),
(676,231,cs),
(728,529,l),
(560,529,l),
(497,178,ls),
(491,143,o),
(478,140,o),
(445,140,cs),
(395,140,l),
(463,529,l)
);
},
{
closed = 1;
nodes = (
(659,626,l),
(470,765,ls),
(467,767,o),
(463,769,o),
(459,769,cs),
(452,769,o),
(446,764,o),
(441,758,cs),
(378,684,ls),
(373,678,o),
(369,671,o),
(369,665,cs),
(369,662,o),
(370,658,o),
(373,655,cs),
(418,616,ls),
(425,610,o),
(429,607,o),
(444,604,cs),
(618,569,l,{
name = hr02;
})
);
},
{
closed = 1;
nodes = (
(350,700,o),
(362,710,o),
(372,723,c),
(-52,723,l),
(343,684,l)
);
},
{
closed = 1;
nodes = (
(359,626,o),
(351,633,o),
(345,642,c),
(-22,642,l),
(386,603,l)
);
}
);
width = 727;
}
);
unicode = 249;
},
{
glyphname = v;
layers = (
{
layerId = master01;
shapes = (
{
closed = 1;
nodes = (
(463,227,l),
(459,227,l,{
name = hr01;
}),
(459,529,l),
(274,529,l),
(303,0,l),
(546,0,l),
(760,529,l),
(579,529,l)
);
},
{
closed = 1;
nodes = (
(270,3,l),
(267,48,l),
(-151,48,l)
);
},
{
closed = 1;
nodes = (
(264,100,l),
(262,145,l),
(-157,145,l)
);
},
{
closed = 1;
nodes = (
(244,484,l),
(241,529,l),
(-180,529,l)
);
},
{
closed = 1;
nodes = (
(249,388,l),
(247,433,l),
(-174,433,l)
);
},
{
closed = 1;
nodes = (
(254,292,l),
(251,337,l),
(-168,337,l)
);
},
{
closed = 1;
nodes = (
(259,196,l),
(256,241,l),
(-162,241,l)
);
}
);
width = 725;
}
);
unicode = 118;
},
{
glyphname = w;
layers = (
{
layerId = master01;
shapes = (
{
closed = 1;
nodes = (
(708,243,l),
(704,243,l),
(704,529,l),
(552,529,l),
(440,243,l),
(435,243,l),
(435,529,l),
(253,529,l),
(253,0,l),
(480,0,l),
(557,187,l),
(564,187,l),
(579,0,l),
(796,0,l),
(991,529,l),
(800,529,l)
);
},
{
closed = 1;
nodes = (
(220,529,l),
(-173,529,l),
(220,484,l,{
name = hr01;
})
);
},
{
closed = 1;
nodes = (
(220,433,l),
(-173,433,l),
(220,388,l)
);
},
{
closed = 1;
nodes = (
(220,337,l),
(-173,337,l),
(220,292,l)
);
},
{
closed = 1;
nodes = (
(220,241,l),
(-173,241,l),
(220,196,l)
);
},
{
closed = 1;
nodes = (
(220,145,l),
(-173,145,l),
(220,100,l)
);
},
{
closed = 1;
nodes = (
(220,48,l),
(-173,48,l),
(220,3,l)
);
}
);
width = 959;
}
);
unicode = 119;
},
{
glyphname = x;
layers = (
{
layerId = master01;
shapes = (
{
closed = 1;
nodes = (
(-292,48,l),
(112,5,l),
(140,48,l,{
name = hr00;
})
);
},
{
closed = 1;
nodes = (
(-165,241,l),
(239,198,l),
(267,241,l)
);
},
{
closed = 1;
nodes = (
(176,102,l),
(204,145,l),
(-228,145,l)
);
},
{
closed = 1;
nodes = (
(207,529,l),
(-203,529,l),
(221,484,l)
);
},
{
closed = 1;
nodes = (
(280,292,l),
(266,337,l),
(-143,337,l)
);
},
{
closed = 1;
nodes = (
(251,388,l),
(237,433,l),
(-172,433,l)
);
},
{
closed = 1;
nodes = (
(237,529,l),
(319,267,l),
(144,0,l),
(334,0,l),
(408,124,l),
(417,124,l),
(448,0,l),
(644,0,l),
(561,267,l),
(736,529,l),
(544,529,l),
(473,411,l),
(464,411,l),
(438,529,l)
);
}
);
width = 703;
}
);
unicode = 120;
},
{
glyphname = y;
layers = (
{
layerId = master01;
shapes = (
{
closed = 1;
nodes = (
(242,48,l),
(-190,48,l),
(234,3,l,{
name = hr00;
})
);
},
{
closed = 1;
nodes = (
(259,145,l),
(-173,145,l),
(251,100,l)
);
},
{
closed = 1;
nodes = (
(202,433,l),
(-213,433,l),
(211,388,l)
);
},
{
closed = 1;
nodes = (
(182,529,l),
(-233,529,l),
(191,484,l)
);
},
{
closed = 1;
nodes = (
(222,337,l),
(-193,337,l),
(231,292,l)
);
},
{
closed = 1;
nodes = (
(241,241,l),
(-173,241,l),
(251,196,l)
);
},
{
closed = 1;
nodes = (
(212,529,l),
(290,151,l),
(264,0,l),
(433,0,l),
(458,151,l),
(670,529,l),
(495,529,l),
(412,337,l),
(406,337,l),
(384,529,l)
);
}
);
width = 635;
}
);
unicode = 121;
},
{
glyphname = yacute;
layers = (
{
layerId = master01;
shapes = (
{
closed = 1;
nodes = (
(242,48,l),
(-190,48,l),
(234,3,l)
);
},
{
closed = 1;
nodes = (
(259,145,l),
(-173,145,l),
(251,100,l)
);
},
{
closed = 1;
nodes = (
(202,433,l),
(-213,433,l),
(211,388,l)
);
},
{
closed = 1;
nodes = (
(182,529,l),
(-233,529,l),
(191,484,l)
);
},
{
closed = 1;
nodes = (
(222,337,l),
(-193,337,l),
(231,292,l)
);
},
{
closed = 1;
nodes = (
(241,241,l),
(-173,241,l),
(251,196,l)
);
},
{
closed = 1;
nodes = (
(212,529,l),
(290,151,l),
(264,0,l),
(433,0,l),
(458,151,l),
(670,529,l),
(495,529,l),
(412,337,l),
(406,337,l),
(384,529,l)
);
},
{
closed = 1;
nodes = (
(549,607,o),
(553,610,o),
(560,616,cs),
(604,654,o),
(605,655,o),
(605,655,c),
(607,658,o),
(609,661,o),
(609,666,cs),
(609,671,o),
(606,677,o),
(600,684,cs),
(537,758,ls),
(532,764,o),
(526,769,o),
(519,769,cs),
(515,769,o),
(511,767,o),
(508,765,cs),
(319,626,l),
(360,569,l),
(534,604,ls,{
name = hr01;
})
);
},
{
closed = 1;
nodes = (
(399,723,l),
(-14,723,l),
(346,684,l)
);
},
{
closed = 1;
nodes = (
(288,642,l),
(-125,642,l),
(235,603,l)
);
}
);
width = 635;
}
);
unicode = 253;
},
{
glyphname = ydieresis;
layers = (
{
layerId = master01;
shapes = (
{
closed = 1;
nodes = (
(242,48,l),
(-190,48,l),
(234,3,l)
);
},
{
closed = 1;
nodes = (
(259,145,l),
(-173,145,l),
(251,100,l)
);
},
{
closed = 1;
nodes = (
(202,433,l),
(-213,433,l),
(211,388,l)
);
},
{
closed = 1;
nodes = (
(182,529,l),
(-233,529,l),
(191,484,l)
);
},
{
closed = 1;
nodes = (
(222,337,l),
(-193,337,l),
(231,292,l)
);
},
{
closed = 1;
nodes = (
(241,241,l),
(-173,241,l),
(251,196,l)
);
},
{
closed = 1;
nodes = (
(212,529,l),
(290,151,l),
(264,0,l),
(433,0,l),
(458,151,l),
(670,529,l),
(495,529,l),
(412,337,l),
(406,337,l),
(384,529,l)
);
},
{
closed = 1;
nodes = (
(516,738,o),
(491,709,o),
(491,630,cs),
(491,596,o),
(507,582,o),
(555,582,cs),
(621,582,o),
(646,611,o),
(646,690,cs),
(646,724,o),
(630,738,o),
(582,738,cs,{
name = hr01;
})
);
},
{
closed = 1;
nodes = (
(308,738,o),
(283,709,o),
(283,630,cs),
(283,596,o),
(299,582,o),
(347,582,cs),
(412,582,o),
(438,611,o),
(438,690,cs),
(438,724,o),
(421,738,o),
(374,738,cs)
);
},
{
closed = 1;
nodes = (
(-46,723,l),
(256,677,l),
(259,695,o),
(263,710,o),
(270,723,c,{
name = hr02;
})
);
},
{
closed = 1;
nodes = (
(253,644,l,{
name = hr03;
}),
(-46,644,l),
(256,598,l),
(254,607,o),
(253,618,o),
(253,630,c)
);
}
);
width = 635;
}
);
unicode = 255;
},
{
glyphname = z;
layers = (
{
layerId = master01;
shapes = (
{
closed = 1;
nodes = (
(128,48,l),
(-304,48,l),
(120,3,l,{
name = hr00;
})
);
},
{
closed = 1;
nodes = (
(226,433,l),
(-201,433,l),
(223,388,l)
);
},
{
closed = 1;
nodes = (
(233,529,l),
(-194,529,l),
(230,484,l)
);
},
{
closed = 1;
nodes = (
(-273,145,l),
(137,101,l),
(141,124,l),
(159,145,l)
);
},
{
closed = 1;
nodes = (
(-99,337,l),
(296,295,l),
(333,337,l)
);
},
{
closed = 1;
nodes = (
(209,199,l),
(247,241,l),
(-185,241,l)
);
},
{
closed = 1;
nodes = (
(610,143,l),
(416,143,l),
(414,149,l),
(655,418,l),
(675,529,l),
(263,529,l),
(253,383,l),
(408,383,l),
(410,377,l),
(170,111,l),
(151,0,l),
(586,0,l)
);
}
);
width = 666;
}
);
unicode = 122;
},
{
glyphname = zcaron;
layers = (
{
layerId = master01;
shapes = (
{
closed = 1;
nodes = (
(128,48,l),
(-304,48,l),
(120,3,l)
);
},
{
closed = 1;
nodes = (
(226,433,l),
(-201,433,l),
(223,388,l)
);
},
{
closed = 1;
nodes = (
(233,529,l),
(-194,529,l),
(230,484,l)
);
},
{
closed = 1;
nodes = (
(-273,145,l),
(137,101,l),
(141,124,l),
(159,145,l)
);
},
{
closed = 1;
nodes = (
(-99,337,l),
(296,295,l),
(333,337,l)
);
},
{
closed = 1;
nodes = (
(209,199,l),
(247,241,l),
(-185,241,l)
);
},
{
closed = 1;
nodes = (
(610,143,l),
(416,143,l),
(414,149,l),
(655,418,l),
(675,529,l),
(263,529,l),
(253,383,l),
(408,383,l),
(410,377,l),
(170,111,l),
(151,0,l),
(586,0,l)
);
},
{
closed = 1;
nodes = (
(488,567,o),
(494,570,o),
(499,576,cs),
(631,721,l),
(583,770,l),
(484,707,l),
(406,770,l),
(340,721,l),
(423,576,ls),
(426,571,o),
(429,567,o),
(436,567,cs),
(481,567,ls,{
name = hr01;
})
);
},
{
closed = 1;
nodes = (
(303,723,l),
(-75,723,l),
(326,684,l)
);
},
{
closed = 1;
nodes = (
(350,642,l),
(-36,642,l),
(372,603,l)
);
}
);
width = 666;
}
);
unicode = 382;
},
{
glyphname = l.cat;
layers = (
{
layerId = master01;
shapes = (
{
closed = 1;
nodes = (
(421,147,l),
(271,147,l),
(338,529,l),
(162,529,l),
(70,0,l),
(395,0,l,{
name = hr00;
})
);
}
);
width = 433;
}
);
},
{
glyphname = fi;
layers = (
{
layerId = master01;
shapes = (
{
closed = 1;
nodes = (
(558,311,l),
(426,311,l),
(438,379,l),
(583,379,l),
(629,529,l),
(296,529,l),
(204,0,l),
(372,0,l),
(406,192,l),
(538,192,l)
);
},
{
closed = 1;
nodes = (
(180,48,l),
(-252,48,l),
(172,3,l)
);
},
{
closed = 1;
nodes = (
(214,241,l),
(-218,241,l),
(206,196,l)
);
},
{
closed = 1;
nodes = (
(231,337,l),
(-201,337,l),
(223,292,l)
);
},
{
closed = 1;
nodes = (
(248,433,l),
(-184,433,l),
(240,388,l)
);
},
{
closed = 1;
nodes = (
(264,529,l),
(-167,529,l),
(257,484,l)
);
},
{
closed = 1;
nodes = (
(197,145,l),
(-235,145,l),
(189,100,l)
);
},
{
closed = 1;
nodes = (
(970,0,l),
(1063,529,l),
(887,529,l),
(795,0,l,{
name = hr01;
})
);
},
{
closed = 1;
nodes = (
(770,48,l),
(338,48,l),
(762,3,l)
);
},
{
closed = 1;
nodes = (
(804,241,l),
(372,241,l),
(796,196,l)
);
},
{
closed = 1;
nodes = (
(821,337,l),
(389,337,l),
(813,292,l)
);
},
{
closed = 1;
nodes = (
(838,433,l),
(406,433,l),
(830,388,l)
);
},
{
closed = 1;
nodes = (
(854,529,l),
(423,529,l),
(847,484,l)
);
},
{
closed = 1;
nodes = (
(787,145,l),
(355,145,l),
(779,100,l)
);
}
);
width = 1080;
}
);
unicode = 64257;
},
{
glyphname = fl;
layers = (
{
layerId = master01;
shapes = (
{
closed = 1;
nodes = (
(558,311,l),
(426,311,l),
(438,379,l),
(583,379,l),
(629,529,l),
(296,529,l),
(204,0,l),
(372,0,l),
(406,192,l),
(538,192,l)
);
},
{
closed = 1;
nodes = (
(180,48,l),
(-252,48,l),
(172,3,l)
);
},
{
closed = 1;
nodes = (
(214,241,l),
(-218,241,l),
(206,196,l)
);
},
{
closed = 1;
nodes = (
(231,337,l),
(-201,337,l),
(223,292,l)
);
},
{
closed = 1;
nodes = (
(248,433,l),
(-184,433,l),
(240,388,l)
);
},
{
closed = 1;
nodes = (
(264,529,l),
(-167,529,l),
(257,484,l)
);
},
{
closed = 1;
nodes = (
(197,145,l),
(-235,145,l),
(189,100,l)
);
},
{
closed = 1;
nodes = (
(1146,147,l),
(996,147,l),
(1063,529,l),
(887,529,l),
(795,0,l),
(1120,0,l,{
name = hr01;
})
);
},
{
closed = 1;
nodes = (
(770,48,l),
(338,48,l),
(762,3,l)
);
},
{
closed = 1;
nodes = (
(804,241,l),
(372,241,l),
(796,196,l)
);
},
{
closed = 1;
nodes = (
(821,337,l),
(389,337,l),
(813,292,l)
);
},
{
closed = 1;
nodes = (
(838,433,l),
(406,433,l),
(830,388,l)
);
},
{
closed = 1;
nodes = (
(854,529,l),
(423,529,l),
(847,484,l)
);
},
{
closed = 1;
nodes = (
(787,145,l),
(355,145,l),
(779,100,l)
);
}
);
width = 1158;
}
);
unicode = 64258;
},
{
glyphname = ordfeminine;
layers = (
{
layerId = master01;
shapes = (
{
closed = 1;
nodes = (
(527,191,ls),
(555,191,o),
(574,193,o),
(579,222,cs),
(592,300,l),
(269,300,ls),
(241,300,o),
(223,300,o),
(218,271,cs),
(204,191,l)
);
},
{
closed = 1;
nodes = (
(593,758,o),
(536,770,o),
(460,770,cs),
(306,770,o),
(228,631,o),
(228,489,cs),
(228,412,o),
(258,344,o),
(362,344,cs),
(422,344,o),
(453,371,o),
(481,402,c),
(517,356,l),
(594,356,l),
(660,738,l)
);
},
{
closed = 1;
nodes = (
(416,650,o),
(438,653,o),
(469,653,cs),
(493,653,l),
(464,490,ls),
(459,463,o),
(435,461,o),
(406,461,cs),
(383,461,l),
(410,619,l)
);
},
{
closed = 1;
nodes = (
(182,241,l),
(-250,241,l),
(174,196,l)
);
},
{
closed = 1;
nodes = (
(198,489,ls),
(198,502,o),
(198,516,o),
(200,529,c,{
name = hr01;
}),
(-226,529,l),
(198,484,l)
);
},
{
closed = 1;
nodes = (
(-209,625,l),
(208,580,l),
(212,595,o),
(216,610,o),
(221,625,c)
);
},
{
closed = 1;
nodes = (
(-205,433,l),
(218,388,l),
(211,402,o),
(206,417,o),
(203,433,c,{
name = hr02;
})
);
},
{
closed = 1;
nodes = (
(279,330,l),
(274,332,o),
(270,334,o),
(266,337,c),
(-151,337,l),
(194,300,l,{
name = hr03;
}),
(207,330,o),
(233,330,o),
(269,330,c)
);
}
);
width = 633;
}
);
unicode = 170;
},
{
glyphname = ordmasculine;
layers = (
{
layerId = master01;
shapes = (
{
closed = 1;
nodes = (
(237,394,o),
(288,344,o),
(408,344,cs),
(582,344,o),
(655,475,o),
(655,623,cs),
(655,720,o),
(604,770,o),
(483,770,cs),
(309,770,o),
(237,638,o),
(237,490,cs)
);
},
{
closed = 1;
nodes = (
(424,650,o),
(447,653,o),
(477,653,cs),
(501,653,l),
(473,495,ls),
(468,464,o),
(445,461,o),
(415,461,cs),
(391,461,l),
(419,619,ls)
);
},
{
closed = 1;
nodes = (
(527,191,ls),
(555,191,o),
(574,193,o),
(579,222,cs),
(592,300,l),
(269,300,ls),
(241,300,o),
(223,300,o),
(218,271,cs),
(204,191,l)
);
},
{
closed = 1;
nodes = (
(182,241,l),
(-250,241,l),
(174,196,l)
);
},
{
closed = 1;
nodes = (
(-203,625,l),
(216,580,l),
(219,595,o),
(223,609,o),
(228,625,c)
);
},
{
closed = 1;
nodes = (
(207,490,ls),
(207,503,o),
(207,516,o),
(208,529,c,{
name = hr01;
}),
(-217,529,l),
(207,484,l)
);
},
{
closed = 1;
nodes = (
(-193,433,l),
(230,388,l),
(222,401,o),
(217,416,o),
(213,433,c,{
name = hr02;
})
);
},
{
closed = 1;
nodes = (
(296,332,o),
(291,334,o),
(286,337,c),
(-129,337,l),
(195,302,l),
(208,330,o),
(234,330,o),
(269,330,cs),
(302,330,l)
);
}
);
width = 633;
}
);
unicode = 186;
},
{
glyphname = pi;
layers = (
{
layerId = master01;
shapes = (
{
closed = 1;
nodes = (
(80,378,l),
(129,366,l),
(41,0,l),
(185,0,l),
(293,312,ls),
(303,341,o),
(330,349,o),
(351,350,cs),
(357,350,l),
(312,94,ls),
(311,86,o),
(310,79,o),
(310,73,cs),
(310,-7,o),
(408,-11,o),
(522,-11,c,{
name = hr01;
}),
(556,136,l),
(542,137,o),
(526,140,o),
(511,143,c),
(547,350,l),
(618,350,o),
(636,432,o),
(653,529,c),
(515,536,l),
(512,525,o),
(508,512,o),
(503,500,c),
(102,500,l)
);
}
);
width = 657;
}
);
unicode = 960;
},
{
glyphname = zero;
layers = (
{
layerId = master01;
shapes = (
{
closed = 1;
nodes = (
(192,337,l),
(-240,337,l),
(184,292,l)
);
},
{
closed = 1;
nodes = (
(175,212,o),
(176,226,o),
(178,241,c),
(-250,241,l),
(174,196,l)
);
},
{
closed = 1;
nodes = (
(-217,433,l),
(203,388,l),
(215,433,l)
);
},
{
closed = 1;
nodes = (
(-243,145,l),
(180,100,l),
(177,114,o),
(175,129,o),
(174,145,c)
);
},
{
closed = 1;
nodes = (
(-178,529,l),
(232,485,l),
(238,501,o),
(245,515,o),
(252,529,c)
);
},
{
closed = 1;
nodes = (
(-91,625,l),
(291,584,l),
(305,600,o),
(321,613,o),
(339,625,c)
);
},
{
closed = 1;
nodes = (
(219,15,o),
(207,30,o),
(198,48,c,{
name = hr01;
}),
(-190,48,l),
(234,3,l)
);
},
{
closed = 1;
nodes = (
(209,259,o),
(204,212,o),
(204,171,cs),
(204,48,o),
(257,-15,o),
(416,-15,cs),
(627,-15,o),
(689,96,o),
(728,312,cs),
(737,365,o),
(743,412,o),
(743,453,cs),
(743,577,o),
(690,640,o),
(531,640,cs),
(320,640,o),
(257,529,o),
(219,312,cs)
);
},
{
closed = 1;
nodes = (
(444,475,o),
(464,479,o),
(516,479,cs),
(561,479,l),
(512,199,ls),
(503,150,o),
(476,146,o),
(425,146,cs),
(385,146,l),
(435,426,ls)
);
}
);
width = 773;
}
);
unicode = 48;
},
{
glyphname = one;
layers = (
{
layerId = master01;
shapes = (
{
closed = 1;
nodes = (
(613,625,l),
(463,625,l),
(236,573,l),
(211,425,l),
(378,425,l),
(304,0,l),
(504,0,l,{
name = hr00;
})
);
},
{
closed = 1;
nodes = (
(281,48,l),
(-151,48,l),
(273,3,l)
);
},
{
closed = 1;
nodes = (
(315,241,l),
(-117,241,l),
(307,196,l)
);
},
{
closed = 1;
nodes = (
(332,337,l),
(-100,337,l),
(324,292,l)
);
},
{
closed = 1;
nodes = (
(182,433,l),
(-250,433,l),
(174,388,l)
);
},
{
closed = 1;
nodes = (
(197,529,l),
(-234,529,l),
(190,484,l)
);
},
{
closed = 1;
nodes = (
(298,145,l),
(-134,145,l),
(290,100,l)
);
},
{
closed = 1;
nodes = (
(209,598,l),
(327,625,l),
(-105,625,l),
(207,589,l)
);
}
);
width = 709;
}
);
unicode = 49;
},
{
glyphname = two;
layers = (
{
layerId = master01;
shapes = (
{
closed = 1;
nodes = (
(579,475,l),
(570,416,l),
(377,328,o),
(257,300,o),
(226,125,cs),
(204,0,l),
(692,0,l),
(720,160,l),
(452,160,l),
(457,188,l),
(644,252,o),
(784,296,o),
(784,500,cs),
(784,627,o),
(689,640,o),
(568,640,cs),
(489,640,o),
(398,625,o),
(322,602,c),
(322,475,l)
);
},
{
closed = 1;
nodes = (
(182,48,l),
(-250,48,l),
(174,3,l)
);
},
{
closed = 1;
nodes = (
(199,145,l),
(-233,145,l),
(191,100,l)
);
},
{
closed = 1;
nodes = (
(292,529,l),
(-132,529,l),
(292,484,l)
);
},
{
closed = 1;
nodes = (
(293,625,l,{
name = hr01;
}),
(-130,625,l),
(293,580,l)
);
},
{
closed = 1;
nodes = (
(-197,241,l),
(214,197,l),
(220,213,o),
(227,227,o),
(235,240,c),
(235,241,l)
);
},
{
closed = 1;
nodes = (
(-97,337,l),
(280,297,l),
(296,311,o),
(314,325,o),
(333,337,c)
);
},
{
closed = 1;
nodes = (
(99,433,l),
(449,396,l),
(537,433,l)
);
}
);
width = 808;
}
);
unicode = 50;
},
{
glyphname = three;
layers = (
{
layerId = master01;
shapes = (
{
closed = 1;
nodes = (
(352,337,l),
(-79,337,l),
(344,292,l)
);
},
{
closed = 1;
nodes = (
(-218,145,l),
(200,100,l),
(214,145,l)
);
},
{
closed = 1;
nodes = (
(-250,48,l),
(168,3,l),
(182,48,l)
);
},
{
closed = 1;
nodes = (
(287,529,l),
(-137,529,l),
(287,484,l)
);
},
{
closed = 1;
nodes = (
(336,241,l),
(-96,241,l),
(328,196,l)
);
},
{
closed = 1;
nodes = (
(288,625,l),
(-135,625,l),
(288,580,l)
);
},
{
closed = 1;
nodes = (
(360,388,l),
(369,433,l),
(-63,433,l)
);
},
{
closed = 1;
nodes = (
(391,385,l),
(366,240,l),
(527,223,l),
(516,159,l),
(485,155,o),
(455,153,o),
(425,153,cs),
(363,153,o),
(314,161,o),
(258,176,c),
(202,11,l),
(272,-7,o),
(338,-15,o),
(417,-15,cs),
(585,-15,o),
(727,33,o),
(727,219,cs),
(727,270,o),
(705,308,o),
(656,332,c),
(657,337,l),
(720,369,o),
(765,431,o),
(765,522,cs),
(765,627,o),
(671,640,o),
(548,640,cs,{
name = hr01;
}),
(469,640,o),
(395,626,o),
(318,602,c),
(318,475,l),
(570,475,l),
(559,405,l)
);
}
);
width = 795;
}
);
unicode = 51;
},
{
glyphname = four;
layers = (
{
layerId = master01;
shapes = (
{
closed = 1;
nodes = (
(459,48,l),
(27,48,l),
(451,3,l,{
name = hr00;
})
);
},
{
closed = 1;
nodes = (
(182,145,l),
(-250,145,l),
(174,100,l)
);
},
{
closed = 1;
nodes = (
(191,196,l),
(197,232,l),
(202,241,l),
(-230,241,l)
);
},
{
closed = 1;
nodes = (
(254,337,l),
(-177,337,l),
(230,293,l)
);
},
{
closed = 1;
nodes = (
(410,625,l),
(-20,625,l),
(387,581,l)
);
},
{
closed = 1;
nodes = (
(306,433,l),
(-124,433,l),
(282,390,l)
);
},
{
closed = 1;
nodes = (
(358,529,l),
(-71,529,l),
(335,486,l)
);
},
{
closed = 1;
nodes = (
(671,0,l),
(688,100,l),
(750,100,l),
(780,272,l),
(718,272,l),
(781,625,l),
(444,625,l),
(227,225,l),
(205,100,l),
(498,100,l),
(481,0,l)
);
},
{
closed = 1;
nodes = (
(564,475,l),
(528,272,l),
(434,272,l),
(554,475,l)
);
}
);
width = 812;
}
);
unicode = 52;
},
{
glyphname = five;
layers = (
{
layerId = master01;
shapes = (
{
closed = 1;
nodes = (
(261,388,l),
(271,433,l),
(-161,433,l,{
name = hr00;
})
);
},
{
closed = 1;
nodes = (
(-140,529,l),
(282,484,l),
(291,529,l)
);
},
{
closed = 1;
nodes = (
(311,625,l),
(-119,625,l),
(302,580,l)
);
},
{
closed = 1;
nodes = (
(168,3,l),
(182,48,l),
(-250,48,l)
);
},
{
closed = 1;
nodes = (
(214,145,l),
(-217,145,l),
(199,101,l)
);
},
{
closed = 1;
nodes = (
(254,303,o),
(253,314,o),
(253,326,cs),
(253,337,l),
(-168,337,l),
(256,292,l)
);
},
{
closed = 1;
nodes = (
(-20,241,l),
(385,198,l),
(338,207,o),
(305,220,o),
(283,241,c)
);
},
{
closed = 1;
nodes = (
(271,-7,o),
(347,-15,o),
(426,-15,cs),
(570,-15,o),
(742,15,o),
(742,257,cs),
(742,335,o),
(695,380,o),
(551,399,cs),
(496,406,l),
(507,467,l),
(729,453,l),
(774,625,l),
(342,625,l),
(287,365,ls),
(284,350,o),
(283,338,o),
(283,326,cs),
(283,254,o),
(333,232,o),
(463,217,cs),
(532,209,l),
(524,159,l),
(494,155,o),
(463,153,o),
(434,153,cs),
(372,153,o),
(313,161,o),
(257,176,c),
(201,11,l)
);
}
);
width = 799;
}
);
unicode = 53;
},
{
glyphname = six;
layers = (
{
layerId = master01;
shapes = (
{
closed = 1;
nodes = (
(189,324,o),
(190,330,o),
(192,337,c),
(-240,337,l),
(183,292,ls)
);
},
{
closed = 1;
nodes = (
(174,210,o),
(176,225,o),
(177,241,c),
(-250,241,l),
(174,196,l)
);
},
{
closed = 1;
nodes = (
(-215,433,l),
(204,388,l),
(208,404,o),
(212,419,o),
(217,433,c)
);
},
{
closed = 1;
nodes = (
(178,115,o),
(176,129,o),
(175,145,c),
(-243,145,l),
(181,100,l)
);
},
{
closed = 1;
nodes = (
(-169,529,l),
(238,486,l),
(245,501,o),
(253,515,o),
(261,529,c)
);
},
{
closed = 1;
nodes = (
(-68,625,l),
(307,585,l),
(323,600,o),
(341,613,o),
(361,625,c)
);
},
{
closed = 1;
nodes = (
(-170,48,l),
(233,5,l),
(219,17,o),
(209,31,o),
(200,48,c,{
name = hr01;
})
);
},
{
closed = 1;
nodes = (
(486,139,o),
(467,136,o),
(429,136,cs),
(390,136,l),
(404,215,ls),
(411,254,o),
(431,257,o),
(469,257,cs),
(507,257,l),
(493,178,ls)
);
},
{
closed = 1;
nodes = (
(707,389,o),
(608,405,o),
(486,405,cs),
(438,405,l),
(451,475,l),
(703,475,l),
(753,614,l),
(717,626,o),
(622,640,o),
(574,640,cs),
(327,640,o),
(256,529,o),
(218,312,cs),
(209,261,o),
(204,216,o),
(204,177,cs),
(204,50,o),
(259,-15,o),
(412,-15,cs),
(602,-15,o),
(707,74,o),
(707,259,cs)
);
}
);
width = 769;
}
);
unicode = 54;
},
{
glyphname = seven;
layers = (
{
layerId = master01;
shapes = (
{
closed = 1;
nodes = (
(181,433,l),
(-250,433,l),
(174,388,l,{
name = hr00;
})
);
},
{
closed = 1;
nodes = (
(191,529,l),
(-238,529,l),
(186,484,l)
);
},
{
closed = 1;
nodes = (
(201,625,l),
(-226,625,l),
(196,580,l)
);
},
{
closed = 1;
nodes = (
(-247,48,l),
(161,4,l),
(185,48,l)
);
},
{
closed = 1;
nodes = (
(322,293,l),
(346,337,l),
(-86,337,l)
);
},
{
closed = 1;
nodes = (
(215,101,l),
(239,145,l),
(-193,145,l)
);
},
{
closed = 1;
nodes = (
(292,241,l),
(-139,241,l),
(268,198,l)
);
},
{
closed = 1;
nodes = (
(701,625,l),
(231,625,l),
(213,448,l),
(442,448,l),
(193,0,l),
(408,0,l),
(679,500,l)
);
}
);
width = 702;
}
);
unicode = 55;
},
{
glyphname = eight;
layers = (
{
layerId = master01;
shapes = (
{
closed = 1;
nodes = (
(199,241,l),
(-233,241,l),
(181,197,l),
(185,211,o),
(191,225,o),
(198,238,c)
);
},
{
closed = 1;
nodes = (
(242,399,o),
(242,410,o),
(242,422,cs),
(242,433,l),
(-180,433,l),
(244,388,l)
);
},
{
closed = 1;
nodes = (
(-168,529,l),
(248,485,l),
(252,501,o),
(257,515,o),
(263,529,c)
);
},
{
closed = 1;
nodes = (
(171,135,o),
(171,140,o),
(172,145,c),
(-250,145,l),
(174,100,l),
(172,110,o),
(171,120,o),
(171,131,cs)
);
},
{
closed = 1;
nodes = (
(267,324,o),
(263,330,o),
(260,337,c),
(-157,337,l),
(241,294,l),
(250,303,o),
(260,311,o),
(271,318,c)
);
},
{
closed = 1;
nodes = (
(-79,625,l),
(300,584,l),
(315,600,o),
(332,614,o),
(351,625,c)
);
},
{
closed = 1;
nodes = (
(-195,48,l),
(228,3,l),
(212,15,o),
(199,30,o),
(190,48,c,{
name = hr01;
})
);
},
{
closed = 1;
nodes = (
(415,640,o),
(272,589,o),
(272,422,cs),
(272,376,o),
(287,338,o),
(314,315,c),
(313,308,l),
(246,277,o),
(201,207,o),
(201,131,cs),
(201,20,o),
(298,-15,o),
(424,-15,cs),
(580,-15,o),
(711,44,o),
(711,196,cs),
(711,245,o),
(687,287,o),
(649,308,c),
(650,315,l),
(702,350,o),
(743,420,o),
(743,498,cs),
(743,605,o),
(647,640,o),
(539,640,cs)
);
},
{
closed = 1;
nodes = (
(505,178,ls),
(498,139,o),
(479,136,o),
(441,136,cs),
(402,136,l),
(418,223,ls),
(420,235,o),
(425,240,o),
(432,240,cs),
(438,240,o),
(443,238,o),
(450,234,cs),
(509,201,l)
);
},
{
closed = 1;
nodes = (
(456,442,ls),
(462,481,o),
(484,484,o),
(521,484,cs),
(559,484,l),
(545,403,ls),
(543,393,o),
(534,385,o),
(522,385,cs),
(519,385,o),
(515,386,o),
(509,389,cs),
(453,423,l)
);
}
);
width = 781;
}
);
unicode = 56;
},
{
glyphname = nine;
layers = (
{
layerId = master01;
shapes = (
{
closed = 1;
nodes = (
(220,406,o),
(221,419,o),
(223,433,c),
(-205,433,l),
(219,388,l)
);
},
{
closed = 1;
nodes = (
(215,145,l),
(-216,145,l),
(199,101,l)
);
},
{
closed = 1;
nodes = (
(181,48,l),
(-250,48,l),
(166,4,l)
);
},
{
closed = 1;
nodes = (
(253,529,l),
(-178,529,l),
(235,485,l),
(240,499,o),
(246,513,o),
(252,526,c)
);
},
{
closed = 1;
nodes = (
(346,625,l),
(-85,625,l),
(294,584,l),
(309,600,o),
(326,613,o),
(346,624,c)
);
},
{
closed = 1;
nodes = (
(-136,337,l),
(228,298,l),
(224,310,o),
(222,323,o),
(220,337,c,{
name = hr01;
})
);
},
{
closed = 1;
nodes = (
(304,215,o),
(286,225,o),
(267,241,c),
(10,241,l),
(328,204,l),
(329,209,l)
);
},
{
closed = 1;
nodes = (
(470,486,o),
(490,489,o),
(528,489,cs),
(567,489,l),
(554,418,ls),
(547,379,o),
(528,376,o),
(490,376,cs,{
name = hr02;
}),
(452,376,l),
(464,447,ls)
);
},
{
closed = 1;
nodes = (
(509,159,l),
(478,155,o),
(448,153,o),
(418,153,cs),
(371,153,o),
(313,161,o),
(257,176,c),
(200,11,l),
(270,-7,o),
(351,-15,o),
(430,-15,cs),
(630,-15,o),
(701,96,o),
(740,313,cs),
(749,363,o),
(754,407,o),
(754,446,cs),
(754,574,o),
(699,640,o),
(545,640,cs),
(358,640,o),
(249,551,o),
(249,367,cs),
(249,238,o),
(351,228,o),
(473,228,cs),
(521,228,l)
);
}
);
width = 787;
}
);
unicode = 57;
},
{
glyphname = fraction;
layers = (
{
layerId = master01;
shapes = (
{
closed = 1;
nodes = (
(382,665,ls),
(354,665,o),
(346,657,o),
(339,640,cs),
(70,-40,l),
(121,-40,ls),
(149,-40,o),
(157,-32,o),
(164,-15,cs),
(433,665,l,{
name = hr00;
})
);
}
);
width = 503;
}
);
unicode = 8260;
},
{
glyphname = onehalf;
layers = (
{
layerId = master01;
shapes = (
{
closed = 1;
nodes = (
(608,665,ls),
(580,665,o),
(574,656,o),
(565,640,c),
(296,-40,l),
(347,-40,ls),
(375,-40,o),
(381,-31,o),
(390,-15,c),
(659,665,l)
);
},
{
closed = 1;
nodes = (
(681,282,o),
(720,288,o),
(754,288,cs),
(766,288,o),
(774,288,o),
(795,286,c),
(789,251,l),
(749,233,ls),
(656,191,o),
(600,178,o),
(583,82,cs),
(569,0,l),
(875,0,l),
(893,105,l),
(733,105,l),
(737,125,l),
(880,173,o),
(914,188,o),
(928,270,cs),
(930,285,o),
(932,298,o),
(932,309,cs),
(932,389,o),
(872,398,o),
(797,398,cs),
(747,398,o),
(690,393,o),
(642,381,c),
(641,273,l)
);
},
{
closed = 1;
nodes = (
(340,332,l),
(275,332,l),
(325,616,l),
(226,616,l),
(96,584,l),
(76,475,l),
(168,480,l),
(142,332,l),
(61,332,l),
(43,227,l),
(322,227,l,{
name = hr01;
})
);
}
);
width = 971;
}
);
unicode = 189;
},
{
glyphname = onequarter;
layers = (
{
layerId = master01;
shapes = (
{
closed = 1;
nodes = (
(638,665,ls),
(610,665,o),
(604,656,o),
(595,640,c),
(326,-40,l),
(377,-40,ls),
(405,-40,o),
(411,-31,o),
(420,-15,c),
(689,665,l)
);
},
{
closed = 1;
nodes = (
(855,0,l),
(865,60,l,{
name = hr01;
}),
(902,60,l),
(920,160,l),
(883,160,l),
(923,389,l),
(710,389,l),
(578,144,l),
(563,60,l,{
name = hr02;
}),
(738,60,l),
(728,0,l)
);
},
{
closed = 1;
nodes = (
(696,160,l),
(763,295,l),
(780,295,l),
(756,160,l)
);
},
{
closed = 1;
nodes = (
(360,332,l),
(295,332,l),
(345,616,l),
(246,616,l),
(116,584,l),
(96,475,l),
(188,480,l),
(162,332,l),
(81,332,l),
(63,227,l),
(342,227,l,{
name = hr03;
})
);
}
);
width = 971;
}
);
unicode = 188;
},
{
glyphname = threequarters;
layers = (
{
layerId = master01;
shapes = (
{
closed = 1;
nodes = (
(619,665,ls),
(591,665,o),
(585,656,o),
(576,640,c),
(307,-40,l),
(358,-40,ls),
(386,-40,o),
(392,-31,o),
(401,-15,c),
(670,665,l)
);
},
{
closed = 1;
nodes = (
(855,0,l),
(865,60,l,{
name = hr01;
}),
(902,60,l),
(920,160,l),
(883,160,l),
(923,389,l),
(710,389,l),
(578,144,l),
(563,60,l,{
name = hr02;
}),
(738,60,l),
(728,0,l)
);
},
{
closed = 1;
nodes = (
(696,160,l),
(763,295,l),
(780,295,l),
(756,160,l)
);
},
{
closed = 1;
nodes = (
(143,456,l),
(131,387,l),
(227,376,l),
(219,330,l),
(202,328,o),
(188,328,o),
(172,328,cs,{
name = hr03;
}),
(137,328,o),
(105,334,o),
(66,344,c),
(29,235,l),
(74,223,o),
(115,218,o),
(166,218,cs),
(252,218,o),
(337,228,o),
(357,344,cs),
(358,353,o),
(359,362,o),
(359,370,cs),
(359,397,o),
(349,419,o),
(324,434,c),
(361,458,o),
(382,496,o),
(382,549,cs),
(382,616,o),
(325,625,o),
(247,625,cs),
(197,625,o),
(149,620,o),
(101,608,c),
(100,500,l),
(135,510,o),
(171,515,o),
(205,515,cs),
(221,515,o),
(236,514,o),
(251,512,c),
(243,468,l)
);
}
);
width = 971;
}
);
unicode = 190;
},
{
glyphname = onesuperior;
layers = (
{
layerId = master01;
shapes = (
{
closed = 1;
nodes = (
(334,448,l),
(269,448,l),
(319,732,l),
(220,732,l),
(90,700,l),
(70,591,l),
(162,596,l),
(136,448,l),
(55,448,l),
(37,343,l),
(316,343,l,{
name = hr00;
})
);
}
);
width = 400;
}
);
unicode = 185;
},
{
glyphname = twosuperior;
layers = (
{
layerId = master01;
shapes = (
{
closed = 1;
nodes = (
(124,625,o),
(163,631,o),
(197,631,cs),
(209,631,o),
(217,631,o),
(238,629,c),
(232,594,l),
(192,576,ls),
(99,534,o),
(43,521,o),
(26,425,cs),
(12,343,l),
(318,343,l),
(336,448,l),
(176,448,l),
(180,468,l),
(323,516,o),
(357,531,o),
(371,613,cs),
(373,628,o),
(375,641,o),
(375,652,cs),
(375,732,o),
(315,741,o),
(240,741,cs),
(190,741,o),
(133,736,o),
(85,724,c),
(84,616,l,{
name = hr00;
})
);
}
);
width = 400;
}
);
unicode = 178;
},
{
glyphname = threesuperior;
layers = (
{
layerId = master01;
shapes = (
{
closed = 1;
nodes = (
(127,572,l),
(115,503,l),
(211,492,l),
(203,446,l),
(186,444,o),
(172,444,o),
(156,444,cs),
(121,444,o),
(89,450,o),
(50,460,c),
(13,351,l),
(58,339,o),
(99,334,o),
(150,334,cs),
(236,334,o),
(321,344,o),
(341,460,cs),
(342,469,o),
(343,478,o),
(343,486,cs),
(343,513,o),
(333,535,o),
(308,550,c),
(345,574,o),
(366,612,o),
(366,665,cs),
(366,732,o),
(309,741,o),
(231,741,cs),
(181,741,o),
(133,736,o),
(85,724,c),
(84,616,l),
(119,626,o),
(155,631,o),
(189,631,cs),
(205,631,o),
(220,630,o),
(235,628,c),
(227,584,l,{
name = hr00;
})
);
}
);
width = 400;
}
);
unicode = 179;
},
{
glyphname = period;
layers = (
{
layerId = master01;
shapes = (
{
closed = 1;
nodes = (
(-159,145,l),
(63,100,l),
(65,118,o),
(68,132,o),
(72,145,c)
);
},
{
closed = 1;
nodes = (
(63,15,o),
(60,30,o),
(59,48,c),
(-154,48,l),
(70,3,l)
);
},
{
closed = 1;
nodes = (
(90,83,o),
(89,69,o),
(89,57,cs),
(89,12,o),
(111,-6,o),
(178,-6,cs),
(262,-6,o),
(287,23,o),
(300,99,cs),
(303,115,o),
(304,129,o),
(304,141,cs),
(304,187,o),
(282,206,o),
(216,206,cs,{
name = hr01;
}),
(131,206,o),
(106,175,o),
(93,99,cs)
);
}
);
width = 325;
}
);
unicode = 46;
},
{
glyphname = comma;
layers = (
{
layerId = master01;
shapes = (
{
closed = 1;
nodes = (
(91,89,o),
(90,80,o),
(90,72,cs),
(90,44,o),
(102,28,o),
(136,22,c),
(80,-122,l),
(160,-151,l),
(248,-15,ls),
(281,36,o),
(304,84,o),
(304,141,cs),
(304,187,o),
(282,206,o),
(216,206,cs),
(131,206,o),
(108,175,o),
(93,99,cs,{
name = hr00;
})
);
},
{
closed = 1;
nodes = (
(97,-1,l),
(75,8,o),
(64,32,o),
(59,48,c),
(-154,48,l)
);
},
{
closed = 1;
nodes = (
(-159,145,l),
(63,100,l),
(65,118,o),
(68,132,o),
(72,145,c)
);
}
);
width = 325;
}
);
unicode = 44;
},
{
glyphname = colon;
layers = (
{
layerId = master01;
shapes = (
{
closed = 1;
nodes = (
(-159,145,l),
(63,100,l),
(65,118,o),
(68,132,o),
(72,145,c,{
name = hr01;
})
);
},
{
closed = 1;
nodes = (
(63,15,o),
(60,30,o),
(59,48,c),
(-154,48,l),
(70,3,l)
);
},
{
closed = 1;
nodes = (
(90,83,o),
(89,69,o),
(89,57,cs),
(89,12,o),
(111,-6,o),
(178,-6,cs),
(262,-6,o),
(287,23,o),
(300,99,cs),
(303,115,o),
(304,129,o),
(304,141,cs),
(304,187,o),
(282,206,o),
(216,206,cs,{
name = hr02;
}),
(131,206,o),
(106,175,o),
(93,99,cs)
);
},
{
closed = 1;
nodes = (
(-106,434,l),
(116,389,l),
(118,407,o),
(121,421,o),
(125,434,c,{
name = hr03;
})
);
},
{
closed = 1;
nodes = (
(116,304,o),
(113,319,o),
(112,337,c),
(-101,337,l),
(123,292,l)
);
},
{
closed = 1;
nodes = (
(143,372,o),
(142,358,o),
(142,346,cs),
(142,301,o),
(164,283,o),
(231,283,cs),
(315,283,o),
(340,312,o),
(353,388,cs),
(356,404,o),
(357,418,o),
(357,430,cs),
(357,476,o),
(335,495,o),
(269,495,cs,{
name = hr04;
}),
(184,495,o),
(159,464,o),
(146,388,cs)
);
}
);
width = 325;
}
);
unicode = 58;
},
{
glyphname = semicolon;
layers = (
{
layerId = master01;
shapes = (
{
closed = 1;
nodes = (
(91,89,o),
(90,80,o),
(90,72,cs),
(90,44,o),
(102,28,o),
(136,22,c),
(80,-122,l),
(160,-151,l),
(248,-15,ls),
(281,36,o),
(304,84,o),
(304,141,cs),
(304,187,o),
(282,206,o),
(216,206,cs),
(131,206,o),
(108,175,o),
(93,99,cs,{
name = hr01;
})
);
},
{
closed = 1;
nodes = (
(97,-1,l),
(75,8,o),
(64,32,o),
(59,48,c),
(-154,48,l)
);
},
{
closed = 1;
nodes = (
(-159,145,l),
(63,100,l),
(65,118,o),
(68,132,o),
(72,145,c)
);
},
{
closed = 1;
nodes = (
(-106,434,l),
(116,389,l),
(118,407,o),
(121,421,o),
(125,434,c,{
name = hr02;
})
);
},
{
closed = 1;
nodes = (
(116,304,o),
(113,319,o),
(112,337,c),
(-101,337,l),
(123,292,l)
);
},
{
closed = 1;
nodes = (
(143,372,o),
(142,358,o),
(142,346,cs),
(142,301,o),
(164,283,o),
(231,283,cs),
(315,283,o),
(340,312,o),
(353,388,cs),
(356,404,o),
(357,418,o),
(357,430,cs),
(357,476,o),
(335,495,o),
(269,495,cs,{
name = hr03;
}),
(184,495,o),
(159,464,o),
(146,388,cs)
);
}
);
width = 325;
}
);
unicode = 59;
},
{
glyphname = ellipsis;
layers = (
{
layerId = master01;
shapes = (
{
closed = 1;
nodes = (
(-159,145,l),
(63,100,l),
(65,118,o),
(68,132,o),
(72,145,c)
);
},
{
closed = 1;
nodes = (
(63,15,o),
(60,30,o),
(59,48,c),
(-154,48,l),
(70,3,l)
);
},
{
closed = 1;
nodes = (
(90,83,o),
(89,69,o),
(89,57,cs),
(89,12,o),
(111,-6,o),
(178,-6,cs),
(262,-6,o),
(287,23,o),
(300,99,cs),
(303,115,o),
(304,129,o),
(304,141,cs),
(304,187,o),
(282,206,o),
(216,206,cs,{
name = hr01;
}),
(131,206,o),
(106,175,o),
(93,99,cs)
);
},
{
closed = 1;
nodes = (
(166,145,l),
(388,100,l),
(390,118,o),
(393,132,o),
(397,145,c,{
name = hr02;
})
);
},
{
closed = 1;
nodes = (
(388,15,o),
(385,30,o),
(384,48,c),
(171,48,l),
(395,3,l)
);
},
{
closed = 1;
nodes = (
(415,83,o),
(414,69,o),
(414,57,cs),
(414,12,o),
(436,-6,o),
(503,-6,cs),
(587,-6,o),
(612,23,o),
(625,99,cs),
(628,115,o),
(629,129,o),
(629,141,cs),
(629,187,o),
(607,206,o),
(541,206,cs,{
name = hr03;
}),
(456,206,o),
(431,175,o),
(418,99,cs)
);
},
{
closed = 1;
nodes = (
(491,145,l),
(713,100,l),
(715,118,o),
(718,132,o),
(722,145,c,{
name = hr04;
})
);
},
{
closed = 1;
nodes = (
(713,15,o),
(710,30,o),
(709,48,c),
(496,48,l),
(720,3,l)
);
},
{
closed = 1;
nodes = (
(740,83,o),
(739,69,o),
(739,57,cs),
(739,12,o),
(761,-6,o),
(828,-6,cs),
(912,-6,o),
(937,23,o),
(950,99,cs),
(953,115,o),
(954,129,o),
(954,141,cs),
(954,187,o),
(932,206,o),
(866,206,cs,{
name = hr05;
}),
(781,206,o),
(756,175,o),
(743,99,cs)
);
}
);
width = 975;
}
);
unicode = 8230;
},
{
glyphname = exclam;
layers = (
{
layerId = master01;
shapes = (
{
closed = 1;
nodes = (
(242,241,l),
(-186,241,l),
(237,196,l,{
name = hr00;
})
);
},
{
closed = 1;
nodes = (
(252,337,l),
(-169,337,l),
(247,292,l)
);
},
{
closed = 1;
nodes = (
(263,433,l),
(-152,433,l),
(258,388,l)
);
},
{
closed = 1;
nodes = (
(273,529,l),
(-135,529,l),
(268,484,l)
);
},
{
closed = 1;
nodes = (
(188,48,l),
(-220,48,l),
(196,3,l),
(191,14,o),
(188,28,o),
(188,44,c)
);
},
{
closed = 1;
nodes = (
(-203,145,l),
(197,102,l),
(203,120,o),
(212,134,o),
(223,145,c)
);
},
{
closed = 1;
nodes = (
(530,598,ls),
(531,600,o),
(531,603,o),
(531,605,cs),
(531,617,o),
(522,625,o),
(500,625,cs),
(352,625,ls),
(324,625,o),
(313,613,o),
(311,598,cs),
(264,170,l),
(425,170,l)
);
},
{
closed = 1;
nodes = (
(218,8,o),
(241,-7,o),
(314,-7,cs),
(407,-7,o),
(436,22,o),
(436,96,cs),
(436,132,o),
(413,149,o),
(342,149,cs),
(262,149,o),
(218,122,o),
(218,44,cs)
);
}
);
width = 534;
}
);
unicode = 33;
},
{
glyphname = exclamdown;
layers = (
{
layerId = master01;
shapes = (
{
closed = 1;
nodes = (
(305,313,l),
(-129,313,l),
(294,268,l)
);
},
{
closed = 1;
nodes = (
(258,121,l),
(-174,121,l),
(248,76,l)
);
},
{
closed = 1;
nodes = (
(271,172,l),
(282,217,l),
(-150,217,l)
);
},
{
closed = 1;
nodes = (
(224,-19,l),
(235,25,l),
(-197,25,l)
);
},
{
closed = 1;
nodes = (
(206,-93,o),
(207,-86,o),
(209,-80,cs),
(211,-72,l),
(-220,-72,l),
(209,-117,l),
(207,-111,o),
(206,-104,o),
(206,-97,cs)
);
},
{
closed = 1;
nodes = (
(-112,409,l),
(313,364,l),
(305,376,o),
(301,391,o),
(301,409,c)
);
},
{
closed = 1;
nodes = (
(-95,505,l),
(305,461,l),
(309,479,o),
(315,493,o),
(324,505,c)
);
},
{
closed = 1;
nodes = (
(237,-90,ls),
(236,-92,o),
(236,-95,o),
(236,-97,cs),
(236,-109,o),
(245,-117,o),
(267,-117,cs),
(415,-117,ls),
(443,-117,o),
(454,-105,o),
(456,-90,cs),
(503,338,l),
(342,338,l)
);
},
{
closed = 1;
nodes = (
(549,500,o),
(526,515,o),
(453,515,cs,{
name = hr01;
}),
(360,515,o),
(331,486,o),
(331,412,cs),
(331,376,o),
(354,359,o),
(425,359,cs,{
name = hr02;
}),
(505,359,o),
(549,386,o),
(549,464,cs)
);
}
);
width = 587;
}
);
unicode = 161;
},
{
glyphname = question;
layers = (
{
layerId = master01;
shapes = (
{
closed = 1;
nodes = (
(224,296,l),
(228,337,l),
(-151,337,l),
(223,292,l,{
name = hr00;
})
);
},
{
closed = 1;
nodes = (
(218,241,l),
(-161,241,l),
(213,196,l)
);
},
{
closed = 1;
nodes = (
(201,529,l),
(-173,529,l),
(200,484,l)
);
},
{
closed = 1;
nodes = (
(166,48,l),
(-200,48,l),
(174,3,l),
(168,14,o),
(166,28,o),
(166,44,c)
);
},
{
closed = 1;
nodes = (
(-181,145,l),
(174,102,l),
(179,119,o),
(188,134,o),
(200,145,c)
);
},
{
closed = 1;
nodes = (
(-90,433,l),
(237,393,l),
(244,408,o),
(260,420,o),
(292,433,c)
);
},
{
closed = 1;
nodes = (
(586,347,o),
(640,411,o),
(640,523,cs),
(640,629,o),
(545,640,o),
(435,640,cs),
(369,640,o),
(298,629,o),
(232,612,c),
(230,469,l),
(256,478,o),
(340,489,o),
(404,489,cs),
(419,489,o),
(434,488,o),
(446,487,c),
(440,453,l),
(332,416,ls),
(274,396,o),
(263,386,o),
(261,363,cs),
(241,175,l),
(403,175,l),
(442,302,l)
);
},
{
closed = 1;
nodes = (
(196,8,o),
(219,-7,o),
(291,-7,cs),
(385,-7,o),
(414,22,o),
(414,96,cs),
(414,132,o),
(391,149,o),
(319,149,cs),
(239,149,o),
(196,121,o),
(196,44,cs)
);
}
);
width = 610;
}
);
unicode = 63;
},
{
glyphname = questiondown;
layers = (
{
layerId = master01;
shapes = (
{
closed = 1;
nodes = (
(107,8,l),
(108,22,o),
(110,36,o),
(112,49,c),
(-318,49,l),
(106,4,l)
);
},
{
closed = 1;
nodes = (
(341,337,l),
(-90,337,l),
(328,292,l)
);
},
{
closed = 1;
nodes = (
(332,395,o),
(332,403,o),
(332,412,cs),
(332,433,l),
(-90,433,l),
(334,388,l)
);
},
{
closed = 1;
nodes = (
(-271,145,l),
(131,102,l),
(139,118,o),
(149,132,o),
(161,145,c)
);
},
{
closed = 1;
nodes = (
(-43,529,l),
(345,487,l),
(353,506,o),
(367,519,o),
(387,529,c,{
name = hr01;
})
);
},
{
closed = 1;
nodes = (
(313,241,l),
(-119,241,l),
(242,202,l),
(262,212,o),
(285,221,o),
(310,230,c)
);
},
{
closed = 1;
nodes = (
(190,161,o),
(136,97,o),
(136,-15,cs),
(136,-121,o),
(231,-132,o),
(341,-132,cs),
(407,-132,o),
(478,-121,o),
(544,-104,c),
(546,39,l),
(520,30,o),
(436,19,o),
(372,19,cs),
(357,19,o),
(342,20,o),
(330,21,c),
(336,55,l),
(444,92,ls),
(502,112,o),
(513,122,o),
(515,145,cs),
(535,333,l),
(373,333,l),
(334,206,l)
);
},
{
closed = 1;
nodes = (
(580,500,o),
(557,515,o),
(485,515,cs,{
name = hr02;
}),
(391,515,o),
(362,486,o),
(362,412,cs),
(362,376,o),
(385,359,o),
(457,359,cs),
(537,359,o),
(580,387,o),
(580,464,cs)
);
}
);
width = 610;
}
);
unicode = 191;
},
{
glyphname = periodcentered;
layers = (
{
layerId = master01;
shapes = (
{
closed = 1;
nodes = (
(-159,338,l),
(63,293,l),
(65,311,o),
(68,325,o),
(72,338,c,{
name = hr01;
})
);
},
{
closed = 1;
nodes = (
(63,208,o),
(60,223,o),
(59,241,c),
(-154,241,l),
(70,196,l)
);
},
{
closed = 1;
nodes = (
(90,276,o),
(89,262,o),
(89,250,cs),
(89,205,o),
(111,187,o),
(178,187,cs),
(262,187,o),
(287,216,o),
(300,292,cs),
(303,308,o),
(304,322,o),
(304,334,cs),
(304,380,o),
(282,399,o),
(216,399,cs,{
name = hr02;
}),
(131,399,o),
(106,368,o),
(93,292,cs)
);
}
);
width = 325;
}
);
unicode = 183;
},
{
glyphname = bullet;
layers = (
{
layerId = master01;
shapes = (
{
closed = 1;
nodes = (
(174,211,o),
(175,226,o),
(176,241,c),
(-250,241,l),
(174,196,l)
);
},
{
closed = 1;
nodes = (
(-227,337,l),
(186,293,l),
(191,309,o),
(197,323,o),
(204,337,c,{
name = hr01;
})
);
},
{
closed = 1;
nodes = (
(200,111,o),
(188,125,o),
(181,145,c),
(-206,145,l),
(218,100,l,{
name = hr02;
})
);
},
{
closed = 1;
nodes = (
(204,136,o),
(234,112,o),
(321,112,cs,{
name = hr03;
}),
(451,112,o),
(484,196,o),
(484,305,cs),
(484,363,o),
(455,388,o),
(370,388,cs),
(242,388,o),
(204,303,o),
(204,195,cs)
);
}
);
width = 526;
}
);
unicode = 8226;
},
{
glyphname = asterisk;
layers = (
{
layerId = master01;
shapes = (
{
closed = 1;
nodes = (
(150,529,l),
(-180,529,l),
(129,485,l,{
name = hr00;
})
);
},
{
closed = 1;
nodes = (
(-169,337,l),
(135,294,l),
(137,305,o),
(145,314,o),
(153,325,cs),
(162,337,l)
);
},
{
closed = 1;
nodes = (
(159,238,o),
(158,239,o),
(157,241,c),
(-114,241,l),
(207,196,l)
);
},
{
closed = 1;
nodes = (
(128,401,o),
(117,412,o),
(115,433,c),
(-157,433,l),
(162,388,l),
(148,394,ls)
);
},
{
closed = 1;
nodes = (
(479,640,o),
(479,642,o),
(479,644,cs),
(479,659,o),
(468,665,o),
(449,665,cs),
(377,665,ls),
(346,665,o),
(338,653,o),
(336,638,cs),
(326,580,l),
(338,492,l),
(278,547,l),
(227,565,ls),
(223,566,o),
(220,567,o),
(217,567,cs),
(203,567,o),
(195,555,o),
(187,538,cs),
(153,466,ls),
(148,456,o),
(145,448,o),
(145,440,cs),
(145,430,o),
(150,425,o),
(159,422,cs),
(208,404,l),
(294,404,l),
(215,351,l),
(174,304,ls),
(168,298,o),
(165,292,o),
(165,286,cs),
(165,278,o),
(169,269,o),
(180,260,cs),
(231,216,ls),
(240,208,o),
(248,205,o),
(255,205,cs),
(262,205,o),
(269,209,o),
(275,216,cs),
(315,262,l),
(354,345,l),
(361,263,l),
(392,215,ls),
(397,207,o),
(402,204,o),
(410,204,cs),
(417,204,o),
(426,208,o),
(437,216,cs),
(501,260,ls),
(519,272,o),
(525,282,o),
(525,292,cs),
(525,296,o),
(525,300,o),
(523,304,cs),
(499,351,l),
(435,406,l),
(525,406,l),
(582,422,ls),
(598,426,o),
(603,440,o),
(603,453,cs),
(603,458,o),
(603,462,o),
(602,467,cs),
(592,538,ls),
(589,555,o),
(582,565,o),
(569,565,cs),
(567,565,o),
(564,565,o),
(561,564,cs),
(507,548,l),
(425,491,l),
(469,580,l)
);
}
);
width = 648;
}
);
unicode = 42;
},
{
glyphname = numbersign;
layers = (
{
layerId = master01;
shapes = (
{
closed = 1;
nodes = (
(374,665,ls),
(346,665,o),
(340,656,o),
(331,640,c),
(265,474,l),
(155,474,l),
(137,471,o),
(126,469,o),
(116,443,cs),
(97,395,l),
(234,395,l),
(168,228,l),
(58,228,l),
(40,226,o),
(29,223,o),
(19,197,cs),
(0,150,l),
(137,150,l),
(62,-40,l),
(113,-40,ls),
(141,-40,o),
(147,-31,o),
(156,-15,c),
(221,150,l),
(401,150,l),
(326,-40,l),
(377,-40,ls),
(405,-40,o),
(411,-31,o),
(420,-15,c),
(485,150,l),
(592,150,l),
(610,152,o),
(620,155,o),
(631,181,cs),
(649,228,l),
(516,228,l),
(582,395,l),
(689,395,l),
(707,398,o),
(718,400,o),
(728,426,cs),
(746,474,l),
(613,474,l),
(689,665,l),
(638,665,ls),
(610,665,o),
(604,656,o),
(595,640,c),
(529,474,l),
(349,474,l),
(425,665,l,{
name = hr00;
})
);
},
{
closed = 1;
nodes = (
(498,395,l),
(432,228,l),
(252,228,l),
(318,395,l)
);
}
);
width = 746;
}
);
unicode = 35;
},
{
glyphname = slash;
layers = (
{
layerId = master01;
shapes = (
{
closed = 1;
nodes = (
(580,665,ls),
(552,665,o),
(546,656,o),
(537,640,cs),
(148,-40,l),
(219,-40,ls),
(247,-40,o),
(253,-31,o),
(262,-15,cs),
(651,665,l,{
name = hr00;
})
);
},
{
closed = 1;
nodes = (
(165,48,l),
(-150,48,l),
(141,3,l)
);
},
{
closed = 1;
nodes = (
(275,241,l),
(-40,241,l),
(251,196,l)
);
},
{
closed = 1;
nodes = (
(330,337,l),
(15,337,l),
(306,292,l)
);
},
{
closed = 1;
nodes = (
(385,433,l),
(70,433,l),
(361,388,l)
);
},
{
closed = 1;
nodes = (
(439,529,l),
(125,529,l),
(416,484,l)
);
},
{
closed = 1;
nodes = (
(220,145,l),
(-95,145,l),
(196,100,l)
);
},
{
closed = 1;
nodes = (
(493,625,l),
(179,625,l),
(470,580,l)
);
}
);
width = 651;
}
);
unicode = 47;
},
{
glyphname = backslash;
layers = (
{
layerId = master01;
shapes = (
{
closed = 1;
nodes = (
(398,-31,o),
(404,-40,o),
(432,-40,cs),
(503,-40,l),
(114,640,ls),
(105,656,o),
(99,665,o),
(71,665,cs),
(0,665,l),
(389,-15,ls,{
name = hr00;
})
);
}
);
width = 503;
}
);
unicode = 92;
},
{
glyphname = hyphen;
layers = (
{
layerId = master01;
shapes = (
{
closed = 1;
nodes = (
(332,241,l),
(0,241,l),
(324,196,l,{
name = hr00;
})
);
},
{
closed = 1;
nodes = (
(349,337,l),
(17,337,l),
(341,292,l)
);
}
);
width = 350;
}
);
unicode = 45;
},
{
glyphname = endash;
layers = (
{
layerId = master01;
shapes = (
{
closed = 1;
nodes = (
(543,241,l),
(31,241,l),
(535,196,l,{
name = hr00;
})
);
},
{
closed = 1;
nodes = (
(560,337,l),
(48,337,l),
(552,292,l)
);
}
);
width = 595;
}
);
unicode = 8211;
},
{
glyphname = emdash;
layers = (
{
layerId = master01;
shapes = (
{
closed = 1;
nodes = (
(797,241,l),
(45,241,l),
(789,196,l,{
name = hr00;
})
);
},
{
closed = 1;
nodes = (
(814,337,l),
(62,337,l),
(806,292,l)
);
}
);
width = 854;
}
);
unicode = 8212;
},
{
glyphname = underscore;
layers = (
{
layerId = master01;
shapes = (
{
closed = 1;
nodes = (
(-94,-81,l),
(-410,-81,l),
(-103,-135,l,{
name = hr00;
})
);
},
{
closed = 1;
nodes = (
(282,-135,ls),
(320,-135,o),
(347,-132,o),
(354,-93,cs),
(373,15,l),
(21,15,ls),
(-17,15,o),
(-44,12,o),
(-51,-27,cs),
(-70,-135,l)
);
}
);
width = 406;
}
);
unicode = 95;
},
{
glyphname = parenleft;
layers = (
{
layerId = master01;
shapes = (
{
closed = 1;
nodes = (
(224,301,o),
(225,309,o),
(226,317,cs),
(227,323,o),
(228,330,o),
(230,337,c),
(-202,337,l),
(222,292,l)
);
},
{
closed = 1;
nodes = (
(-176,433,l),
(242,388,l),
(255,433,l)
);
},
{
closed = 1;
nodes = (
(214,211,o),
(215,226,o),
(216,241,c),
(-210,241,l),
(214,196,l)
);
},
{
closed = 1;
nodes = (
(-201,145,l),
(223,100,l),
(220,115,o),
(218,130,o),
(216,145,c)
);
},
{
closed = 1;
nodes = (
(276,485,l),
(283,500,o),
(290,514,o),
(299,529,c),
(-132,529,l)
);
},
{
closed = 1;
nodes = (
(-160,48,l),
(263,3,l),
(253,17,o),
(245,32,o),
(239,48,c)
);
},
{
closed = 1;
nodes = (
(336,583,l),
(347,598,o),
(361,612,o),
(375,625,c),
(-56,625,l)
);
},
{
closed = 1;
nodes = (
(337,660,o),
(277,428,o),
(256,312,cs),
(250,277,o),
(244,233,o),
(244,186,cs),
(244,76,o),
(278,-45,o),
(431,-66,c),
(466,81,l),
(444,92,o),
(414,106,o),
(414,192,cs,{
name = hr01;
}),
(414,222,o),
(418,261,o),
(427,312,cs),
(460,501,o),
(512,528,o),
(548,543,c),
(564,690,l)
);
}
);
width = 558;
}
);
unicode = 40;
},
{
glyphname = parenright;
layers = (
{
layerId = master01;
shapes = (
{
closed = 1;
nodes = (
(277,337,l),
(-155,337,l),
(269,292,l)
);
},
{
closed = 1;
nodes = (
(149,48,l),
(-280,48,l),
(144,3,l)
);
},
{
closed = 1;
nodes = (
(-174,241,l),
(244,196,l),
(249,209,o),
(253,224,o),
(258,241,c)
);
},
{
closed = 1;
nodes = (
(244,580,l),
(255,625,l),
(-176,625,l)
);
},
{
closed = 1;
nodes = (
(285,424,o),
(285,429,o),
(284,433,c),
(-140,433,l),
(283,388,l),
(284,400,o),
(285,410,o),
(285,420,cs)
);
},
{
closed = 1;
nodes = (
(-212,145,l),
(178,103,l),
(191,111,o),
(205,123,o),
(219,145,c)
);
},
{
closed = 1;
nodes = (
(261,495,o),
(245,511,o),
(228,516,c),
(231,529,l),
(-155,529,l),
(269,484,l)
);
},
{
closed = 1;
nodes = (
(286,522,o),
(315,504,o),
(315,420,cs),
(315,390,o),
(311,352,o),
(302,302,cs),
(268,107,o),
(218,86,o),
(182,71,c),
(166,-76,l),
(393,-46,o),
(453,186,o),
(473,302,cs),
(479,337,o),
(486,382,o),
(486,429,cs,{
name = hr01;
}),
(486,539,o),
(451,659,o),
(299,680,c),
(263,533,l)
);
}
);
width = 512;
}
);
unicode = 41;
},
{
glyphname = braceleft;
layers = (
{
layerId = master01;
shapes = (
{
closed = 1;
nodes = (
(415,175,ls),
(419,190,o),
(422,204,o),
(422,218,cs),
(422,248,o),
(411,275,o),
(385,295,c),
(387,307,l),
(418,324,o),
(446,346,o),
(453,409,cs),
(465,526,l),
(542,533,o),
(544,533,o),
(545,533,c),
(562,680,l),
(437,680,o),
(316,676,o),
(306,575,cs),
(285,373,l),
(220,357,l),
(200,245,l),
(260,229,l),
(208,22,o),
(207,16,o),
(207,10,cs),
(207,-72,o),
(313,-76,o),
(429,-76,c),
(464,71,l),
(386,78,l)
);
},
{
closed = 1;
nodes = (
(177,18,o),
(179,33,o),
(183,48,c),
(-250,48,l),
(177,3,l)
);
},
{
closed = 1;
nodes = (
(223,208,l),
(166,223,l),
(169,241,l),
(-216,241,l),
(220,196,l)
);
},
{
closed = 1;
nodes = (
(186,337,l),
(-199,337,l),
(178,292,l)
);
},
{
closed = 1;
nodes = (
(262,433,l),
(-182,433,l),
(232,391,l),
(258,397,l)
);
},
{
closed = 1;
nodes = (
(271,529,l),
(-165,529,l),
(267,484,l)
);
},
{
closed = 1;
nodes = (
(207,145,l,{
name = hr01;
}),
(-233,145,l),
(196,100,l)
);
},
{
closed = 1;
nodes = (
(278,595,o),
(284,615,o),
(292,625,c),
(-148,625,l),
(276,580,l)
);
}
);
width = 557;
}
);
unicode = 123;
},
{
glyphname = braceright;
layers = (
{
layerId = master01;
shapes = (
{
closed = 1;
nodes = (
(307,429,ls),
(303,414,o),
(300,400,o),
(300,386,cs),
(300,356,o),
(311,329,o),
(337,309,c),
(335,297,l),
(304,280,o),
(276,258,o),
(269,195,cs),
(257,78,l),
(177,71,l),
(160,-76,l),
(285,-76,o),
(406,-72,o),
(416,29,cs),
(437,231,l),
(502,247,l),
(522,359,l),
(462,375,l),
(514,582,o),
(515,588,o),
(515,594,cs),
(515,676,o),
(409,680,o),
(293,680,c),
(258,533,l),
(336,526,l,{
name = hr00;
})
);
},
{
closed = 1;
nodes = (
(144,48,l),
(-210,48,l),
(139,3,l)
);
},
{
closed = 1;
nodes = (
(297,499,l),
(221,506,l),
(226,529,l),
(-125,529,l),
(290,475,l)
);
},
{
closed = 1;
nodes = (
(249,625,l),
(-108,625,l),
(239,580,l)
);
},
{
closed = 1;
nodes = (
(291,312,o),
(284,324,o),
(279,337,c),
(-159,337,l),
(286,293,l),
(300,302,l)
);
},
{
closed = 1;
nodes = (
(240,213,o),
(244,229,o),
(248,241,c),
(-176,241,l),
(239,197,l)
);
},
{
closed = 1;
nodes = (
(234,145,l),
(-193,145,l),
(230,106,l)
);
},
{
closed = 1;
nodes = (
(270,403,o),
(273,418,o),
(277,433,c),
(-142,433,l),
(270,388,l)
);
}
);
width = 533;
}
);
unicode = 125;
},
{
glyphname = bracketleft;
layers = (
{
layerId = master01;
shapes = (
{
closed = 1;
nodes = (
(208,22,o),
(207,16,o),
(207,10,cs),
(207,-72,o),
(313,-76,o),
(429,-76,c),
(464,71,l),
(386,78,l),
(465,526,l),
(542,533,o),
(544,533,o),
(545,533,c),
(562,680,l),
(437,680,o),
(324,675,o),
(306,575,cs),
(209,29,ls)
);
},
{
closed = 1;
nodes = (
(177,18,o),
(178,33,o),
(182,48,c),
(-250,48,l),
(177,3,l)
);
},
{
closed = 1;
nodes = (
(216,241,l),
(-216,241,l),
(208,196,l)
);
},
{
closed = 1;
nodes = (
(233,337,l),
(-199,337,l),
(225,292,l)
);
},
{
closed = 1;
nodes = (
(250,433,l),
(-182,433,l),
(242,388,l)
);
},
{
closed = 1;
nodes = (
(266,529,l),
(-165,529,l),
(259,484,l)
);
},
{
closed = 1;
nodes = (
(199,145,l,{
name = hr01;
}),
(-233,145,l),
(191,100,l)
);
},
{
closed = 1;
nodes = (
(277,595,o),
(282,613,o),
(295,625,c),
(-148,625,l),
(275,580,l)
);
}
);
width = 557;
}
);
unicode = 91;
},
{
glyphname = bracketright;
layers = (
{
layerId = master01;
shapes = (
{
closed = 1;
nodes = (
(514,582,o),
(515,588,o),
(515,594,cs),
(515,676,o),
(409,680,o),
(293,680,c),
(258,533,l),
(259,533,o),
(261,533,o),
(336,526,c),
(257,78,l),
(177,71,l),
(160,-76,l),
(284,-76,o),
(398,-71,o),
(416,29,cs),
(513,575,ls,{
name = hr00;
})
);
},
{
closed = 1;
nodes = (
(144,48,l),
(-210,48,l),
(139,3,l)
);
},
{
closed = 1;
nodes = (
(255,241,l),
(-176,241,l),
(247,196,l)
);
},
{
closed = 1;
nodes = (
(272,337,l),
(-159,337,l),
(264,292,l)
);
},
{
closed = 1;
nodes = (
(288,433,l),
(-142,433,l),
(280,388,l)
);
},
{
closed = 1;
nodes = (
(227,529,l),
(-125,529,l),
(217,484,l)
);
},
{
closed = 1;
nodes = (
(238,145,l),
(-193,145,l),
(230,100,l)
);
},
{
closed = 1;
nodes = (
(249,625,l),
(-108,625,l),
(239,580,l)
);
}
);
width = 532;
}
);
unicode = 93;
},
{
glyphname = quotesinglbase;
layers = (
{
layerId = master01;
shapes = (
{
closed = 1;
nodes = (
(91,89,o),
(90,80,o),
(90,72,cs),
(90,44,o),
(102,28,o),
(136,22,c),
(80,-122,l),
(160,-151,l),
(248,-15,ls),
(281,36,o),
(304,84,o),
(304,141,cs),
(304,187,o),
(282,206,o),
(216,206,cs),
(131,206,o),
(108,175,o),
(93,99,cs,{
name = hr01;
})
);
},
{
closed = 1;
nodes = (
(97,-1,l),
(75,8,o),
(64,32,o),
(59,48,c),
(-154,48,l)
);
},
{
closed = 1;
nodes = (
(-159,145,l),
(63,100,l),
(65,118,o),
(68,132,o),
(72,145,c)
);
}
);
width = 325;
}
);
unicode = 8218;
},
{
glyphname = quotedblbase;
layers = (
{
layerId = master01;
shapes = (
{
closed = 1;
nodes = (
(329,89,o),
(328,80,o),
(328,72,cs),
(328,44,o),
(340,28,o),
(374,22,c),
(318,-122,l),
(398,-151,l),
(486,-15,ls),
(519,36,o),
(542,84,o),
(542,141,cs),
(542,187,o),
(520,206,o),
(454,206,cs),
(369,206,o),
(346,175,o),
(331,99,cs)
);
},
{
closed = 1;
nodes = (
(91,89,o),
(90,80,o),
(90,72,cs),
(90,44,o),
(102,28,o),
(136,22,c),
(80,-122,l),
(160,-151,l),
(248,-15,ls),
(281,36,o),
(304,84,o),
(304,141,cs),
(304,187,o),
(282,206,o),
(216,206,cs),
(131,206,o),
(108,175,o),
(93,99,cs,{
name = hr01;
})
);
},
{
closed = 1;
nodes = (
(97,-1,l),
(75,8,o),
(64,32,o),
(59,48,c),
(-154,48,l)
);
},
{
closed = 1;
nodes = (
(-159,145,l),
(63,100,l),
(65,118,o),
(68,132,o),
(72,145,c)
);
}
);
width = 563;
}
);
unicode = 8222;
},
{
glyphname = quotedblleft;
layers = (
{
layerId = master01;
shapes = (
{
closed = 1;
nodes = (
(112,433,l),
(-218,433,l),
(105,388,l),
(105,399,o),
(107,412,o),
(111,427,c)
);
},
{
closed = 1;
nodes = (
(-178,529,l),
(129,485,l),
(136,502,o),
(144,516,o),
(152,529,c,{
name = hr01;
})
);
},
{
closed = 1;
nodes = (
(-166,337,l),
(154,292,l,{
name = hr02;
}),
(131,301,o),
(117,315,o),
(110,337,c)
);
},
{
closed = 1;
nodes = (
(348,474,o),
(337,490,o),
(302,496,c),
(360,641,l),
(280,670,l),
(191,534,ls),
(173,506,o),
(155,478,o),
(143,432,cs),
(140,420,ls),
(136,404,o),
(135,389,o),
(135,377,cs),
(135,332,o),
(158,313,o),
(224,313,cs),
(313,313,o),
(348,367,o),
(348,446,cs)
);
},
{
closed = 1;
nodes = (
(585,474,o),
(574,490,o),
(539,496,c),
(597,641,l),
(517,670,l),
(428,534,ls),
(410,506,o),
(392,478,o),
(380,432,cs),
(377,420,ls),
(373,404,o),
(372,389,o),
(372,377,cs),
(372,332,o),
(395,313,o),
(461,313,cs),
(550,313,o),
(585,367,o),
(585,446,cs)
);
}
);
width = 597;
}
);
unicode = 8220;
},
{
glyphname = quotedblright;
layers = (
{
layerId = master01;
shapes = (
{
closed = 1;
nodes = (
(197,525,o),
(197,527,o),
(198,529,c),
(-131,529,l),
(193,484,l),
(193,491,ls),
(193,500,o),
(194,511,o),
(197,524,c,{
name = hr00;
})
);
},
{
closed = 1;
nodes = (
(196,337,l),
(-134,337,l),
(179,293,l)
);
},
{
closed = 1;
nodes = (
(223,425,o),
(217,428,o),
(213,433,c),
(-99,433,l),
(217,389,l),
(230,422,l)
);
},
{
closed = 1;
nodes = (
(462,508,o),
(461,499,o),
(461,491,cs),
(461,463,o),
(473,447,o),
(507,441,c),
(451,297,l),
(531,268,l),
(619,404,ls),
(652,455,o),
(675,503,o),
(675,560,cs),
(675,606,o),
(653,625,o),
(587,625,cs),
(502,625,o),
(479,594,o),
(464,518,cs)
);
},
{
closed = 1;
nodes = (
(224,508,o),
(223,499,o),
(223,491,cs),
(223,463,o),
(235,447,o),
(269,441,c),
(213,297,l),
(293,268,l),
(381,404,ls),
(414,455,o),
(437,503,o),
(437,560,cs),
(437,606,o),
(415,625,o),
(349,625,cs),
(264,625,o),
(241,594,o),
(226,518,cs)
);
}
);
width = 696;
}
);
unicode = 8221;
},
{
glyphname = quoteleft;
layers = (
{
layerId = master01;
shapes = (
{
closed = 1;
nodes = (
(112,433,l),
(-218,433,l),
(105,388,l),
(105,399,o),
(107,412,o),
(111,427,c)
);
},
{
closed = 1;
nodes = (
(-178,529,l),
(129,485,l),
(136,502,o),
(144,516,o),
(152,529,c,{
name = hr01;
})
);
},
{
closed = 1;
nodes = (
(-166,337,l),
(154,292,l,{
name = hr02;
}),
(131,301,o),
(117,315,o),
(110,337,c)
);
},
{
closed = 1;
nodes = (
(348,474,o),
(337,490,o),
(302,496,c),
(360,641,l),
(280,670,l),
(191,534,ls),
(173,506,o),
(155,478,o),
(143,432,cs),
(140,420,ls),
(136,404,o),
(135,389,o),
(135,377,cs),
(135,332,o),
(158,313,o),
(224,313,cs),
(313,313,o),
(348,367,o),
(348,446,cs)
);
}
);
width = 360;
}
);
unicode = 8216;
},
{
glyphname = quoteright;
layers = (
{
layerId = master01;
shapes = (
{
closed = 1;
nodes = (
(197,525,o),
(197,527,o),
(198,529,c),
(-131,529,l),
(193,484,l),
(193,491,ls),
(193,500,o),
(194,511,o),
(197,524,c,{
name = hr00;
})
);
},
{
closed = 1;
nodes = (
(196,337,l),
(-134,337,l),
(179,293,l)
);
},
{
closed = 1;
nodes = (
(223,425,o),
(217,428,o),
(213,433,c),
(-99,433,l),
(217,389,l),
(230,422,l)
);
},
{
closed = 1;
nodes = (
(224,508,o),
(223,499,o),
(223,491,cs),
(223,463,o),
(235,447,o),
(269,441,c),
(213,297,l),
(293,268,l),
(381,404,ls),
(414,455,o),
(437,503,o),
(437,560,cs),
(437,606,o),
(415,625,o),
(349,625,cs),
(264,625,o),
(241,594,o),
(226,518,cs)
);
}
);
width = 458;
}
);
unicode = 8217;
},
{
glyphname = guillemotleft;
layers = (
{
layerId = master01;
shapes = (
{
closed = 1;
nodes = (
(132,273,l),
(-200,273,l),
(124,228,l,{
name = hr00;
})
);
},
{
closed = 1;
nodes = (
(205,369,l),
(-126,369,l),
(155,328,l)
);
},
{
closed = 1;
nodes = (
(323,465,l),
(-8,465,l),
(273,424,l)
);
},
{
closed = 1;
nodes = (
(169,132,l),
(130,177,l),
(-154,177,l)
);
},
{
closed = 1;
nodes = (
(254,35,l),
(214,80,l),
(-69,80,l)
);
},
{
closed = 1;
nodes = (
(150,200,l),
(303,25,l),
(389,76,l),
(325,250,l),
(450,424,l),
(382,475,l),
(167,300,l)
);
},
{
closed = 1;
nodes = (
(382,200,l),
(541,25,l),
(626,76,l),
(562,250,l),
(687,424,l),
(620,475,l),
(404,300,l)
);
}
);
width = 767;
}
);
unicode = 171;
},
{
glyphname = guillemotright;
layers = (
{
layerId = master01;
shapes = (
{
closed = 1;
nodes = (
(477,424,l),
(542,250,l),
(416,76,l),
(484,25,l),
(699,200,l),
(716,300,l),
(563,475,l,{
name = hr00;
})
);
},
{
closed = 1;
nodes = (
(240,424,l),
(305,250,l),
(179,76,l),
(247,25,l),
(462,200,l),
(479,300,l),
(326,475,l)
);
},
{
closed = 1;
nodes = (
(272,255,l),
(265,273,l),
(-150,273,l),
(252,228,l)
);
},
{
closed = 1;
nodes = (
(229,369,l),
(-76,369,l),
(245,328,l)
);
},
{
closed = 1;
nodes = (
(203,438,l),
(249,465,l),
(42,465,l),
(208,424,l)
);
},
{
closed = 1;
nodes = (
(182,132,l),
(215,177,l),
(-104,177,l)
);
},
{
closed = 1;
nodes = (
(184,35,l),
(138,70,l),
(145,80,l),
(-19,80,l)
);
}
);
width = 758;
}
);
unicode = 187;
},
{
glyphname = guilsinglleft;
layers = (
{
layerId = master01;
shapes = (
{
closed = 1;
nodes = (
(132,273,l),
(-200,273,l),
(124,228,l,{
name = hr00;
})
);
},
{
closed = 1;
nodes = (
(205,369,l),
(-126,369,l),
(155,328,l)
);
},
{
closed = 1;
nodes = (
(323,465,l),
(-8,465,l),
(273,424,l)
);
},
{
closed = 1;
nodes = (
(169,132,l),
(130,177,l),
(-154,177,l)
);
},
{
closed = 1;
nodes = (
(254,35,l),
(214,80,l),
(-69,80,l)
);
},
{
closed = 1;
nodes = (
(150,200,l),
(303,25,l),
(389,76,l),
(325,250,l),
(450,424,l),
(382,475,l),
(167,300,l)
);
}
);
width = 530;
}
);
unicode = 8249;
},
{
glyphname = guilsinglright;
layers = (
{
layerId = master01;
shapes = (
{
closed = 1;
nodes = (
(240,424,l),
(305,250,l),
(179,76,l),
(247,25,l),
(462,200,l),
(479,300,l),
(326,475,l,{
name = hr00;
})
);
},
{
closed = 1;
nodes = (
(272,255,l),
(265,273,l),
(-150,273,l),
(252,228,l)
);
},
{
closed = 1;
nodes = (
(229,369,l),
(-76,369,l),
(245,328,l)
);
},
{
closed = 1;
nodes = (
(203,438,l),
(249,465,l),
(42,465,l),
(208,424,l)
);
},
{
closed = 1;
nodes = (
(182,132,l),
(215,177,l),
(-104,177,l)
);
},
{
closed = 1;
nodes = (
(184,35,l),
(138,70,l),
(145,80,l),
(-19,80,l)
);
}
);
width = 521;
}
);
unicode = 8250;
},
{
glyphname = quotedbl;
layers = (
{
layerId = master01;
shapes = (
{
closed = 1;
nodes = (
(659,510,o),
(667,528,o),
(669,540,cs),
(679,598,ls),
(679,600,o),
(680,602,o),
(680,604,cs),
(680,616,o),
(672,625,o),
(649,625,cs),
(529,625,ls),
(501,625,o),
(491,613,o),
(489,598,cs),
(482,559,o),
(479,533,o),
(479,506,cs),
(479,275,l),
(574,275,l,{
name = hr00;
})
);
},
{
closed = 1;
nodes = (
(211,337,l),
(-100,337,l),
(211,292,l)
);
},
{
closed = 1;
nodes = (
(211,433,l),
(-83,433,l),
(211,388,l)
);
},
{
closed = 1;
nodes = (
(211,529,l),
(-66,529,l),
(211,484,l)
);
},
{
closed = 1;
nodes = (
(421,510,o),
(429,528,o),
(431,540,cs),
(441,598,ls),
(441,600,o),
(442,602,o),
(442,604,cs),
(442,616,o),
(434,625,o),
(411,625,cs),
(291,625,ls),
(263,625,o),
(253,613,o),
(251,598,cs),
(244,559,o),
(241,533,o),
(241,506,cs),
(241,275,l),
(336,275,l)
);
}
);
width = 665;
}
);
unicode = 34;
},
{
glyphname = quotesingle;
layers = (
{
layerId = master01;
shapes = (
{
closed = 1;
nodes = (
(211,337,l),
(-100,337,l),
(211,292,l,{
name = hr00;
})
);
},
{
closed = 1;
nodes = (
(211,433,l),
(-83,433,l),
(211,388,l)
);
},
{
closed = 1;
nodes = (
(211,529,l),
(-66,529,l),
(211,484,l)
);
},
{
closed = 1;
nodes = (
(421,510,o),
(429,528,o),
(431,540,cs),
(441,598,ls),
(441,600,o),
(442,602,o),
(442,604,cs),
(442,616,o),
(434,625,o),
(411,625,cs),
(291,625,ls),
(263,625,o),
(253,613,o),
(251,598,cs),
(244,559,o),
(241,533,o),
(241,506,cs),
(241,275,l),
(336,275,l)
);
}
);
width = 427;
}
);
unicode = 39;
},
